<?xml version="1.0" encoding="UTF-8" standalone="no"?>
<svg
   xmlns:dc="http://purl.org/dc/elements/1.1/"
   xmlns:cc="http://creativecommons.org/ns#"
   xmlns:rdf="http://www.w3.org/1999/02/22-rdf-syntax-ns#"
   xmlns:svg="http://www.w3.org/2000/svg"
   xmlns="http://www.w3.org/2000/svg"
   xmlns:sodipodi="http://sodipodi.sourceforge.net/DTD/sodipodi-0.dtd"
   xmlns:inkscape="http://www.inkscape.org/namespaces/inkscape"
   id="SVGRoot"
   version="1.1"
   viewBox="0 0 64 64"
   height="64px"
   width="64px"
   sodipodi:docname="allowed_cond.svg"
   inkscape:version="0.92.3 (2405546, 2018-03-11)">
  <sodipodi:namedview
     pagecolor="#ffffff"
     bordercolor="#666666"
     borderopacity="1"
     objecttolerance="10"
     gridtolerance="10"
     guidetolerance="10"
     inkscape:pageopacity="0"
     inkscape:pageshadow="2"
     inkscape:window-width="1366"
     inkscape:window-height="713"
     id="namedview835"
     showgrid="false"
     inkscape:zoom="8.3125"
     inkscape:cx="23.79192"
     inkscape:cy="32"
     inkscape:window-x="0"
     inkscape:window-y="27"
     inkscape:window-maximized="1"
     inkscape:current-layer="SVGRoot" />
  <defs
     id="defs5305" />
  <metadata
     id="metadata5308">
    <rdf:RDF>
      <cc:Work
         rdf:about="">
        <dc:format>image/svg+xml</dc:format>
        <dc:type
           rdf:resource="http://purl.org/dc/dcmitype/StillImage" />
        <dc:title />
      </cc:Work>
    </rdf:RDF>
  </metadata>
  <g
     id="layer1"
     transform="matrix(2.2269025,0,0,2.2269025,-39.26088,-39.26088)">
    <g
       transform="translate(-31,-27.625)"
       id="g5627">
      <path
         class="st6"
         d="m 75.77,53.895 c 0,-1.51 -1.22,-2.73 -2.73,-2.73 -0.82,0 -1.55,0.36 -2.05,0.94 l -5.4,-3.13 c 0.09,-0.27 0.15,-0.57 0.15,-0.88 0,-1.51 -1.22,-2.73 -2.73,-2.73 -1.51,0 -2.73,1.22 -2.73,2.73 0,0.31 0.05,0.6 0.14,0.87 l -5.4,3.13 c -0.5,-0.57 -1.23,-0.94 -2.06,-0.94 -1.51,0 -2.73,1.22 -2.73,2.73 0,1.3 0.92,2.4 2.14,2.67 l 0.01,6.13 c -1.23,0.27 -2.16,1.36 -2.16,2.67 0,1.51 1.22,2.73 2.73,2.73 0.8,0 1.53,-0.35 2.03,-0.9 l 5.42,3.13 c -0.09,0.27 -0.13,0.55 -0.13,0.84 0,1.51 1.22,2.73 2.73,2.73 1.51,0 2.73,-1.22 2.73,-2.73 0,-0.3 -0.05,-0.58 -0.13,-0.84 l 5.42,-3.13 c 0.5,0.55 1.22,0.9 2.03,0.9 1.51,0 2.73,-1.22 2.73,-2.73 0,-1.32 -0.95,-2.43 -2.2,-2.68 v -6.1 c 1.24,-0.25 2.19,-1.35 2.19,-2.68 m -2.73,-1.68 c 0.93,0 1.68,0.75 1.68,1.68 0,0.93 -0.75,1.68 -1.68,1.68 -0.93,0 -1.68,-0.75 -1.68,-1.68 0,-0.93 0.76,-1.68 1.68,-1.68 m -10.05,-5.8 c 0.93,0 1.68,0.75 1.68,1.68 0,0.29 -0.07,0.55 -0.2,0.79 -0.01,0.01 -0.02,0.02 -0.03,0.04 l -0.02,0.04 c -0.29,0.48 -0.83,0.81 -1.43,0.81 -0.93,0 -1.68,-0.75 -1.68,-1.68 0,-0.93 0.76,-1.68 1.68,-1.68 m -11.71,7.48 c 0,-0.93 0.75,-1.68 1.68,-1.68 0.93,0 1.68,0.75 1.68,1.68 0,0.92 -0.75,1.68 -1.68,1.68 -0.93,0 -1.68,-0.76 -1.68,-1.68 m 1.67,13.14 c -0.93,0 -1.68,-0.75 -1.68,-1.68 0,-0.93 0.75,-1.68 1.68,-1.68 0.93,0 1.68,0.75 1.68,1.68 -0.01,0.93 -0.76,1.68 -1.68,1.68 m 10.04,5.79 c -0.93,0 -1.68,-0.75 -1.68,-1.68 0,-0.93 0.75,-1.68 1.68,-1.68 0.93,0 1.68,0.75 1.68,1.68 0,0.93 -0.75,1.68 -1.68,1.68 m 2.08,-3.44 c -0.5,-0.59 -1.25,-0.97 -2.08,-0.97 -0.83,0 -1.58,0.37 -2.08,0.97 l -5.39,-3.11 c 0.1,-0.29 0.16,-0.6 0.16,-0.92 0,-1.34 -0.97,-2.46 -2.26,-2.69 l -0.01,-6.09 c 1.28,-0.22 2.26,-1.35 2.26,-2.69 0,-0.31 -0.05,-0.61 -0.15,-0.88 l 5.4,-3.13 c 0.5,0.58 1.24,0.94 2.06,0.94 0.82,0 1.55,-0.36 2.06,-0.94 l 5.4,3.13 c -0.09,0.27 -0.14,0.57 -0.14,0.88 0,1.32 0.95,2.43 2.2,2.68 v 6.1 c -1.25,0.25 -2.2,1.35 -2.2,2.68 0,0.33 0.06,0.64 0.16,0.92 z m 9.64,-4.03 c 0,0.93 -0.75,1.68 -1.68,1.68 -0.93,0 -1.68,-0.75 -1.68,-1.68 0,-0.93 0.75,-1.68 1.68,-1.68 0.93,0 1.68,0.75 1.68,1.68"
         id="path4900"
         inkscape:connector-curvature="0" />
      <path
         class="st6"
         d="m 65.54,61.735 v -1.9 c 0.32,-0.31 0.5,-0.73 0.5,-1.19 v -2.5 c 0,-1.53 -1.25,-2.78 -2.78,-2.78 h -0.54 c -1.53,0 -2.78,1.25 -2.78,2.78 v 2.5 c 0,0.46 0.19,0.88 0.5,1.19 v 1.9 c -0.61,0.32 -2.06,1.11 -3.43,2.23 -0.23,0.19 -0.26,0.52 -0.07,0.75 0.19,0.23 0.52,0.26 0.74,0.07 1.51,-1.24 3.14,-2.06 3.45,-2.21 0.22,-0.11 0.36,-0.33 0.36,-0.58 v -2.41 c 0,-0.17 -0.09,-0.34 -0.23,-0.44 -0.17,-0.11 -0.27,-0.3 -0.27,-0.5 v -2.5 c 0,-0.95 0.77,-1.72 1.72,-1.72 h 0.54 c 0.95,0 1.72,0.77 1.72,1.72 v 2.5 c 0,0.2 -0.1,0.39 -0.27,0.5 -0.15,0.1 -0.23,0.26 -0.23,0.44 v 2.41 c 0,0.24 0.14,0.47 0.36,0.58 0.32,0.15 1.95,0.98 3.45,2.21 0.1,0.08 0.22,0.12 0.33,0.12 0.15,0 0.3,-0.07 0.41,-0.19 0.19,-0.23 0.15,-0.56 -0.07,-0.75 -1.35,-1.12 -2.8,-1.92 -3.41,-2.23"
         id="path4902"
         inkscape:connector-curvature="0" />
    </g>
  </g>
</svg>
