<?xml version="1.0" encoding="UTF-8" standalone="no"?>
<svg
   xmlns:dc="http://purl.org/dc/elements/1.1/"
   xmlns:cc="http://creativecommons.org/ns#"
   xmlns:rdf="http://www.w3.org/1999/02/22-rdf-syntax-ns#"
   xmlns:svg="http://www.w3.org/2000/svg"
   xmlns="http://www.w3.org/2000/svg"
   xmlns:sodipodi="http://sodipodi.sourceforge.net/DTD/sodipodi-0.dtd"
   xmlns:inkscape="http://www.inkscape.org/namespaces/inkscape"
   id="SVGRoot"
   version="1.1"
   viewBox="0 0 64 64"
   height="64px"
   width="64px"
   sodipodi:docname="bike.svg"
   inkscape:version="0.92.3 (2405546, 2018-03-11)">
  <sodipodi:namedview
     pagecolor="#ffffff"
     bordercolor="#666666"
     borderopacity="1"
     objecttolerance="10"
     gridtolerance="10"
     guidetolerance="10"
     inkscape:pageopacity="0"
     inkscape:pageshadow="2"
     inkscape:window-width="1366"
     inkscape:window-height="713"
     id="namedview4585"
     showgrid="false"
     inkscape:zoom="3.6875"
     inkscape:cx="-6.5084746"
     inkscape:cy="32"
     inkscape:window-x="0"
     inkscape:window-y="27"
     inkscape:window-maximized="1"
     inkscape:current-layer="SVGRoot" />
  <defs
     id="defs5305" />
  <metadata
     id="metadata5308">
    <rdf:RDF>
      <cc:Work
         rdf:about="">
        <dc:format>image/svg+xml</dc:format>
        <dc:type
           rdf:resource="http://purl.org/dc/dcmitype/StillImage" />
        <dc:title />
      </cc:Work>
    </rdf:RDF>
  </metadata>
  <g
     id="layer1"
     transform="matrix(1.642396,0,0,1.642396,-20.556672,-20.556672)">
    <g
       transform="translate(16.25,12.5)"
       id="g6078">
      <path
         class="st6"
         d="m 3.1288349,18.88 c -3.49000001,0 -6.31,2.83 -6.31,6.31 0,3.48 2.82999999,6.31 6.31,6.31 3.49,0 6.31,-2.83 6.31,-6.31 0,-3.48 -2.83,-6.3 -6.31,-6.31 m 0,11.36 c -2.79000001,0 -5.05,-2.26 -5.05,-5.05 0,-2.79 2.25999999,-5.05 5.05,-5.05 2.79,0 5.05,2.26 5.05,5.05 0,2.79 -2.26,5.05 -5.05,5.05"
         id="path4816"
         inkscape:connector-curvature="0" />
      <path
         class="st6"
         d="m 3.1288349,22.67 c -1.4,0 -2.53000001,1.13 -2.53000001,2.52 0,1.39 1.13000001,2.52 2.53000001,2.52 1.39,0 2.52,-1.13 2.52,-2.52 0,-1.39 -1.13,-2.52 -2.52,-2.52 m 0,3.78 c -0.7,0 -1.26,-0.56 -1.26,-1.26 0,-0.7 0.57,-1.26 1.26,-1.26 0.7,0 1.26,0.57 1.26,1.26 0,0.7 -0.56,1.26 -1.26,1.26"
         id="path4818"
         inkscape:connector-curvature="0" />
      <path
         class="st6"
         d="m 28.378835,18.88 c -0.74,0 -1.47,0.13 -2.17,0.39 l -0.55,-1.14 c 0.79,-0.3 1.62,-0.47 2.47,-0.51 0.06,0 0.12,-0.01 0.18,-0.01 1.25,-0.01 2.49,0.29 3.6,0.87 0.31,0.16 0.69,0.04 0.85,-0.27 0.16,-0.31 0.04,-0.69 -0.26,-0.85 -1.26,-0.66 -2.66,-1.01 -4.09,-1.01 -0.01,0 -0.02,-0.01 -0.03,-0.01 h -0.06 c -0.11,0 -0.23,0.01 -0.34,0.02 -0.98,0.04 -1.95,0.25 -2.86,0.61 l -1.03,-2.15 c 0.57,0.17 1.17,0.26 1.77,0.26 0.35,0 0.63,-0.28 0.63,-0.63 V 9.4 c 0,-0.35 -0.28,-0.63 -0.63,-0.63 -1.48,-0.08 -2.91,0.53 -3.89,1.64 l -1.22,-2.55 c -0.1,-0.22 -0.33,-0.36 -0.57,-0.36 h -3.79 c -0.35,0 -0.63,0.28 -0.63,0.63 0,0.35 0.28,0.63 0.63,0.63 h 3.39 l 0.91,1.89 h -5.15 c -1.69,0 -3.21,1.02 -3.87,2.57 -0.11,-0.03 -0.22,-0.05 -0.33,-0.05 H 1.2388349 c -1.39000001,0 -2.52,1.13 -2.52,2.52 0,0.66 0.51999999,1.21 1.17999999,1.25 -0.79,0.31 -1.52999999,0.73 -2.19999999,1.25 -0.27,0.21 -0.32,0.61 -0.11,0.89 0.21,0.27 0.61,0.32 0.89,0.11 2.27999999,-1.78 5.38,-2.11 7.98,-0.84 2.6,1.27 4.2500001,3.91 4.2500001,6.81 v 0.83 c -0.08,0.48 0.05,0.97 0.35,1.36 0.24,0.23 0.57,0.35 0.91,0.34 h 6.94 c 0.51,0.01 0.99,-0.18 1.35,-0.54 0.36,-0.36 0.55,-0.85 0.54,-1.35 v -0.63 c 0,-1.25 0.31,-2.48 0.9,-3.58 0.04,-0.08 0.09,-0.15 0.13,-0.23 0.56,-0.95 1.31,-1.77 2.22,-2.41 0.03,-0.02 0.06,-0.05 0.09,-0.07 0.07,-0.05 0.15,-0.09 0.23,-0.14 0.05,-0.03 0.1,-0.06 0.15,-0.09 l 0.55,1.14 c -2.67,1.65 -3.72,5.03 -2.45,7.9 1.27,2.88 4.47,4.37 7.49,3.51 3.02,-0.86 4.95,-3.82 4.51,-6.94 -0.43,-3.07 -3.1,-5.39 -6.24,-5.38 m -5.69,-6.94 c 0,-0.9 1.1,-1.67 2.53,-1.85 v 3.71 c -0.77,-0.07 -1.49,-0.38 -2.07,-0.9 l -0.45,-0.94 c 0,-0.01 -0.01,-0.01 -0.01,-0.02 m -7.16,0 h 5.51 l 1.89,3.79 h -9.49 c -0.47,0 -0.85,-0.38 -0.85,-0.85 0.01,-1.63 1.32,-2.94 2.94,-2.94 M 1.2388349,14.46 H 11.338835 v 1.26 H -0.02116511 c -0.01,-0.69 0.56,-1.26 1.26000001,-1.26 M 19.538835,25.82 c 0.01,0.17 -0.05,0.34 -0.17,0.46 -0.12,0.12 -0.29,0.18 -0.46,0.17 h -6.94 c -0.01,-0.11 -0.01,-0.28 -0.01,-0.42 v -0.85 c 0.01,-3.62 -2.2000001,-6.87 -5.5600001,-8.2 h 4.9300001 c 0.34,0 0.67,-0.14 0.9,-0.39 0.35,0.25 0.78,0.38 1.21,0.39 h 10.26 l 0.26,0.55 c -0.06,0.03 -0.11,0.07 -0.16,0.1 -0.13,0.08 -0.25,0.15 -0.37,0.23 l -0.01,0.01 c -0.19,0.13 -0.37,0.27 -0.55,0.41 -0.06,-0.02 -0.12,-0.03 -0.18,-0.04 h -8.2 c -0.51,0 -1,0.21 -1.35,0.57 -0.36,0.36 -0.55,0.86 -0.54,1.37 v 0.54 c -0.01,0.51 0.18,1 0.54,1.37 0.36,0.36 0.84,0.57 1.35,0.57 h 5.42 c -0.12,0.41 -0.21,0.84 -0.27,1.26 h -3.89 c -0.35,0 -0.63,0.28 -0.63,0.63 0,0.35 0.28,0.63 0.63,0.63 h 3.79 z m 1.05,-4.8 c -0.01,0.02 -0.02,0.04 -0.03,0.06 -0.01,0.01 -0.01,0.02 -0.01,0.03 -0.05,0.1 -0.1,0.2 -0.14,0.3 h -5.91 c -0.17,0 -0.34,-0.08 -0.46,-0.2 -0.12,-0.13 -0.18,-0.3 -0.17,-0.47 V 20.2 c -0.01,-0.17 0.05,-0.35 0.17,-0.47 0.12,-0.12 0.29,-0.2 0.46,-0.21 h 7.12 c -0.32,0.39 -0.61,0.8 -0.86,1.23 -0.06,0.09 -0.12,0.17 -0.17,0.27 m 7.79,9.22 c -2.24,0 -4.21,-1.47 -4.84,-3.61 -0.64,-2.14 0.21,-4.45 2.09,-5.67 l 1.11,2.32 c -0.92,0.82 -1.09,2.2 -0.4,3.22 0.69,1.02 2.04,1.37 3.14,0.81 1.1,-0.55 1.62,-1.84 1.21,-3.01 -0.41,-1.17 -1.62,-1.85 -2.82,-1.59 l -1.11,-2.31 c 1.9,-0.65 3.99,-0.11 5.35,1.37 1.35,1.48 1.71,3.61 0.9,5.45 -0.82,1.84 -2.63,3.02 -4.63,3.02 m 0,-6.31 c 0.7,0 1.26,0.57 1.26,1.26 0,0.7 -0.57,1.26 -1.26,1.26 -0.7,0 -1.26,-0.57 -1.26,-1.26 0,-0.27 0.09,-0.54 0.26,-0.76 0.11,0.08 0.24,0.13 0.37,0.13 0.17,0 0.33,-0.07 0.44,-0.18 0.12,-0.12 0.18,-0.28 0.19,-0.45 z"
         id="path4820"
         inkscape:connector-curvature="0" />
    </g>
  </g>
</svg>
