<?xml version="1.0" encoding="UTF-8" standalone="no"?>
<svg
   xmlns:dc="http://purl.org/dc/elements/1.1/"
   xmlns:cc="http://creativecommons.org/ns#"
   xmlns:rdf="http://www.w3.org/1999/02/22-rdf-syntax-ns#"
   xmlns:svg="http://www.w3.org/2000/svg"
   xmlns="http://www.w3.org/2000/svg"
   id="SVGRoot"
   version="1.1"
   viewBox="0 0 64 64"
   height="64px"
   width="64px">
  <defs
     id="defs5305" />
  <metadata
     id="metadata5308">
    <rdf:RDF>
      <cc:Work
         rdf:about="">
        <dc:format>image/svg+xml</dc:format>
        <dc:type
           rdf:resource="http://purl.org/dc/dcmitype/StillImage" />
        <dc:title></dc:title>
      </cc:Work>
    </rdf:RDF>
  </metadata>
  <g
     id="layer1">
    <g
       transform="translate(8,-8.1250005)"
       id="g6119">
      <rect
         x="24.74"
         y="37.926136"
         class="st6"
         width="2.95"
         height="1.47"
         id="rect4806" />
      <path
         class="st6"
         d="m 1.9,36.446133 v 5.97 c 0,1.15 0.69,2.18 1.76,2.6 l 2.39,0.96 c 0.09,0.04 0.18,0.05 0.27,0.05 h 0.26 c 0.44,1.26 1.44,2.26 2.7,2.7 2.3,0.8 4.81,-0.4 5.61,-2.7 h 19.69 c 0.44,1.26 1.44,2.26 2.7,2.7 2.3,0.8 4.81,-0.4 5.61,-2.7 h 2.47 c 0.41,0 0.74,-0.33 0.74,-0.74 v -4.38 c 0,-1.2 -0.65,-2.32 -1.69,-2.91 -2.57,-1.46 -5.47,-2.25 -8.42,-2.29 l -2.53,-1.38 c -3.67,-2 -7.78,-3.05 -11.96,-3.05 h -0.87 c -3.54,0 -7.04,0.75 -10.27,2.21 -0.98,0.44 -1.92,0.94 -2.84,1.5 l -5.01,0.71 c -0.34,0.08 -0.61,0.39 -0.61,0.75 m 33.89,8.11 c 0,-1.4 0.99,-2.61 2.36,-2.89 1.6,-0.33 3.15,0.7 3.48,2.3 0.33,1.6 -0.7,3.15 -2.3,3.48 -1.59,0.33 -3.15,-0.7 -3.48,-2.3 -0.04,-0.19 -0.06,-0.39 -0.06,-0.59 m -13.26,-7.37 h 13.26 c 2.77,0 5.49,0.72 7.89,2.1 0.59,0.34 0.95,0.96 0.95,1.63 v 3.64 h -1.47 c 0,-2.44 -1.98,-4.42 -4.42,-4.42 -2.44,0 -4.42,1.98 -4.42,4.42 H 22.53 Z m 0,-4.39 c 3.58,0.16 7.08,1.13 10.23,2.84 l 0.14,0.08 H 22.53 Z m -1.47,2.92 h -7.8 l -1.29,-1.29 c 2.76,-1.1 5.7,-1.66 8.67,-1.66 h 0.42 z m -13.27,8.84 c 0,-1.4 0.99,-2.61 2.36,-2.89 1.59,-0.33 3.15,0.7 3.48,2.3 0.33,1.6 -0.7,3.15 -2.3,3.48 -1.6,0.33 -3.15,-0.7 -3.48,-2.3 -0.04,-0.19 -0.06,-0.39 -0.06,-0.59 m -4.42,-7.47 4.53,-0.65 c 0.1,-0.01 0.2,-0.05 0.29,-0.1 0.75,-0.47 1.53,-0.9 2.34,-1.28 l 1.91,1.91 c 0.14,0.14 0.33,0.22 0.52,0.22 h 8.11 v 7.37 h -5.9 c 0,-2.44 -1.98,-4.42 -4.42,-4.42 -0.15,0 -0.3,0.01 -0.45,0.02 -0.06,0.01 -0.11,0.02 -0.16,0.02 -0.09,0.01 -0.18,0.02 -0.28,0.04 -0.06,0.01 -0.11,0.03 -0.17,0.04 -0.09,0.02 -0.17,0.04 -0.26,0.07 -0.06,0.02 -0.11,0.04 -0.19,0.07 -0.07,0.03 -0.16,0.05 -0.22,0.08 -0.06,0.03 -0.11,0.05 -0.18,0.09 -0.07,0.03 -0.14,0.07 -0.2,0.1 -0.06,0.03 -0.11,0.06 -0.17,0.11 -0.06,0.04 -0.13,0.08 -0.19,0.11 -0.06,0.04 -0.11,0.08 -0.17,0.13 -0.06,0.04 -0.11,0.08 -0.17,0.13 -0.06,0.05 -0.11,0.1 -0.16,0.15 -0.05,0.05 -0.1,0.09 -0.15,0.14 -0.05,0.05 -0.1,0.11 -0.15,0.16 -0.05,0.05 -0.09,0.09 -0.14,0.15 -0.05,0.06 -0.09,0.12 -0.13,0.17 -0.04,0.05 -0.08,0.1 -0.12,0.16 -0.04,0.06 -0.08,0.13 -0.12,0.19 -0.03,0.06 -0.07,0.11 -0.11,0.17 -0.03,0.06 -0.06,0.13 -0.1,0.2 -0.03,0.06 -0.06,0.12 -0.09,0.19 -0.03,0.07 -0.05,0.14 -0.07,0.2 -0.02,0.07 -0.05,0.13 -0.07,0.2 -0.02,0.07 -0.04,0.14 -0.06,0.21 -0.02,0.07 -0.04,0.14 -0.06,0.21 -0.01,0.07 -0.02,0.14 -0.03,0.21 -0.01,0.07 -0.03,0.15 -0.03,0.22 -0.01,0.07 -0.01,0.15 -0.01,0.22 0,0.07 -0.01,0.13 -0.01,0.2 l -2.11,-0.85 c -0.51,-0.2 -0.84,-0.69 -0.83,-1.23 v -3.02 H 5.6 v -1.47 H 3.39 v -0.84 z"
         id="path4808" />
    </g>
  </g>
</svg>
