<?xml version="1.0" encoding="UTF-8" standalone="no"?>
<svg
   xmlns:dc="http://purl.org/dc/elements/1.1/"
   xmlns:cc="http://creativecommons.org/ns#"
   xmlns:rdf="http://www.w3.org/1999/02/22-rdf-syntax-ns#"
   xmlns:svg="http://www.w3.org/2000/svg"
   xmlns="http://www.w3.org/2000/svg"
   id="SVGRoot"
   version="1.1"
   viewBox="0 0 64 64"
   height="64px"
   width="64px">
  <defs
     id="defs5305" />
  <metadata
     id="metadata5308">
    <rdf:RDF>
      <cc:Work
         rdf:about="">
        <dc:format>image/svg+xml</dc:format>
        <dc:type
           rdf:resource="http://purl.org/dc/dcmitype/StillImage" />
        <dc:title></dc:title>
      </cc:Work>
    </rdf:RDF>
  </metadata>
  <g
     id="layer1">
    <g
       transform="translate(-4.75,7)"
       id="g6033">
      <rect
         x="46.210003"
         y="33.280003"
         class="st6"
         width="2.3699999"
         height="1.1799999"
         id="rect4828" />
      <rect
         x="43.840008"
         y="33.280003"
         class="st6"
         width="1.1799999"
         height="1.1799999"
         id="rect4830" />
      <path
         class="st6"
         d="M 53.91,35.65 H 50.95 V 22.03 c 0,-0.65 -0.53,-1.18 -1.18,-1.18 h -15.4 c -0.65,0 -1.18,0.53 -1.18,1.18 V 35.65 H 30.82 V 9.59 c 0,-0.65 -0.53,-1.18 -1.18,-1.18 H 25.98 C 25.73,7.7 25.06,7.23 24.31,7.23 h -3.55 c -0.98,0 -1.78,0.8 -1.78,1.78 0,0.98 0.8,1.78 1.78,1.78 h 3.55 c 0.75,0 1.42,-0.48 1.67,-1.18 h 1.29 v 27.24 c 0,0.16 0.06,0.31 0.17,0.42 l 1.78,1.78 c 0.11,0.11 0.26,0.17 0.42,0.17 h 2.7 c -0.21,0.36 -0.33,0.77 -0.33,1.18 0,1.31 1.06,2.37 2.37,2.37 1.31,0 2.37,-1.06 2.37,-2.37 0,-0.42 -0.12,-0.83 -0.33,-1.18 h 11.32 c -0.21,0.36 -0.33,0.77 -0.33,1.18 0,1.31 1.06,2.37 2.37,2.37 1.31,0 2.37,-1.06 2.37,-2.37 0,-0.42 -0.12,-0.83 -0.33,-1.18 h 2.11 c 0.33,0 0.59,-0.27 0.59,-0.59 V 36.26 C 54.5,35.91 54.23,35.65 53.91,35.65 M 24.29,9.59 h -3.55 c -0.33,0 -0.59,-0.27 -0.59,-0.59 0,-0.32 0.26,-0.59 0.59,-0.59 h 3.55 c 0.33,0 0.59,0.27 0.59,0.59 0,0.32 -0.26,0.59 -0.59,0.59 M 45.02,24.4 h 4.74 v 1.18 h -4.74 z m 4.74,-1.19 h -4.74 v -1.18 h 4.74 z m -5.92,4.74 h -3.55 v -5.92 h 3.55 z M 39.1,25.58 H 34.36 V 24.4 h 4.74 z m 0,-2.37 h -4.74 v -1.18 h 4.74 z m -4.74,3.56 h 4.74 v 1.18 c 0,0.65 0.53,1.19 1.18,1.19 h 3.55 c 0.65,0 1.18,-0.53 1.18,-1.19 v -1.18 h 4.74 v 8.88 h -15.4 v -8.88 z m 1.19,13.62 c 0,0.65 -0.53,1.18 -1.18,1.18 -0.65,0 -1.18,-0.53 -1.18,-1.18 0,-0.65 0.53,-1.18 1.18,-1.18 0.65,-0.01 1.18,0.52 1.18,1.18 m 15.39,0 c 0,0.65 -0.53,1.18 -1.18,1.18 -0.65,0 -1.18,-0.53 -1.18,-1.18 0,-0.65 0.53,-1.18 1.18,-1.18 0.65,-0.01 1.18,0.52 1.18,1.18 m 2.37,-2.37 H 29.86 l -1.43,-1.43 v -27 h 1.18 v 26.65 c 0,0.33 0.26,0.59 0.59,0.59 h 23.1 v 1.19 z"
         id="path4832" />
    </g>
  </g>
</svg>
