<?xml version="1.0" encoding="UTF-8" standalone="no"?>
<svg
   xmlns:dc="http://purl.org/dc/elements/1.1/"
   xmlns:cc="http://creativecommons.org/ns#"
   xmlns:rdf="http://www.w3.org/1999/02/22-rdf-syntax-ns#"
   xmlns:svg="http://www.w3.org/2000/svg"
   xmlns="http://www.w3.org/2000/svg"
   id="SVGRoot"
   version="1.1"
   viewBox="0 0 64 64"
   height="64px"
   width="64px">
  <defs
     id="defs5305" />
  <metadata
     id="metadata5308">
    <rdf:RDF>
      <cc:Work
         rdf:about="">
        <dc:format>image/svg+xml</dc:format>
        <dc:type
           rdf:resource="http://purl.org/dc/dcmitype/StillImage" />
        <dc:title></dc:title>
      </cc:Work>
    </rdf:RDF>
  </metadata>
  <g
     id="layer1">
    <g
       transform="translate(3.25,-5.625)"
       id="g5521">
      <path
         class="st7"
         d="m 27.36,41.095 c 0.37,0 0.66,-0.3 0.66,-0.66 v -2.65 c 0,-0.37 -0.3,-0.66 -0.66,-0.66 -0.37,0 -0.66,0.3 -0.66,0.66 v 2.65 c -0.01,0.36 0.29,0.66 0.66,0.66"
         id="path5126" />
      <path
         class="st7"
         d="m 31.94,42.965 c 0,0 0,0 0,0 -0.32,-0.19 -0.73,-0.08 -0.91,0.23 v 0 l -3.11,5.26 c -1.45,-0.33 -2.89,0.57 -3.22,2.02 -0.33,1.45 0.57,2.89 2.02,3.23 1.45,0.33 2.89,-0.57 3.23,-2.02 0.22,-0.96 -0.1,-1.96 -0.84,-2.62 l 3.06,-5.19 c 0.19,-0.32 0.08,-0.73 -0.23,-0.91 m -3.47,8.78 c -0.24,0.39 -0.66,0.62 -1.12,0.62 -0.73,0 -1.33,-0.59 -1.33,-1.33 0,-0.73 0.59,-1.33 1.33,-1.33 0.16,0 0.32,0.03 0.46,0.09 0.02,0.01 0.03,0.03 0.05,0.04 0.06,0.03 0.12,0.06 0.18,0.07 0.63,0.4 0.82,1.22 0.43,1.84"
         id="path5128" />
      <path
         class="st7"
         d="m 37.31,51.045 c 0,0.37 0.3,0.66 0.66,0.66 h 2.65 c 0.37,0 0.66,-0.3 0.66,-0.66 0,-0.37 -0.3,-0.66 -0.66,-0.66 h -2.65 c -0.36,0 -0.66,0.29 -0.66,0.66"
         id="path5130" />
      <path
         class="st7"
         d="m 16.74,50.385 h -2.65 c -0.37,0 -0.66,0.3 -0.66,0.66 0,0.37 0.3,0.66 0.66,0.66 h 2.65 c 0.37,0 0.66,-0.3 0.66,-0.66 0.01,-0.37 -0.29,-0.66 -0.66,-0.66"
         id="path5132" />
      <path
         class="st7"
         d="m 21.43,39.365 c -0.19,-0.32 -0.59,-0.42 -0.91,-0.23 -0.32,0.19 -0.42,0.59 -0.23,0.91 l 1.13,1.91 c 0.19,0.32 0.59,0.42 0.91,0.23 0.32,-0.18 0.42,-0.59 0.23,-0.91 z"
         id="path5134" />
      <path
         class="st7"
         d="m 18.38,44.885 -1.96,-1.1 c -0.32,-0.18 -0.72,-0.07 -0.9,0.25 -0.18,0.32 -0.07,0.72 0.25,0.9 l 1.96,1.11 c 0.32,0.18 0.72,0.07 0.9,-0.25 0.19,-0.33 0.07,-0.73 -0.25,-0.91"
         id="path5136" />
      <path
         class="st7"
         d="m 41.29,46.465 c 0.43,1.36 0.66,2.79 0.66,4.25 v 3.87 c -0.01,0.25 -0.21,0.45 -0.46,0.44 H 13.23 c -0.25,0.01 -0.46,-0.19 -0.46,-0.44 v -3.56 c 0,-7.82 6.36,-14.36 14.18,-14.57 0.8,-0.03 1.59,0.03 2.37,0.13 -0.06,-0.44 -0.09,-0.89 -0.1,-1.34 -0.76,-0.09 -1.53,-0.14 -2.3,-0.12 -8.53,0.23 -15.48,7.36 -15.48,15.9 v 3.56 c 0.01,0.98 0.81,1.77 1.79,1.77 h 28.26 c 0.98,0 1.78,-0.79 1.79,-1.77 v -3.87 c 0,-1.51 -0.23,-2.99 -0.65,-4.41 -0.44,0.08 -0.88,0.13 -1.34,0.16"
         id="path5138" />
      <path
         class="st7"
         d="m 40.61,25.895 c -5.08,0 -9.2,4.12 -9.2,9.2 0,5.08 4.12,9.2 9.2,9.2 5.08,0 9.2,-4.12 9.2,-9.2 -0.01,-5.08 -4.12,-9.2 -9.2,-9.2 m 0,17.18 c -4.4,0 -7.98,-3.57 -7.98,-7.98 0,-4.4 3.57,-7.97 7.98,-7.97 4.4,0 7.97,3.57 7.97,7.97 0,4.4 -3.57,7.97 -7.97,7.98"
         id="path5140" />
      <path
         class="st7"
         d="m 42.93,31.285 -3.55,3.55 -1.1,-1.1 c -0.75,-0.75 -1.96,-0.75 -2.71,0 -0.75,0.75 -0.75,1.96 0,2.71 l 2.51,2.51 c 0.72,0.72 1.88,0.72 2.6,0 l 4.96,-4.96 c 0.75,-0.75 0.75,-1.96 0,-2.71 -0.75,-0.74 -1.96,-0.74 -2.71,0 m 1.84,1.84 -4.96,4.96 c -0.24,0.24 -0.63,0.24 -0.87,0 l -2.51,-2.51 c -0.27,-0.27 -0.27,-0.7 0,-0.97 0.27,-0.27 0.7,-0.27 0.97,0 l 1.53,1.54 c 0.24,0.24 0.63,0.24 0.87,0 l 3.99,-3.99 c 0.27,-0.27 0.7,-0.27 0.97,0 0.28,0.27 0.28,0.7 0.01,0.97"
         id="path5142" />
    </g>
  </g>
</svg>
