<?xml version="1.0" encoding="UTF-8" standalone="no"?>
<svg
   xmlns:dc="http://purl.org/dc/elements/1.1/"
   xmlns:cc="http://creativecommons.org/ns#"
   xmlns:rdf="http://www.w3.org/1999/02/22-rdf-syntax-ns#"
   xmlns:svg="http://www.w3.org/2000/svg"
   xmlns="http://www.w3.org/2000/svg"
   id="SVGRoot"
   version="1.1"
   viewBox="0 0 64 64"
   height="64px"
   width="64px">
  <defs
     id="defs5305" />
  <metadata
     id="metadata5308">
    <rdf:RDF>
      <cc:Work
         rdf:about="">
        <dc:format>image/svg+xml</dc:format>
        <dc:type
           rdf:resource="http://purl.org/dc/dcmitype/StillImage" />
        <dc:title></dc:title>
      </cc:Work>
    </rdf:RDF>
  </metadata>
  <g
     id="layer1">
    <g
       transform="translate(-9.125,-11.25)"
       id="g5668">
      <path
         class="st5"
         d="m 63.04,31.59 c 0,-3.23 -2.63,-5.85 -5.85,-5.85 -3.23,0 -5.85,2.63 -5.85,5.85 0,3.42 4.41,8.13 5.29,9.05 v 4.19 c 0,2.21 -1.79,4 -4,4 h -8.44 l 6.75,-6.75 c 0.11,-0.11 0.17,-0.25 0.17,-0.4 0,-0.15 -0.06,-0.29 -0.17,-0.4 l -3.96,-3.96 c -0.21,-0.21 -0.59,-0.21 -0.8,0 l -6.87,6.87 -6.87,-6.87 c -0.21,-0.21 -0.58,-0.21 -0.8,0 l -3.96,3.96 c -0.11,0.11 -0.17,0.25 -0.17,0.4 0,0.15 0.06,0.29 0.17,0.4 l 6.75,6.75 H 23.99 c -0.26,-1.06 -1.21,-1.84 -2.35,-1.84 -1.34,0 -2.43,1.09 -2.43,2.43 0,1.34 1.09,2.43 2.43,2.43 1.14,0 2.09,-0.79 2.35,-1.85 h 9.52 l -1.37,1.37 c -0.11,0.11 -0.16,0.25 -0.16,0.4 0,0.15 0.06,0.29 0.16,0.4 0.11,0.11 0.25,0.16 0.4,0.16 v 0 c 0.15,0 0.29,-0.06 0.4,-0.16 l 2.81,-2.81 c 0.1,-0.11 0.16,-0.25 0.16,-0.4 0,-0.15 -0.06,-0.29 -0.16,-0.4 l -6.87,-6.87 3.17,-3.17 6.87,6.87 c 0.22,0.22 0.58,0.22 0.8,0 l 6.87,-6.87 3.17,3.17 -6.87,6.87 c -0.11,0.11 -0.16,0.25 -0.16,0.4 0,0.15 0.06,0.29 0.16,0.4 l 6.87,6.87 -3.17,3.17 -6.87,-6.87 c -0.22,-0.22 -0.58,-0.22 -0.8,0 l -6.87,6.87 -3.17,-3.17 2.44,-2.44 c 0.11,-0.11 0.17,-0.25 0.17,-0.4 0,-0.15 -0.06,-0.29 -0.17,-0.4 -0.22,-0.22 -0.58,-0.22 -0.8,0 l -2.84,2.84 c -0.22,0.22 -0.22,0.58 0,0.8 l 3.96,3.96 c 0.22,0.21 0.58,0.21 0.8,0 l 6.87,-6.87 6.87,6.87 c 0.11,0.11 0.25,0.17 0.4,0.17 0.15,0 0.29,-0.06 0.4,-0.17 l 3.96,-3.96 c 0.22,-0.22 0.22,-0.58 0,-0.8 L 45.12,50 h 7.51 c 2.85,0 5.17,-2.32 5.17,-5.17 v -4.24 c 0.98,-1.03 5.24,-5.64 5.24,-9 M 21.63,50.76 c -0.74,0 -1.35,-0.61 -1.35,-1.35 0,-0.74 0.61,-1.35 1.35,-1.35 0.75,0 1.35,0.61 1.35,1.35 0,0.74 -0.6,1.35 -1.35,1.35 M 57.19,26.88 c 2.59,0 4.71,2.12 4.71,4.71 0,2.58 -3.21,6.36 -4.6,7.86 v 0 l -0.11,0.12 -0.11,-0.12 c -2.12,-2.28 -4.6,-5.7 -4.6,-7.86 0,-2.6 2.12,-4.71 4.71,-4.71"
         id="path4782" />
      <path
         class="st5"
         d="m 59.52,31 c 0,-1.29 -1.05,-2.33 -2.33,-2.33 -1.28,0 -2.33,1.05 -2.33,2.33 0,1.29 1.05,2.33 2.33,2.33 1.28,0 2.33,-1.04 2.33,-2.33 M 56,31 c 0,-0.65 0.53,-1.19 1.19,-1.19 0.66,0 1.19,0.53 1.19,1.19 0,0.66 -0.53,1.19 -1.19,1.19 C 56.53,32.19 56,31.65 56,31"
         id="path4784" />
    </g>
  </g>
</svg>
