<?xml version="1.0" encoding="UTF-8" standalone="no"?>
<svg
   xmlns:dc="http://purl.org/dc/elements/1.1/"
   xmlns:cc="http://creativecommons.org/ns#"
   xmlns:rdf="http://www.w3.org/1999/02/22-rdf-syntax-ns#"
   xmlns:svg="http://www.w3.org/2000/svg"
   xmlns="http://www.w3.org/2000/svg"
   xmlns:sodipodi="http://sodipodi.sourceforge.net/DTD/sodipodi-0.dtd"
   xmlns:inkscape="http://www.inkscape.org/namespaces/inkscape"
   id="SVGRoot"
   version="1.1"
   viewBox="0 0 64 64"
   height="64px"
   width="64px"
   sodipodi:docname="eletric_mauer.svg"
   inkscape:version="0.92.3 (2405546, 2018-03-11)">
  <sodipodi:namedview
     pagecolor="#ffffff"
     bordercolor="#666666"
     borderopacity="1"
     objecttolerance="10"
     gridtolerance="10"
     guidetolerance="10"
     inkscape:pageopacity="0"
     inkscape:pageshadow="2"
     inkscape:window-width="1366"
     inkscape:window-height="713"
     id="namedview4949"
     showgrid="false"
     inkscape:zoom="3.6875"
     inkscape:cx="-6.5084746"
     inkscape:cy="32"
     inkscape:window-x="0"
     inkscape:window-y="27"
     inkscape:window-maximized="1"
     inkscape:current-layer="SVGRoot" />
  <defs
     id="defs5305" />
  <metadata
     id="metadata5308">
    <rdf:RDF>
      <cc:Work
         rdf:about="">
        <dc:format>image/svg+xml</dc:format>
        <dc:type
           rdf:resource="http://purl.org/dc/dcmitype/StillImage" />
        <dc:title />
      </cc:Work>
    </rdf:RDF>
  </metadata>
  <g
     id="layer1"
     transform="matrix(1.752649,0,0,1.752649,-25.837417,-31.095364)">
    <path
       id="path5220"
       d="m 46.845,22.72 c 0,-0.33 -0.27,-0.61 -0.61,-0.61 h -26.52 c -0.33,0 -0.61,0.27 -0.61,0.61 v 26.52 c 0,0.33 0.27,0.61 0.61,0.61 h 21.28 c 0.33,0 0.61,-0.27 0.61,-0.61 0,-0.33 -0.27,-0.61 -0.61,-0.61 H 20.325 V 23.32 h 25.31 v 20.67 c 0,0.34 0.27,0.61 0.61,0.61 0.33,0 0.61,-0.27 0.61,-0.61 V 22.72 Z"
       class="st8"
       inkscape:connector-curvature="0" />
    <path
       id="path5222"
       d="m 32.975,44.97 v 0 c -0.2,0 -0.4,-0.1 -0.51,-0.27 l -4.68,-6.76 c -1.93,-2.57 -1.65,-6.83 0.61,-9.09 1.22,-1.22 2.85,-1.89 4.58,-1.89 1.73,0 3.35,0.67 4.57,1.89 2.26,2.26 2.54,6.52 0.6,9.11 l -4.67,6.74 c -0.1,0.17 -0.29,0.27 -0.5,0.27 m 0,-16.77 c -1.4,0 -2.71,0.54 -3.7,1.53 -1.86,1.86 -2.08,5.36 -0.49,7.49 l 4.18,6.04 4.16,-6.01 c 0.01,-0.01 0.01,-0.01 0.01,-0.02 1.6,-2.14 1.38,-5.64 -0.48,-7.5 -0.97,-0.98 -2.28,-1.53 -3.68,-1.53"
       class="st8"
       inkscape:connector-curvature="0" />
    <path
       id="path5224"
       d="m 32.975,36.79 c -1.88,0 -3.41,-1.53 -3.41,-3.41 0,-1.88 1.53,-3.41 3.41,-3.41 1.88,0 3.41,1.53 3.41,3.41 0.01,1.88 -1.52,3.41 -3.41,3.41 m 0,-5.58 c -1.2,0 -2.17,0.97 -2.17,2.17 0,1.2 0.97,2.17 2.17,2.17 1.2,0 2.17,-0.97 2.17,-2.17 0,-1.2 -0.97,-2.17 -2.17,-2.17"
       class="st8"
       inkscape:connector-curvature="0" />
    <path
       id="path5226"
       d="m 24.925,53.44 h -7.02 c -1.31,0 -2.38,-1.07 -2.38,-2.38 v -7.02 c 0,-0.34 0.28,-0.62 0.62,-0.62 0.34,0 0.62,0.28 0.62,0.62 v 7.02 c 0,0.63 0.51,1.14 1.14,1.14 h 7.02 c 0.34,0 0.62,0.28 0.62,0.62 0,0.34 -0.28,0.62 -0.62,0.62"
       class="st8"
       inkscape:connector-curvature="0" />
    <path
       id="path5228"
       d="m 49.855,28.58 c -0.34,0 -0.62,-0.28 -0.62,-0.62 v -7.02 c 0,-0.63 -0.51,-1.14 -1.14,-1.14 h -7.02 c -0.34,0 -0.62,-0.28 -0.62,-0.62 0,-0.34 0.28,-0.62 0.62,-0.62 h 7.02 c 1.31,0 2.38,1.07 2.38,2.38 v 7.02 c 0,0.34 -0.27,0.62 -0.62,0.62"
       class="st8"
       inkscape:connector-curvature="0" />
  </g>
</svg>
