<?xml version="1.0" encoding="UTF-8" standalone="no"?>
<svg
   xmlns:dc="http://purl.org/dc/elements/1.1/"
   xmlns:cc="http://creativecommons.org/ns#"
   xmlns:rdf="http://www.w3.org/1999/02/22-rdf-syntax-ns#"
   xmlns:svg="http://www.w3.org/2000/svg"
   xmlns="http://www.w3.org/2000/svg"
   xmlns:sodipodi="http://sodipodi.sourceforge.net/DTD/sodipodi-0.dtd"
   xmlns:inkscape="http://www.inkscape.org/namespaces/inkscape"
   id="SVGRoot"
   version="1.1"
   viewBox="0 0 64 64"
   height="64px"
   width="64px"
   sodipodi:docname="fleet.svg"
   inkscape:version="0.92.3 (2405546, 2018-03-11)">
  <sodipodi:namedview
     pagecolor="#ffffff"
     bordercolor="#666666"
     borderopacity="1"
     objecttolerance="10"
     gridtolerance="10"
     guidetolerance="10"
     inkscape:pageopacity="0"
     inkscape:pageshadow="2"
     inkscape:window-width="1366"
     inkscape:window-height="713"
     id="namedview4990"
     showgrid="false"
     inkscape:zoom="3.6875"
     inkscape:cx="32"
     inkscape:cy="32"
     inkscape:window-x="0"
     inkscape:window-y="27"
     inkscape:window-maximized="1"
     inkscape:current-layer="SVGRoot" />
  <defs
     id="defs5305" />
  <metadata
     id="metadata5308">
    <rdf:RDF>
      <cc:Work
         rdf:about="">
        <dc:format>image/svg+xml</dc:format>
        <dc:type
           rdf:resource="http://purl.org/dc/dcmitype/StillImage" />
        <dc:title />
      </cc:Work>
    </rdf:RDF>
  </metadata>
  <g
     id="layer1"
     transform="matrix(1.6465211,0,0,1.6465211,-20.688676,-20.688675)">
    <path
       id="path4794"
       d="m 50.684529,40.445 c 0.13,-0.13 0.2,-0.31 0.19,-0.5 v -6.74 c 0,-0.14 -0.04,-0.28 -0.13,-0.39 l -0.54,-0.77 -1.48,-2.08 -3.78,-5.42 c -0.13,-0.19 -0.34,-0.3 -0.57,-0.3 h -5.86 v -3.88 c 0,-0.38 -0.31,-0.69 -0.69,-0.69 h -24.01 c -0.38,0 -0.69,0.31 -0.69,0.69 v 19.6 c 0,0.38 0.31,0.69 0.69,0.69 h 4.38 c 0.24,2.1 2.02,3.67 4.12,3.67 2.1,0 3.88,-1.58 4.12,-3.67 h 13.43 c 0.24,2.1 2.02,3.67 4.12,3.67 2.11,0 3.88,-1.58 4.12,-3.67 h 2.08 c 0.2,0 0.37,-0.08 0.5,-0.21 m -6.68,2.32 c -1.53,-0.02 -2.77,-1.27 -2.77,-2.8 0,-1.53 1.24,-2.77 2.77,-2.77 1.53,0 2.77,1.24 2.77,2.77 0,1.53 -1.24,2.77 -2.77,2.77 z m -21.67,0 c -1.53,-0.02 -2.77,-1.27 -2.77,-2.8 0,-1.53 1.24,-2.77 2.77,-2.77 1.53,0 2.77,1.24 2.77,2.77 0,1.53 -1.24,2.77 -2.77,2.77 z m 14.8,-21.71 v 1.76 h -5 c -0.38,0 -0.69,0.31 -0.69,0.69 0,0.38 0.31,0.69 0.69,0.69 h 5 v 15.06 h -10.67 c -0.24,-2.09 -2.02,-3.67 -4.12,-3.67 -2.1,0 -3.88,1.58 -4.13,3.67 h -3.69 v -4.43 h 18.79 c 0.38,0 0.69,-0.31 0.69,-0.69 0,-0.38 -0.31,-0.69 -0.69,-0.69 h -18.79 v -12.4 h 22.61 z m 7.59,5.57 h -3.88 c -0.38,0 -0.69,0.31 -0.69,0.69 v 5.12 c 0,0.38 0.31,0.69 0.69,0.69 h 8.44 l 0.21,0.3 v 5.85 h -1.38 c -0.24,-2.09 -2.02,-3.67 -4.12,-3.67 -2.11,0 -3.88,1.58 -4.12,3.67 h -1.39 v -13.64 h 5.54 z m 3.61,5.13 h -6.79 v -3.74 h 4.15 z"
       class="st6"
       inkscape:connector-curvature="0" />
  </g>
</svg>
