<?xml version="1.0" encoding="UTF-8" standalone="no"?>
<svg
   xmlns:dc="http://purl.org/dc/elements/1.1/"
   xmlns:cc="http://creativecommons.org/ns#"
   xmlns:rdf="http://www.w3.org/1999/02/22-rdf-syntax-ns#"
   xmlns:svg="http://www.w3.org/2000/svg"
   xmlns="http://www.w3.org/2000/svg"
   id="SVGRoot"
   version="1.1"
   viewBox="0 0 64 64"
   height="64px"
   width="64px">
  <defs
     id="defs5305" />
  <metadata
     id="metadata5308">
    <rdf:RDF>
      <cc:Work
         rdf:about="">
        <dc:format>image/svg+xml</dc:format>
        <dc:type
           rdf:resource="http://purl.org/dc/dcmitype/StillImage" />
        <dc:title></dc:title>
      </cc:Work>
    </rdf:RDF>
  </metadata>
  <g
     id="layer1">
    <g
       transform="translate(-5.2500002,2.5)"
       id="g6277">
      <rect
         x="44.57933"
         y="45.019993"
         class="st6"
         width="1.83"
         height="0.91000003"
         id="rect4822" />
      <rect
         x="42.749344"
         y="45.019993"
         class="st6"
         width="0.92000002"
         height="0.91000003"
         id="rect4824" />
      <path
         class="st6"
         d="m 50.52934,46.85 h -2.29 V 36.33 c 0,-0.5 -0.41,-0.92 -0.91,-0.92 h -11.9 c -0.51,0 -0.92,0.41 -0.92,0.92 v 10.52 h -1.83 V 26.72 c 0,-0.5 -0.41,-0.91 -0.92,-0.91 h -2.83 c -0.19,-0.55 -0.71,-0.91 -1.29,-0.92 h -2.74 c -0.76,0 -1.37,0.61 -1.37,1.37 0,0.76 0.61,1.37 1.37,1.37 h 2.74 c 0.58,0 1.1,-0.37 1.29,-0.92 h 1 v 21.05 c 0,0.12 0.05,0.24 0.13,0.32 l 1.37,1.37 c 0.08,0.09 0.2,0.13 0.32,0.13 h 2.08 c -0.16,0.28 -0.25,0.59 -0.25,0.92 0,1.01 0.82,1.83 1.83,1.83 1.01,0 1.83,-0.82 1.83,-1.83 0,-0.32 -0.09,-0.64 -0.25,-0.92 h 8.74 c -0.16,0.28 -0.25,0.59 -0.25,0.92 0,1.01 0.82,1.83 1.83,1.83 1.01,0 1.83,-0.82 1.83,-1.83 0,-0.32 -0.09,-0.64 -0.26,-0.92 h 1.63 c 0.25,0 0.46,-0.2 0.46,-0.46 v -1.83 c 0.02,-0.23 -0.19,-0.44 -0.44,-0.44 m -22.88,-20.13 h -2.74 c -0.25,0 -0.46,-0.2 -0.46,-0.46 0,-0.25 0.2,-0.46 0.46,-0.46 h 2.74 c 0.25,0 0.46,0.21 0.46,0.46 0,0.25 -0.2,0.46 -0.46,0.46 m 16.02,11.44 h 3.66 v 0.92 h -3.66 z m 3.66,-0.92 h -3.66 v -0.92 h 3.66 z m -4.58,3.66 h -2.75 v -4.58 h 2.75 z m -3.66,-1.83 h -3.66 v -0.92 h 3.66 z m 0,-1.83 h -3.66 v -0.92 h 3.66 z m -3.66,2.75 h 3.66 v 0.92 c 0,0.51 0.41,0.91 0.92,0.91 h 2.75 c 0.51,0 0.92,-0.41 0.92,-0.91 v -0.92 h 3.66 v 6.86 h -11.9 v -6.86 z m 0.92,10.52 c 0,0.51 -0.41,0.92 -0.91,0.92 -0.5,0 -0.92,-0.41 -0.92,-0.92 0,-0.51 0.41,-0.92 0.92,-0.92 0.51,0 0.91,0.42 0.91,0.92 m 11.89,0 c 0,0.51 -0.41,0.92 -0.91,0.92 -0.51,0 -0.92,-0.41 -0.92,-0.92 0,-0.51 0.41,-0.92 0.92,-0.92 0.5,0.01 0.91,0.42 0.91,0.92 m 1.83,-1.83 h -18.11 l -1.11,-1.11 V 26.71 h 0.92 V 47.3 c 0,0.25 0.2,0.46 0.46,0.46 h 17.85 v 0.92 z"
         id="path4826" />
      <path
         class="st6"
         d="m 41.37934,33.23 -7.44,-10.75 c -2.78,-3.71 -2.38,-9.83 0.88,-13.09 1.75,-1.75 4.09,-2.72 6.57,-2.72 2.48,0 4.81,0.97 6.57,2.72 3.25,3.25 3.65,9.38 0.86,13.11 z m 0,-25.28 c -2.14,0 -4.15,0.83 -5.67,2.35 -2.84,2.84 -3.19,8.18 -0.74,11.44 l 6.41,9.26 6.4,-9.24 c 2.45,-3.26 2.1,-8.62 -0.73,-11.46 -1.51,-1.52 -3.53,-2.35 -5.67,-2.35"
         id="path4856" />
      <path
         class="st6"
         d="m 41.37934,25.42 -3.96,-5.72 c -1.49,-1.98 -1.28,-5.16 0.47,-6.91 0.93,-0.93 2.17,-1.45 3.49,-1.45 1.32,0 2.56,0.51 3.49,1.45 1.75,1.75 1.96,4.92 0.46,6.93 z m 0,-12.81 c -0.98,0 -1.9,0.38 -2.59,1.07 -1.28,1.28 -1.45,3.79 -0.34,5.27 l 2.93,4.23 2.92,-4.22 c 1.11,-1.48 0.95,-3.99 -0.33,-5.28 -0.69,-0.69 -1.61,-1.07 -2.59,-1.07"
         id="path4858" />
    </g>
  </g>
</svg>
