<?xml version="1.0" encoding="UTF-8" standalone="no"?>
<svg
   xmlns:dc="http://purl.org/dc/elements/1.1/"
   xmlns:cc="http://creativecommons.org/ns#"
   xmlns:rdf="http://www.w3.org/1999/02/22-rdf-syntax-ns#"
   xmlns:svg="http://www.w3.org/2000/svg"
   xmlns="http://www.w3.org/2000/svg"
   id="SVGRoot"
   version="1.1"
   viewBox="0 0 64 64"
   height="64px"
   width="64px">
  <defs
     id="defs5305" />
  <metadata
     id="metadata5308">
    <rdf:RDF>
      <cc:Work
         rdf:about="">
        <dc:format>image/svg+xml</dc:format>
        <dc:type
           rdf:resource="http://purl.org/dc/dcmitype/StillImage" />
        <dc:title></dc:title>
      </cc:Work>
    </rdf:RDF>
  </metadata>
  <g
     id="layer1">
    <g
       id="g6197"
       transform="translate(-210.07,-382.875)">
      <path
         class="st6"
         d="m 249.17,426.82 -0.5,-0.71 -1.37,-1.92 -3.49,-5 c -0.12,-0.17 -0.32,-0.27 -0.52,-0.28 h -5.41 v -3.58 c 0,-0.35 -0.29,-0.64 -0.64,-0.64 h -7.63 l -0.89,1.28 h 7.88 v 1.63 h -4.61 c -0.35,0 -0.64,0.29 -0.64,0.64 0,0.35 0.29,0.64 0.64,0.64 h 4.61 v 13.91 h -9.86 c -0.22,-1.93 -1.86,-3.39 -3.81,-3.39 -1.95,0 -3.58,1.46 -3.81,3.39 h -3.4 v -4.09 h 17.34 c 0.35,0 0.64,-0.29 0.64,-0.64 0,-0.35 -0.29,-0.64 -0.64,-0.64 h -17.34 v -11.45 h 3.83 l -0.9,-1.28 h -3.58 c -0.35,0 -0.64,0.29 -0.64,0.64 v 18.09 c 0,0.35 0.29,0.64 0.64,0.64 h 4.04 c 0.22,1.93 1.86,3.39 3.81,3.39 1.95,0 3.58,-1.46 3.81,-3.39 h 12.39 c 0.22,1.93 1.86,3.39 3.81,3.39 1.94,0 3.58,-1.46 3.81,-3.39 h 1.92 c 0.17,0 0.34,-0.07 0.45,-0.2 0.12,-0.12 0.18,-0.29 0.18,-0.46 v -6.22 c 0,-0.12 -0.04,-0.25 -0.12,-0.36 m -26.23,9.16 v 0.03 c -1.42,-0.02 -2.56,-1.17 -2.56,-2.59 0,-1.41 1.14,-2.56 2.56,-2.56 1.41,0 2.55,1.14 2.55,2.56 0,1.42 -1.14,2.56 -2.55,2.56 m 21.56,-13.58 2.43,3.45 h -6.27 v -3.45 z m -1.56,13.58 v 0.03 c -1.42,-0.02 -2.56,-1.17 -2.56,-2.59 0,-1.41 1.14,-2.56 2.56,-2.56 1.41,0 2.55,1.14 2.55,2.56 0.01,1.42 -1.14,2.56 -2.55,2.56 m 5.08,-3.19 h -1.28 c -0.22,-1.93 -1.86,-3.39 -3.81,-3.39 -1.95,0 -3.58,1.46 -3.81,3.39 h -1.28 V 420.2 h 5.11 l 0.65,0.91 h -3.58 c -0.35,0 -0.64,0.29 -0.64,0.64 v 4.73 c 0,0.35 0.29,0.64 0.64,0.64 h 7.79 l 0.19,0.27 v 5.4 z"
         id="path4850" />
      <path
         class="st6"
         d="m 224.11,418.83 -7.44,-10.75 c -2.78,-3.71 -2.38,-9.83 0.88,-13.09 1.75,-1.76 4.09,-2.72 6.57,-2.72 2.48,0 4.81,0.96 6.57,2.72 3.25,3.25 3.65,9.38 0.86,13.11 z m 0,-25.28 c -2.14,0 -4.15,0.83 -5.67,2.35 -2.84,2.84 -3.19,8.18 -0.74,11.44 l 6.41,9.26 6.4,-9.24 c 2.45,-3.26 2.1,-8.62 -0.73,-11.46 -1.52,-1.52 -3.53,-2.35 -5.67,-2.35"
         id="path4852" />
      <path
         class="st6"
         d="m 224.1,411.02 -3.96,-5.72 c -1.49,-1.98 -1.28,-5.16 0.47,-6.91 0.93,-0.93 2.17,-1.45 3.49,-1.45 1.32,0 2.56,0.51 3.49,1.45 1.75,1.75 1.96,4.92 0.46,6.93 z m 0,-12.81 c -0.98,0 -1.9,0.38 -2.59,1.07 -1.28,1.28 -1.45,3.79 -0.34,5.27 l 2.93,4.23 2.92,-4.22 c 1.11,-1.48 0.95,-3.99 -0.33,-5.27 -0.69,-0.7 -1.61,-1.08 -2.59,-1.08"
         id="path4854" />
      <path
         class="st6"
         d="m 269.6,426.83 -0.5,-0.71 -1.37,-1.92 -3.49,-5 c -0.12,-0.17 -0.32,-0.27 -0.53,-0.27 h -5.41 v -3.58 c 0,-0.35 -0.29,-0.64 -0.64,-0.64 h -15.34 c -0.35,0 -0.64,0.29 -0.64,0.64 0,0.35 0.29,0.64 0.64,0.64 h 14.7 v 1.63 h -4.61 c -0.35,0 -0.64,0.29 -0.64,0.64 0,0.35 0.29,0.64 0.64,0.64 h 4.61 v 13.91 h -3.78 c -0.35,0 -0.64,0.29 -0.64,0.64 0,0.35 0.29,0.64 0.64,0.64 h 6.3 c 0.22,1.93 1.86,3.39 3.81,3.39 1.95,0 3.58,-1.46 3.81,-3.39 h 1.92 c 0.17,0 0.34,-0.07 0.45,-0.2 0.12,-0.12 0.18,-0.29 0.18,-0.46 v -6.22 c 0,-0.14 -0.04,-0.27 -0.11,-0.38 m -4.67,-4.42 2.43,3.45 h -6.27 v -3.45 z m -1.56,13.58 v 0.03 c -1.56,-0.02 -2.79,-1.42 -2.52,-3.04 0.17,-1.03 1.01,-1.87 2.03,-2.06 1.62,-0.3 3.04,0.94 3.04,2.51 0,1.42 -1.14,2.56 -2.55,2.56 m -5.1,-15.78 h 5.11 l 0.65,0.91 h -3.58 c -0.35,0 -0.64,0.29 -0.64,0.64 v 4.73 c 0,0.35 0.29,0.64 0.64,0.64 h 7.79 l 0.19,0.28 v 5.4 h -1.28 c -0.22,-1.93 -1.86,-3.39 -3.81,-3.39 -1.95,0 -3.58,1.46 -3.81,3.39 h -1.28"
         id="path4860" />
    </g>
  </g>
</svg>
