<?xml version="1.0" encoding="UTF-8" standalone="no"?>
<svg
   xmlns:dc="http://purl.org/dc/elements/1.1/"
   xmlns:cc="http://creativecommons.org/ns#"
   xmlns:rdf="http://www.w3.org/1999/02/22-rdf-syntax-ns#"
   xmlns:svg="http://www.w3.org/2000/svg"
   xmlns="http://www.w3.org/2000/svg"
   id="SVGRoot"
   version="1.1"
   viewBox="0 0 64 64"
   height="64px"
   width="64px">
  <defs
     id="defs5305" />
  <metadata
     id="metadata5308">
    <rdf:RDF>
      <cc:Work
         rdf:about="">
        <dc:format>image/svg+xml</dc:format>
        <dc:type
           rdf:resource="http://purl.org/dc/dcmitype/StillImage" />
        <dc:title></dc:title>
      </cc:Work>
    </rdf:RDF>
  </metadata>
  <g
     id="layer1">
    <g
       transform="translate(28.5,25.625)"
       id="g6172">
      <path
         class="st6"
         d="m -4.7371654,10.365 -7.4399996,-10.75 c -2.78,-3.71 -2.38,-9.83 0.88,-13.09 1.7499996,-1.76 4.0899996,-2.72 6.5699996,-2.72 2.4799999,0 4.80999992,0.97 6.5699999,2.72 3.25,3.25 3.65,9.38 0.86,13.11 z m 0,-25.28 c -2.14,0 -4.15,0.83 -5.6699996,2.35 -2.84,2.84 -3.19,8.19 -0.74,11.44 l 6.4099996,9.26 6.3999999,-9.24 c 2.45,-3.27 2.11,-8.62 -0.72999998,-11.46 -1.52,-1.52 -3.53000002,-2.35 -5.66999992,-2.35"
         id="path4790" />
      <path
         class="st6"
         d="m -4.7371654,2.555 -3.96,-5.72 c -1.4899996,-1.99 -1.28,-5.16 0.47,-6.91 0.93,-0.93 2.17,-1.45 3.49,-1.45 1.3199999,0 2.5599999,0.51 3.4899999,1.45 1.75000002,1.75 1.96000002,4.92 0.46000002,6.93 z m 0,-12.81 c -0.98,0 -1.9,0.38 -2.59,1.07 -1.28,1.28 -1.45,3.79 -0.34,5.27 l 2.93,4.23 2.9199999,-4.22 c 1.11000002,-1.48 0.95000002,-3.99 -0.33,-5.27 -0.7,-0.7 -1.61,-1.08 -2.5899999,-1.08"
         id="path4792" />
      <path
         class="st6"
         d="m -7.4471654,17.555 c -3.1499996,0 -5.6999996,2.55 -5.6999996,5.69 0,3.15 2.55,5.7 5.6999996,5.7 3.14,0 5.6899999,-2.55 5.6899999,-5.7 0.01,-3.14 -2.5399999,-5.69 -5.6899999,-5.69 m 0,10.25 c -2.52,0 -4.5599996,-2.04 -4.5599996,-4.56 0,-2.51 2.0399996,-4.55 4.5599996,-4.55 2.52,0 4.5599999,2.04 4.5599999,4.55 0,2.52 -2.0399999,4.56 -4.5599999,4.56"
         id="path4810" />
      <path
         class="st6"
         d="m -7.4471654,20.975 c -1.26,0 -2.28,1.02 -2.28,2.28 0,1.26 1.02,2.28 2.28,2.28 1.26,0 2.28,-1.02 2.28,-2.28 0,-1.26 -1.02,-2.28 -2.28,-2.28 m 0,3.41 c -0.63,0 -1.14,-0.51 -1.14,-1.14 0,-0.63 0.51,-1.14 1.14,-1.14 0.63,0 1.14,0.51 1.14,1.14 0,0.63 -0.51,1.14 -1.14,1.14"
         id="path4812" />
      <path
         class="st6"
         d="m 15.332835,17.555 c -0.67,0 -1.33,0.12 -1.96,0.35 l -0.49,-1.03 c 0.71,-0.27 1.47,-0.43 2.23,-0.46 0.05,0 0.11,-0.01 0.16,-0.01 1.13,-0.01 2.25,0.26 3.25,0.79 0.28,0.14 0.62,0.04 0.76,-0.24 0.15,-0.28 0.04,-0.62 -0.24,-0.77 -1.14,-0.6 -2.4,-0.91 -3.69,-0.91 -0.01,0 -0.02,-0.01 -0.03,-0.01 h -0.06 c -0.1,0 -0.2,0.01 -0.3,0.02 -0.89,0.04 -1.76,0.23 -2.58,0.55 l -0.93,-1.94 c 0.52,0.16 1.06,0.23 1.6,0.23 0.32,0 0.57,-0.26 0.57,-0.57 v -4.56 c 0,-0.31 -0.26,-0.57 -0.57,-0.57 -1.33,-0.07 -2.63,0.48 -3.5100005,1.48 l -1.1,-2.3 c -0.09,-0.2 -0.29,-0.32 -0.51,-0.32 h -3.42 c -0.32,0 -0.57,0.26 -0.57,0.57 0,0.31 0.26,0.57 0.57,0.57 h 3.06 l 0.82,1.71 h -4.65 c -1.52,0 -2.89999998,0.92 -3.48999998,2.32 -0.1,-0.03 -0.19,-0.04 -0.29,-0.04 H -9.1471654 c -1.2599996,0 -2.2799996,1.02 -2.2799996,2.28 0,0.6 0.47,1.09 1.06,1.13 -0.71,0.28 -1.38,0.66 -1.98,1.13 -0.25,0.19 -0.29,0.55 -0.1,0.8 0.19,0.25 0.55,0.29 0.8,0.1 2.0599996,-1.61 4.8499996,-1.9 7.1999996,-0.76 2.3499999,1.15 3.83999992,3.53 3.83999992,6.14 v 0.75 c -0.07,0.43 0.05,0.88 0.32,1.22 0.22,0.21 0.52,0.32 0.82,0.3 H 6.7928345 c 0.46,0.01 0.9,-0.17 1.22,-0.49 0.32,-0.32 0.5,-0.76 0.49,-1.22 v -0.57 c 0,-1.13 0.28,-2.24 0.81,-3.23 0.04,-0.07 0.08,-0.14 0.12,-0.2 0.5,-0.86 1.1800005,-1.6 2.0000005,-2.17 0.03,-0.02 0.06,-0.04 0.08,-0.06 0.07,-0.05 0.14,-0.08 0.21,-0.13 0.04,-0.03 0.09,-0.05 0.13,-0.08 l 0.5,1.03 c -2.4100005,1.49 -3.3500005,4.54 -2.21,7.13 1.15,2.59 4.03,3.94 6.76,3.17 2.73,-0.78 4.46,-3.45 4.07,-6.26 -0.39,-2.79 -2.8,-4.88 -5.64,-4.87 m -5.12,-6.26 c 0,-0.81 1,-1.51 2.28,-1.67 v 3.35 c -0.69,-0.07 -1.35,-0.35 -1.87,-0.81 l -0.41,-0.85 c 0,-0.01 0,-0.02 0,-0.02 m -6.4700005,0 h 4.97 l 1.7100005,3.42 H 1.8628345 c -0.43,0 -0.77,-0.34 -0.77,-0.77 0.01,-1.47 1.19,-2.65 2.65,-2.65 m -12.8899999,2.27 h 9.10999992 v 1.14 H -10.287165 c 0,-0.63 0.5099996,-1.14 1.1399996,-1.14 m 16.5099999,10.25 c 0.01,0.15 -0.05,0.3 -0.16,0.41 -0.11,0.11 -0.26,0.17 -0.41,0.16 H 0.53283452 c -0.01,-0.1 -0.01,-0.25 -0.01,-0.38 v -0.76 c 0.01,-3.26 -1.99000002,-6.2 -5.01999992,-7.4 h 4.44999992 c 0.31,0 0.6,-0.13 0.82,-0.35 0.31999998,0.22 0.69999998,0.35 1.08999998,0.35 h 9.2600005 l 0.24,0.5 c -0.05,0.03 -0.1,0.06 -0.15,0.09 -0.11,0.07 -0.23,0.13 -0.34,0.21 l -0.01,0.01 c -0.17,0.11 -0.34,0.24 -0.5,0.37 -0.05,-0.02 -0.11,-0.03 -0.16,-0.03 H 2.8028345 c -0.46,0 -0.9,0.19 -1.22,0.52 -0.32,0.33 -0.5,0.77 -0.49,1.23 v 0.48 c -0.01,0.46 0.17,0.91 0.49,1.23 0.32,0.33 0.76,0.52 1.22,0.52 h 4.89 c -0.11,0.37 -0.19,0.75 -0.24,1.14 h -3.51 c -0.31,0 -0.57,0.26 -0.57,0.57 0,0.32 0.25,0.57 0.57,0.57 h 3.42 z m 0.95,-4.33 c -0.01,0.02 -0.02,0.03 -0.03,0.05 -0.01,0.01 -0.01,0.02 -0.01,0.03 -0.05,0.09 -0.09,0.18 -0.13,0.27 h -5.34 c -0.16,0 -0.31,-0.07 -0.41,-0.18 -0.11,-0.12 -0.16,-0.27 -0.15,-0.43 v -0.48 c -0.01,-0.16 0.05,-0.31 0.15,-0.43 0.11,-0.12 0.26,-0.18 0.41,-0.18 h 6.43 c -0.29,0.35 -0.55,0.72 -0.77,1.11 -0.05,0.08 -0.1,0.15 -0.15,0.24 m 7.0200005,8.32 c -2.02,0 -3.8,-1.32 -4.37,-3.26 -0.57,-1.93 0.19,-4.02 1.89,-5.11 l 1.01,2.1 c -0.83,0.74 -0.99,1.98 -0.36,2.9 0.63,0.92 1.84,1.24 2.83,0.73 0.99,-0.5 1.46,-1.66 1.1,-2.71 -0.37,-1.05 -1.46,-1.67 -2.55,-1.44 l -1,-2.08 c 1.71,-0.58 3.6,-0.1 4.82,1.24 1.22,1.33 1.54,3.26 0.81,4.91 -0.73,1.66 -2.37,2.72 -4.18,2.72 m 0,-5.69 c 0.63,0 1.14,0.51 1.14,1.14 0,0.63 -0.51,1.14 -1.14,1.14 -0.63,0 -1.14,-0.51 -1.14,-1.14 0,-0.25 0.08,-0.49 0.24,-0.68 0.1,0.07 0.21,0.11 0.34,0.11 0.15,0 0.29,-0.06 0.4,-0.17 0.1,-0.11 0.16,-0.25 0.16,-0.4 z"
         id="path4814" />
    </g>
  </g>
</svg>
