<?xml version="1.0" encoding="UTF-8" standalone="no"?>
<!-- Created with Inkscape (http://www.inkscape.org/) -->

<svg
   xmlns:dc="http://purl.org/dc/elements/1.1/"
   xmlns:cc="http://creativecommons.org/ns#"
   xmlns:rdf="http://www.w3.org/1999/02/22-rdf-syntax-ns#"
   xmlns:svg="http://www.w3.org/2000/svg"
   xmlns="http://www.w3.org/2000/svg"
   xmlns:sodipodi="http://sodipodi.sourceforge.net/DTD/sodipodi-0.dtd"
   xmlns:inkscape="http://www.inkscape.org/namespaces/inkscape"
   width="64px"
   height="64px"
   viewBox="0 0 64 64"
   version="1.1"
   id="SVGRoot"
   sodipodi:docname="follow_car.svg"
   inkscape:version="0.92.3 (2405546, 2018-03-11)">
  <sodipodi:namedview
     id="base"
     pagecolor="#ffffff"
     bordercolor="#666666"
     borderopacity="1.0"
     inkscape:pageopacity="0.0"
     inkscape:pageshadow="2"
     inkscape:zoom="8"
     inkscape:cx="32"
     inkscape:cy="32"
     inkscape:document-units="px"
     inkscape:current-layer="layer1"
     showgrid="false"
     inkscape:window-width="1366"
     inkscape:window-height="713"
     inkscape:window-x="0"
     inkscape:window-y="27"
     inkscape:window-maximized="1" />
  <defs
     id="defs5305" />
  <metadata
     id="metadata5308">
    <rdf:RDF>
      <cc:Work
         rdf:about="">
        <dc:format>image/svg+xml</dc:format>
        <dc:type
           rdf:resource="http://purl.org/dc/dcmitype/StillImage" />
      </cc:Work>
    </rdf:RDF>
  </metadata>
  <g
     id="layer1"
     inkscape:groupmode="layer"
     inkscape:label="Layer 1">
    <path
       inkscape:connector-curvature="0"
       class="st8"
       d="m 30.96,34.611599 -7.45,-10.75 c -2.78,-3.71 -2.38,-9.83 0.88,-13.09 1.75,-1.7600004 4.09,-2.7200004 6.57,-2.7200004 2.48,0 4.81,0.97 6.57,2.7200004 3.25,3.25 3.65,9.38 0.86,13.11 z m 0,-25.2800004 c -2.14,0 -4.15,0.8300004 -5.67,2.3500004 -2.84,2.84 -3.19,8.18 -0.74,11.44 l 6.41,9.26 6.4,-9.24 c 2.45,-3.27 2.11,-8.62 -0.73,-11.46 -1.52,-1.52 -3.53,-2.3500004 -5.67,-2.3500004"
       id="path5180" />
    <path
       inkscape:connector-curvature="0"
       class="st8"
       d="m 30.96,26.801599 -3.96,-5.72 c -1.49,-1.98 -1.28,-5.16 0.47,-6.91 0.93,-0.93 2.17,-1.45 3.49,-1.45 1.32,0 2.56,0.51 3.49,1.45 1.75,1.75 1.96,4.92 0.46,6.93 z m 0,-12.81 c -0.98,0 -1.9,0.38 -2.59,1.07 -1.28,1.28 -1.45,3.79 -0.34,5.27 l 2.93,4.23 2.92,-4.22 c 1.11,-1.48 0.95,-3.99 -0.34,-5.28 -0.68,-0.69 -1.6,-1.07 -2.58,-1.07"
       id="path5182" />
    <rect
       x="34.029999"
       y="43.211628"
       class="st8"
       width="2.6600001"
       height="1.33"
       id="rect5200" />
    <path
       inkscape:connector-curvature="0"
       class="st8"
       d="m 13.42,41.891599 v 5.39 c 0,1.03 0.63,1.96 1.59,2.34 l 2.15,0.86 c 0.08,0.03 0.16,0.05 0.25,0.05 h 0.24 c 0.4,1.14 1.3,2.04 2.44,2.44 2.07,0.73 4.34,-0.36 5.07,-2.44 h 17.76 c 0.4,1.14 1.3,2.04 2.44,2.44 2.07,0.73 4.34,-0.36 5.07,-2.44 h 2.23 c 0.37,0 0.67,-0.3 0.67,-0.66 v -3.95 c 0,-1.09 -0.58,-2.09 -1.53,-2.63 -2.32,-1.32 -4.93,-2.03 -7.6,-2.06 l -2.28,-1.24 c -3.31,-1.8 -7.02,-2.75 -10.79,-2.75 h -0.78 c -3.19,0 -6.35,0.68 -9.26,1.99 -0.88,0.4 -1.74,0.85 -2.56,1.36 l -4.52,0.65 c -0.35,0.04 -0.59,0.32 -0.59,0.65 m 30.58,7.31 c 0,-1.26 0.89,-2.35 2.13,-2.61 1.44,-0.29 2.84,0.64 3.14,2.07 0.29,1.44 -0.63,2.84 -2.07,3.14 -1.44,0.29 -2.84,-0.64 -3.14,-2.07 -0.04,-0.17 -0.06,-0.35 -0.06,-0.53 m -11.96,-6.65 H 44 c 2.5,0 4.95,0.65 7.12,1.89 0.53,0.3 0.85,0.86 0.86,1.47 v 3.28 h -1.33 c 0,-2.2 -1.79,-3.99 -3.99,-3.99 -2.2,0 -3.99,1.79 -3.99,3.99 H 32.04 Z m 0,-3.96 c 3.23,0.14 6.39,1.02 9.23,2.56 l 0.13,0.07 h -9.36 z m -1.33,2.63 h -7.04 l -1.16,-1.16 c 2.49,-0.99 5.14,-1.5 7.82,-1.5 h 0.38 z m -11.97,7.98 c 0,-1.26 0.89,-2.35 2.13,-2.61 1.44,-0.29 2.84,0.64 3.14,2.07 0.29,1.44 -0.63,2.84 -2.07,3.14 -1.44,0.29 -2.85,-0.64 -3.14,-2.07 -0.04,-0.17 -0.06,-0.35 -0.06,-0.53 m -3.99,-6.74 4.08,-0.58 c 0.09,-0.01 0.18,-0.05 0.26,-0.1 0.68,-0.42 1.38,-0.81 2.11,-1.15 l 1.72,1.73 c 0.12,0.13 0.29,0.19 0.47,0.19 h 7.31 v 6.65 h -5.32 c 0,-2.2 -1.79,-3.99 -3.99,-3.99 -0.14,0 -0.27,0.01 -0.41,0.02 -0.05,0 -0.1,0.02 -0.15,0.02 -0.08,0.01 -0.17,0.02 -0.25,0.04 -0.05,0.01 -0.1,0.03 -0.15,0.04 -0.08,0.02 -0.15,0.04 -0.23,0.06 -0.06,0.02 -0.1,0.04 -0.17,0.06 -0.07,0.02 -0.14,0.05 -0.2,0.07 -0.06,0.02 -0.1,0.05 -0.17,0.08 -0.06,0.03 -0.13,0.06 -0.18,0.09 -0.05,0.03 -0.1,0.06 -0.16,0.1 -0.06,0.04 -0.12,0.07 -0.17,0.1 -0.05,0.03 -0.1,0.08 -0.15,0.11 -0.05,0.04 -0.1,0.07 -0.15,0.11 -0.05,0.04 -0.1,0.09 -0.15,0.13 -0.05,0.04 -0.09,0.08 -0.14,0.12 -0.05,0.04 -0.09,0.1 -0.13,0.15 -0.04,0.04 -0.08,0.08 -0.12,0.13 -0.04,0.05 -0.08,0.11 -0.12,0.16 -0.04,0.05 -0.07,0.09 -0.11,0.15 -0.04,0.05 -0.07,0.11 -0.1,0.17 -0.03,0.05 -0.07,0.1 -0.1,0.16 -0.03,0.06 -0.06,0.12 -0.09,0.18 -0.03,0.06 -0.06,0.11 -0.08,0.17 -0.02,0.06 -0.04,0.12 -0.07,0.18 -0.02,0.06 -0.05,0.12 -0.07,0.18 -0.02,0.06 -0.03,0.13 -0.05,0.19 -0.02,0.06 -0.04,0.13 -0.05,0.19 -0.01,0.06 -0.02,0.13 -0.03,0.19 -0.01,0.07 -0.02,0.13 -0.03,0.2 -0.01,0.07 -0.01,0.14 -0.01,0.2 0,0.06 -0.01,0.12 -0.01,0.18 l -1.91,-0.77 c -0.46,-0.18 -0.75,-0.62 -0.75,-1.11 v -2.73 h 1.99 v -1.33 h -1.99 v -0.74 z"
       id="path5202" />
  </g>
</svg>
