<?xml version="1.0" encoding="UTF-8" standalone="no"?>
<svg
   xmlns:dc="http://purl.org/dc/elements/1.1/"
   xmlns:cc="http://creativecommons.org/ns#"
   xmlns:rdf="http://www.w3.org/1999/02/22-rdf-syntax-ns#"
   xmlns:svg="http://www.w3.org/2000/svg"
   xmlns="http://www.w3.org/2000/svg"
   xmlns:sodipodi="http://sodipodi.sourceforge.net/DTD/sodipodi-0.dtd"
   xmlns:inkscape="http://www.inkscape.org/namespaces/inkscape"
   id="SVGRoot"
   version="1.1"
   viewBox="0 0 64 64"
   height="64px"
   width="64px"
   sodipodi:docname="fuel_man.svg"
   inkscape:version="0.92.3 (2405546, 2018-03-11)">
  <sodipodi:namedview
     pagecolor="#ffffff"
     bordercolor="#666666"
     borderopacity="1"
     objecttolerance="10"
     gridtolerance="10"
     guidetolerance="10"
     inkscape:pageopacity="0"
     inkscape:pageshadow="2"
     inkscape:window-width="1366"
     inkscape:window-height="713"
     id="namedview5293"
     showgrid="false"
     inkscape:zoom="3.6875"
     inkscape:cx="32"
     inkscape:cy="32"
     inkscape:window-x="0"
     inkscape:window-y="27"
     inkscape:window-maximized="1"
     inkscape:current-layer="SVGRoot" />
  <defs
     id="defs5305" />
  <metadata
     id="metadata5308">
    <rdf:RDF>
      <cc:Work
         rdf:about="">
        <dc:format>image/svg+xml</dc:format>
        <dc:type
           rdf:resource="http://purl.org/dc/dcmitype/StillImage" />
        <dc:title />
      </cc:Work>
    </rdf:RDF>
  </metadata>
  <g
     id="layer1"
     transform="matrix(1.4858537,0,0,1.4858537,-15.918782,-13.318538)">
    <path
       id="path5040"
       d="m 42.15,24.943934 v -10.61 c 0,-0.27 -0.22,-0.49 -0.49,-0.49 H 27.14 c -0.27,0 -0.49,0.22 -0.49,0.49 v 10.61 c 0,0.27 0.22,0.49 0.49,0.49 h 14.52 c 0.27,0 0.49,-0.22 0.49,-0.49 m -9.42,-0.49 0.03,-0.09 c 0.25,-0.7 0.91,-1.16 1.64,-1.16 0.74,0 1.4,0.47 1.65,1.16 l 0.03,0.09 z m 8.45,0 h -4.09 l -0.01,-0.06 c -0.26,-1.26 -1.38,-2.18 -2.67,-2.18 -0.05,0 -0.1,0.01 -0.14,0.01 -0.03,0.01 -0.06,0.01 -0.09,0.01 h -0.04 l -0.02,-0.03 -2.09,-3.13 c -0.07,-0.11 -0.18,-0.18 -0.31,-0.21 -0.13,-0.02 -0.26,0 -0.37,0.07 -0.11,0.07 -0.18,0.18 -0.21,0.31 -0.03,0.13 0,0.26 0.07,0.37 l 1.94,2.91 -0.07,0.04 c -0.7,0.39 -1.19,1.06 -1.35,1.82 l -0.01,0.06 h -4.09 v -9.63 h 13.54 v 9.64 z"
       class="st6"
       inkscape:connector-curvature="0" />
    <path
       id="path5042"
       d="m 34.4,15.523934 c -0.27,0 -0.49,0.22 -0.49,0.49 v 1.12 c 0,0.27 0.22,0.49 0.49,0.49 0.27,0 0.49,-0.22 0.49,-0.49 v -1.12 c 0,-0.28 -0.22,-0.49 -0.49,-0.49"
       class="st6"
       inkscape:connector-curvature="0" />
    <path
       id="path5044"
       d="m 39.27,16.243934 c -0.12,0 -0.25,0.05 -0.35,0.14 l -0.79,0.79 c -0.19,0.19 -0.19,0.5 0,0.69 0.19,0.18 0.51,0.18 0.69,0 l 0.79,-0.79 c 0.09,-0.09 0.14,-0.22 0.14,-0.35 0,-0.13 -0.05,-0.25 -0.14,-0.34 -0.09,-0.09 -0.22,-0.14 -0.34,-0.14"
       class="st6"
       inkscape:connector-curvature="0" />
    <path
       id="path5046"
       d="m 29.2,17.073934 0.79,0.79 c 0.19,0.18 0.51,0.18 0.69,0 0.19,-0.19 0.19,-0.5 0,-0.69 l -0.79,-0.79 c -0.1,-0.1 -0.22,-0.14 -0.35,-0.14 -0.12,0 -0.25,0.05 -0.34,0.14 -0.09,0.09 -0.14,0.21 -0.14,0.34 -0.01,0.14 0.05,0.26 0.14,0.35"
       class="st6"
       inkscape:connector-curvature="0" />
    <path
       id="path5048"
       d="m 50.53,15.983934 h -0.67 v -3.77 l 0.02,-0.02 0.94,-0.94 c 0.11,-0.11 0.18,-0.28 0.15,-0.44 -0.07,-0.43 -0.57,-0.52 -0.83,-0.27 l -1.12,1.12 c -0.09,0.09 -0.14,0.22 -0.14,0.35 v 3.98 H 48.3 c -0.27,0 -0.49,0.22 -0.49,0.49 v 6.7 c 0,0.27 0.22,0.49 0.49,0.49 h 0.63 v 2.54 c 0,0.43 -0.29,0.84 -0.72,0.92 -0.58,0.12 -1.1,-0.33 -1.1,-0.89 v -7.03 c 0,-0.65 -0.27,-1.29 -0.78,-1.7 -0.57,-0.46 -1.22,-0.53 -1.86,-0.25 l -0.1,0.04 v -3.9 c 0,-1.61 -1.3,-2.91 -2.91,-2.91 H 27.31 c -1.61,0 -2.91,1.3 -2.91,2.91 v 19.86 c 0,0.27 0.22,0.49 0.49,0.49 0.27,0 0.49,-0.22 0.49,-0.49 v -19.86 c 0,-1.07 0.86,-1.93 1.93,-1.93 h 14.15 c 1.06,0 1.93,0.86 1.93,1.93 v 26.13 H 32.48 c -0.27,0 -0.49,0.22 -0.49,0.49 0,0.27 0.22,0.49 0.49,0.49 h 12.59 v 1.26 h -6.66 c -0.27,0 -0.49,0.22 -0.49,0.49 0,0.27 0.22,0.49 0.49,0.49 h 7.16 c 0.27,0 0.49,-0.22 0.49,-0.49 v -2.23 c 0,-0.27 -0.22,-0.49 -0.49,-0.49 h -1.19 v -20.85 c 0.17,-0.46 0.65,-0.71 1.14,-0.55 0.37,0.12 0.61,0.49 0.61,0.89 v 7.17 c 0,0.94 0.67,1.79 1.6,1.92 1.16,0.17 2.17,-0.73 2.17,-1.86 v -2.58 h 0.63 c 0.27,0 0.49,-0.22 0.49,-0.49 v -6.7 c 0,-0.29 -0.22,-0.51 -0.49,-0.51 m -0.49,6.7 h -1.26 v -5.72 h 1.26 z"
       class="st6"
       inkscape:connector-curvature="0" />
    <path
       id="path5050"
       d="m 32.18,44.843934 c -0.92,0 -1.67,0.75 -1.67,1.67 0,0.92 0.75,1.67 1.67,1.67 0.92,0 1.67,-0.75 1.67,-1.67 -0.01,-0.92 -0.76,-1.67 -1.67,-1.67 m 0,2.42 c -0.42,0 -0.76,-0.34 -0.76,-0.76 0,-0.42 0.34,-0.76 0.76,-0.76 0.42,0 0.76,0.34 0.76,0.76 -0.01,0.42 -0.35,0.76 -0.76,0.76"
       class="st6"
       inkscape:connector-curvature="0" />
    <path
       id="path5052"
       d="m 17.64,30.303934 c -0.92,0 -1.67,0.75 -1.67,1.67 0,0.92 0.75,1.67 1.67,1.67 0.92,0 1.67,-0.75 1.67,-1.67 -0.01,-0.92 -0.76,-1.67 -1.67,-1.67 m 0,2.42 c -0.42,0 -0.76,-0.34 -0.76,-0.76 0,-0.42 0.34,-0.76 0.76,-0.76 0.42,0 0.76,0.34 0.76,0.76 -0.01,0.42 -0.35,0.76 -0.76,0.76"
       class="st6"
       inkscape:connector-curvature="0" />
    <path
       id="path5054"
       d="m 32.18,42.423934 c -0.51,0 -1,0.09 -1.46,0.27 l -3.45,-3.45 3.45,-3.45 c 0.47,0.18 0.96,0.27 1.46,0.27 1.09,0 2.12,-0.43 2.89,-1.2 0.77,-0.77 1.2,-1.8 1.2,-2.89 0,-0.62 -0.14,-1.21 -0.4,-1.76 -0.06,-0.13 -0.19,-0.23 -0.33,-0.25 -0.15,-0.03 -0.29,0.02 -0.4,0.13 l -2.1,2.1 -1.07,-1.07 2.1,-2.1 c 0.1,-0.1 0.15,-0.25 0.13,-0.4 -0.02,-0.15 -0.12,-0.27 -0.25,-0.33 -0.55,-0.26 -1.15,-0.4 -1.76,-0.4 -2.26,0 -4.09,1.83 -4.09,4.09 0,0.51 0.09,1 0.27,1.46 l -3.45,3.45 -3.45,-3.45 c 0.18,-0.47 0.27,-0.96 0.27,-1.46 0,-2.26 -1.83,-4.09 -4.09,-4.09 -2.26,0 -4.09,1.83 -4.09,4.09 0,2.26 1.84,4.09 4.09,4.09 0.51,0 1,-0.09 1.46,-0.27 l 3.45,3.45 -3.45,3.45 c -0.49,-0.2 -1,-0.3 -1.54,-0.3 -2.26,0 -4.09,1.83 -4.09,4.09 0,0.62 0.13,1.21 0.4,1.76 0.07,0.13 0.19,0.23 0.33,0.25 0.15,0.02 0.29,-0.02 0.4,-0.13 l 2.1,-2.1 1.07,1.07 -2.1,2.1 c -0.1,0.1 -0.15,0.25 -0.13,0.4 0.03,0.15 0.12,0.27 0.25,0.33 0.55,0.26 1.15,0.4 1.76,0.4 2.26,0 4.09,-1.84 4.09,-4.09 0,-0.48 -0.08,-0.94 -0.24,-1.39 l 3.5,-3.5 3.45,3.45 c -0.18,0.47 -0.27,0.96 -0.27,1.46 0,2.26 1.84,4.09 4.09,4.09 2.25,0 4.09,-1.83 4.09,-4.09 0,-2.25 -1.84,-4.08 -4.09,-4.08 m -12.66,-7.5 c -0.14,-0.14 -0.34,-0.17 -0.52,-0.09 -0.43,0.21 -0.89,0.31 -1.37,0.31 -1.75,0 -3.18,-1.43 -3.18,-3.18 0,-1.75 1.43,-3.18 3.18,-3.18 1.75,0 3.18,1.43 3.18,3.18 0,0.48 -0.1,0.94 -0.31,1.37 -0.08,0.17 -0.05,0.38 0.09,0.52 l 3.67,3.67 -1.07,1.07 z m 1.03,9.74 c -0.13,0.13 -0.17,0.34 -0.09,0.51 0.19,0.41 0.28,0.85 0.28,1.31 0,1.75 -1.43,3.18 -3.18,3.18 -0.25,0 -0.5,-0.03 -0.74,-0.09 l 1.92,-1.92 c 0.18,-0.18 0.18,-0.47 0,-0.64 l -1.71,-1.71 c -0.18,-0.18 -0.47,-0.18 -0.64,0 l -1.92,1.92 c -0.06,-0.24 -0.09,-0.49 -0.09,-0.74 0,-1.75 1.43,-3.18 3.18,-3.18 0.5,0 0.98,0.11 1.43,0.34 0.18,0.09 0.39,0.05 0.53,-0.09 l 9.7,-9.7 c 0.14,-0.14 0.17,-0.34 0.09,-0.52 -0.21,-0.43 -0.31,-0.89 -0.31,-1.37 0,-1.75 1.43,-3.18 3.18,-3.18 0.25,0 0.5,0.03 0.74,0.09 l -1.92,1.92 c -0.18,0.18 -0.18,0.46 0,0.64 l 1.71,1.71 c 0.18,0.18 0.47,0.18 0.64,0 l 1.92,-1.92 c 0.06,0.24 0.09,0.49 0.09,0.74 0,0.85 -0.33,1.65 -0.93,2.25 -0.6,0.6 -1.4,0.93 -2.25,0.93 -0.48,0 -0.94,-0.1 -1.37,-0.31 -0.17,-0.08 -0.38,-0.05 -0.52,0.09 z m 11.63,5.03 c -1.75,0 -3.18,-1.43 -3.18,-3.18 0,-0.48 0.1,-0.94 0.31,-1.37 0.08,-0.17 0.05,-0.38 -0.09,-0.52 l -3.67,-3.67 1.07,-1.07 3.67,3.67 c 0.14,0.14 0.34,0.17 0.52,0.09 0.43,-0.21 0.89,-0.31 1.37,-0.31 1.75,0 3.18,1.43 3.18,3.18 0,1.75 -1.43,3.18 -3.18,3.18"
       class="st6"
       inkscape:connector-curvature="0" />
  </g>
</svg>
