<?xml version="1.0" encoding="UTF-8" standalone="no"?>
<svg
   xmlns:dc="http://purl.org/dc/elements/1.1/"
   xmlns:cc="http://creativecommons.org/ns#"
   xmlns:rdf="http://www.w3.org/1999/02/22-rdf-syntax-ns#"
   xmlns:svg="http://www.w3.org/2000/svg"
   xmlns="http://www.w3.org/2000/svg"
   id="SVGRoot"
   version="1.1"
   viewBox="0 0 64 64"
   height="64px"
   width="64px">
  <defs
     id="defs5305" />
  <metadata
     id="metadata5308">
    <rdf:RDF>
      <cc:Work
         rdf:about="">
        <dc:format>image/svg+xml</dc:format>
        <dc:type
           rdf:resource="http://purl.org/dc/dcmitype/StillImage" />
        <dc:title></dc:title>
      </cc:Work>
    </rdf:RDF>
  </metadata>
  <g
     id="layer1">
    <g
       transform="translate(-4.3750001,-5.5)"
       id="g5901">
      <path
         class="st6"
         d="m 29.104994,33.91 c 0.29,0 0.52,-0.23 0.52,-0.52 v -0.01 c 0,-0.29 -0.23,-0.52 -0.52,-0.52 -0.29,0 -0.52,0.23 -0.52,0.52 v 0.01 c 0,0.28 0.23,0.52 0.52,0.52"
         id="path4904" />
      <path
         class="st6"
         d="m 42.204994,30.27 c -0.35,0 -0.67,0.09 -0.96,0.25 V 26.7 c 0,-1.08 -0.88,-1.96 -1.96,-1.96 -0.35,0 -0.67,0.09 -0.96,0.25 v -1.41 c 0,-1.08 -0.88,-1.96 -1.96,-1.96 -1.08,0 -1.96,0.88 -1.96,1.96 v 0.93 c -0.28,-0.16 -0.61,-0.25 -0.96,-0.25 -1.08,0 -1.96,0.88 -1.96,1.96 v 1.95 c -0.28,-0.16 -0.61,-0.25 -0.96,-0.25 -1.08,0 -1.96,0.88 -1.96,1.96 v 1.52 c 0,0.28 0.23,0.5 0.5,0.5 0.28,0 0.5,-0.22 0.5,-0.5 v -1.52 c 0,-0.53 0.43,-0.96 0.96,-0.96 0.53,0 0.96,0.43 0.96,0.96 v 4.48 h -0.5 c -0.28,0 -0.5,0.23 -0.5,0.5 0,0.28 0.23,0.5 0.5,0.5 h 7.8 c 0.28,0 0.5,-0.23 0.5,-0.5 0,-0.28 -0.23,-0.5 -0.5,-0.5 h -0.46 V 26.7 c 0,-0.53 0.43,-0.96 0.96,-0.96 0.53,0 0.96,0.43 0.96,0.96 v 9.06 c -2.65,0.21 -4.92,2.07 -5.62,4.68 -0.07,0.27 0.09,0.54 0.35,0.61 0.04,0.01 0.09,0.02 0.13,0.02 0.22,0 0.42,-0.15 0.49,-0.37 0.62,-2.33 2.74,-3.95 5.15,-3.95 0.28,0 0.5,-0.22 0.5,-0.5 v -4.02 c 0,-0.53 0.43,-0.96 0.96,-0.96 0.53,0 0.96,0.43 0.96,0.96 v 7.29 c 0,3.74 -3.04,6.79 -6.79,6.79 -3.74,0 -6.79,-3.04 -6.79,-6.79 v -4.65 c 0,-0.28 -0.23,-0.5 -0.5,-0.5 -0.28,0 -0.5,0.23 -0.5,0.5 v 4.65 c 0,2.07 0.81,4.03 2.29,5.5 1.48,1.48 3.43,2.29 5.5,2.29 2.07,0 4.03,-0.81 5.5,-2.29 1.48,-1.48 2.29,-3.43 2.29,-5.5 v -7.29 c 0,-1.08 -0.88,-1.96 -1.96,-1.96 m -9.7,4.09 v -8.14 c 0,-0.53 0.43,-0.96 0.95,-0.96 0.53,0 0.96,0.43 0.96,0.96 v 8.14 z m 2.92,0 V 23.58 c 0,-0.53 0.43,-0.96 0.95,-0.96 0.53,0 0.96,0.43 0.96,0.96 v 10.78 z"
         id="path4906" />
      <path
         class="st6"
         d="m 35.214994,42.01 c 0,-0.28 -0.23,-0.5 -0.5,-0.5 -0.28,0 -0.5,0.22 -0.5,0.5 v 0 c 0,0.28 0.23,0.5 0.5,0.5 0.27,0 0.5,-0.23 0.5,-0.5"
         id="path4908" />
      <path
         class="st6"
         d="m 36.374994,53.38 c -7.6,0 -13.78,-6.18 -13.78,-13.78 0,-2.01 0.42,-3.94 1.25,-5.75 0.11,-0.25 0.42,-0.36 0.67,-0.25 0.25,0.12 0.36,0.42 0.25,0.67 -0.77,1.68 -1.16,3.47 -1.16,5.33 0,7.04 5.73,12.77 12.77,12.77 7.04,0 12.77,-5.73 12.77,-12.77 0,-1.91 -0.41,-3.75 -1.22,-5.46 -0.12,-0.25 -0.01,-0.55 0.24,-0.67 0.25,-0.12 0.55,-0.01 0.67,0.24 0.88,1.85 1.32,3.83 1.32,5.89 0.01,7.6 -6.17,13.78 -13.78,13.78"
         id="path4910" />
    </g>
  </g>
</svg>
