<?xml version="1.0" encoding="UTF-8" standalone="no"?>
<svg
   xmlns:dc="http://purl.org/dc/elements/1.1/"
   xmlns:cc="http://creativecommons.org/ns#"
   xmlns:rdf="http://www.w3.org/1999/02/22-rdf-syntax-ns#"
   xmlns:svg="http://www.w3.org/2000/svg"
   xmlns="http://www.w3.org/2000/svg"
   xmlns:sodipodi="http://sodipodi.sourceforge.net/DTD/sodipodi-0.dtd"
   xmlns:inkscape="http://www.inkscape.org/namespaces/inkscape"
   id="SVGRoot"
   version="1.1"
   viewBox="0 0 64 64"
   height="64px"
   width="64px"
   sodipodi:docname="out_route.svg"
   inkscape:version="0.92.3 (2405546, 2018-03-11)">
  <sodipodi:namedview
     pagecolor="#ffffff"
     bordercolor="#666666"
     borderopacity="1"
     objecttolerance="10"
     gridtolerance="10"
     guidetolerance="10"
     inkscape:pageopacity="0"
     inkscape:pageshadow="2"
     inkscape:window-width="1366"
     inkscape:window-height="713"
     id="namedview5516"
     showgrid="false"
     inkscape:zoom="3.6875"
     inkscape:cx="32"
     inkscape:cy="32"
     inkscape:window-x="0"
     inkscape:window-y="27"
     inkscape:window-maximized="1"
     inkscape:current-layer="SVGRoot" />
  <defs
     id="defs5305" />
  <metadata
     id="metadata5308">
    <rdf:RDF>
      <cc:Work
         rdf:about="">
        <dc:format>image/svg+xml</dc:format>
        <dc:type
           rdf:resource="http://purl.org/dc/dcmitype/StillImage" />
        <dc:title />
      </cc:Work>
    </rdf:RDF>
  </metadata>
  <g
     id="layer1"
     transform="matrix(2.3075428,0,0,2.3075428,-41.84137,-41.84137)">
    <g
       transform="translate(15.875,-15.375)"
       id="g5709">
      <path
         class="st5"
         d="m 28.59,45.595 c 0.39,0 0.71,-0.32 0.71,-0.71 v -9.97 c 0,-0.39 -0.32,-0.71 -0.71,-0.71 h -9.97 c -0.39,0 -0.71,0.32 -0.71,0.71 0,0.39 0.32,0.71 0.71,0.71 h 8.26 l -13.75,13.75 c -0.14,0.13 -0.21,0.31 -0.21,0.5 0,0.19 0.07,0.37 0.21,0.5 0.12,0.12 0.3,0.19 0.5,0.19 0.2,0 0.38,-0.07 0.5,-0.19 l 13.75,-13.75 v 8.26 c 0,0.39 0.32,0.71 0.71,0.71"
         id="path4702"
         inkscape:connector-curvature="0" />
      <path
         class="st5"
         d="M 16.13,39.185 H 3.66 c -0.39,0 -0.71,0.32 -0.71,0.71 v 19.94 c 0,0.39 0.32,0.71 0.71,0.71 H 23.6 c 0.39,0 0.71,-0.32 0.71,-0.71 v -12.47 c 0,-0.39 -0.32,-0.71 -0.71,-0.71 -0.39,0 -0.71,0.32 -0.71,0.71 v 11.76 H 4.37 v -18.52 h 11.76 c 0.39,0 0.71,-0.32 0.71,-0.71 0,-0.39 -0.32,-0.71 -0.71,-0.71"
         id="path4704"
         inkscape:connector-curvature="0" />
    </g>
  </g>
</svg>
