<?xml version="1.0" encoding="UTF-8" standalone="no"?>
<svg
   xmlns:dc="http://purl.org/dc/elements/1.1/"
   xmlns:cc="http://creativecommons.org/ns#"
   xmlns:rdf="http://www.w3.org/1999/02/22-rdf-syntax-ns#"
   xmlns:svg="http://www.w3.org/2000/svg"
   xmlns="http://www.w3.org/2000/svg"
   xmlns:sodipodi="http://sodipodi.sourceforge.net/DTD/sodipodi-0.dtd"
   xmlns:inkscape="http://www.inkscape.org/namespaces/inkscape"
   id="SVGRoot"
   version="1.1"
   viewBox="0 0 64 64"
   height="64px"
   width="64px"
   sodipodi:docname="out_of_traj.svg"
   inkscape:version="0.92.3 (2405546, 2018-03-11)">
  <sodipodi:namedview
     pagecolor="#ffffff"
     bordercolor="#666666"
     borderopacity="1"
     objecttolerance="10"
     gridtolerance="10"
     guidetolerance="10"
     inkscape:pageopacity="0"
     inkscape:pageshadow="2"
     inkscape:window-width="1366"
     inkscape:window-height="713"
     id="namedview5457"
     showgrid="false"
     inkscape:zoom="3.6875"
     inkscape:cx="32"
     inkscape:cy="32"
     inkscape:window-x="0"
     inkscape:window-y="27"
     inkscape:window-maximized="1"
     inkscape:current-layer="SVGRoot" />
  <defs
     id="defs5305" />
  <metadata
     id="metadata5308">
    <rdf:RDF>
      <cc:Work
         rdf:about="">
        <dc:format>image/svg+xml</dc:format>
        <dc:type
           rdf:resource="http://purl.org/dc/dcmitype/StillImage" />
        <dc:title />
      </cc:Work>
    </rdf:RDF>
  </metadata>
  <g
     id="layer1"
     transform="matrix(1.5068082,0,0,1.5068082,-16.217862,-16.217862)">
    <g
       transform="translate(-1.1250001,-1.875)"
       id="g5586">
      <path
         class="st6"
         d="m 19.434153,20.37 c -3.81,0 -6.91,3.1 -6.91,6.91 0,4.39 6.25,10.71 6.51,10.98 0.1,0.1 0.24,0.16 0.4,0.16 0.15,0 0.3,-0.06 0.4,-0.16 0.27,-0.26 6.52,-6.54 6.52,-10.98 -0.01,-3.81 -3.11,-6.91 -6.92,-6.91 m 0.1,16.57 -0.1,0.11 -0.1,-0.11 c -0.58,-0.62 -5.68,-6.14 -5.68,-9.66 0,-3.19 2.6,-5.78 5.78,-5.78 3.19,0 5.78,2.6 5.79,5.78 -0.01,3.21 -3.98,7.83 -5.69,9.66"
         id="path5056"
         inkscape:connector-curvature="0" />
      <path
         class="st6"
         d="m 19.434153,23.9 c -1.48,0 -2.68,1.2 -2.68,2.68 0,1.48 1.2,2.68 2.68,2.68 1.48,0 2.68,-1.2 2.68,-2.68 0,-1.48 -1.2,-2.68 -2.68,-2.68 m 0,4.23 c -0.86,0 -1.55,-0.7 -1.55,-1.55 0,-0.86 0.7,-1.55 1.55,-1.55 0.86,0 1.55,0.7 1.55,1.55 0,0.85 -0.7,1.55 -1.55,1.55"
         id="path5058"
         inkscape:connector-curvature="0" />
      <path
         class="st6"
         d="m 44.434153,18.14 c -2.34,0 -4.24,1.9 -4.24,4.24 0,2.68 3.74,6.45 3.9,6.61 0.09,0.09 0.21,0.14 0.33,0.14 0.13,0 0.24,-0.05 0.33,-0.14 0.16,-0.16 3.9,-3.93 3.9,-6.61 0.01,-2.34 -1.89,-4.24 -4.22,-4.24 m 0.03,9.8 -0.03,0.03 -0.03,-0.03 c -1.5,-1.62 -3.26,-4.04 -3.26,-5.56 0,-1.81 1.48,-3.29 3.29,-3.29 1.81,0 3.29,1.48 3.29,3.29 0,1.82 -2.28,4.49 -3.26,5.56"
         id="path5060"
         inkscape:connector-curvature="0" />
      <path
         class="st6"
         d="m 44.434153,20.23 c -0.95,0 -1.73,0.77 -1.73,1.73 0,0.96 0.78,1.73 1.73,1.73 0.95,0 1.73,-0.77 1.73,-1.73 0,-0.96 -0.78,-1.73 -1.73,-1.73 m 0,2.51 c -0.43,0 -0.78,-0.35 -0.78,-0.78 0,-0.43 0.35,-0.78 0.78,-0.78 0.43,0 0.78,0.35 0.78,0.78 0,0.43 -0.35,0.78 -0.78,0.78"
         id="path5062"
         inkscape:connector-curvature="0" />
      <path
         class="st6"
         d="m 26.174153,39.04 h -6.77 c -0.32,0 -0.58,0.26 -0.58,0.57 0,0.32 0.26,0.57 0.58,0.57 h 6.62 c 0.03,-0.39 0.08,-0.77 0.15,-1.14"
         id="path5064"
         inkscape:connector-curvature="0" />
      <path
         class="st6"
         d="m 51.894153,30.99 c -0.94,-0.8 -2.21,-1.24 -3.58,-1.24 h -3.83 c -0.32,0 -0.58,0.26 -0.58,0.58 0,0.32 0.26,0.57 0.58,0.57 h 3.86 c 2.27,0 4.17,1.77 4.23,3.95 0.04,1.22 -0.47,2.39 -1.4,3.2 -0.73,0.64 -1.73,0.99 -2.81,0.99 h -2.85 c 0.07,0.38 0.12,0.76 0.15,1.15 h 2.66 c 2.93,0 5.35,-2.3 5.4,-5.12 0.04,-1.57 -0.63,-3.06 -1.83,-4.08"
         id="path5066"
         inkscape:connector-curvature="0" />
      <path
         class="st6"
         d="m 39.264153,43.52 -2.55,-2.55 2.55,-2.55 c 0.23,-0.23 0.23,-0.6 0,-0.83 -0.23,-0.23 -0.6,-0.23 -0.83,0 l -2.55,2.55 -2.55,-2.55 c -0.23,-0.23 -0.6,-0.23 -0.83,0 -0.23,0.23 -0.23,0.61 0,0.83 l 2.55,2.55 -2.55,2.55 c -0.11,0.11 -0.17,0.26 -0.17,0.42 0,0.16 0.06,0.31 0.17,0.42 0.11,0.11 0.26,0.17 0.42,0.17 0.16,0 0.31,-0.06 0.42,-0.17 l 2.55,-2.55 2.55,2.55 c 0.11,0.11 0.26,0.17 0.42,0.17 0.16,0 0.31,-0.06 0.42,-0.17 0.21,-0.24 0.21,-0.61 -0.02,-0.84"
         id="path5068"
         inkscape:connector-curvature="0" />
      <path
         class="st6"
         d="m 42.214153,45.95 c 0.13,0.09 0.28,0.12 0.44,0.09 0.16,-0.03 0.29,-0.12 0.38,-0.25 0.95,-1.43 1.46,-3.07 1.46,-4.77 0,-2.29 -0.89,-4.45 -2.52,-6.07 -1.62,-1.62 -3.78,-2.52 -6.07,-2.52 -2.3,0 -4.45,0.89 -6.08,2.52 -1.62,1.62 -2.51,3.78 -2.51,6.07 0,2.3 0.89,4.45 2.51,6.08 1.62,1.62 3.78,2.51 6.08,2.51 1.57,0 3.11,-0.43 4.44,-1.24 0.14,-0.08 0.23,-0.21 0.27,-0.36 0.04,-0.15 0.01,-0.31 -0.07,-0.44 -0.08,-0.14 -0.21,-0.23 -0.36,-0.27 -0.15,-0.04 -0.31,-0.01 -0.45,0.07 -1.15,0.7 -2.48,1.07 -3.83,1.07 -4.09,0 -7.41,-3.32 -7.41,-7.41 0,-4.09 3.33,-7.41 7.41,-7.41 4.09,0 7.41,3.32 7.41,7.41 0,1.46 -0.43,2.88 -1.26,4.11 -0.09,0.13 -0.12,0.29 -0.09,0.44 0.03,0.15 0.12,0.28 0.25,0.37"
         id="path5070"
         inkscape:connector-curvature="0" />
    </g>
  </g>
</svg>
