<?xml version="1.0" encoding="UTF-8" standalone="no"?>
<svg
   xmlns:dc="http://purl.org/dc/elements/1.1/"
   xmlns:cc="http://creativecommons.org/ns#"
   xmlns:rdf="http://www.w3.org/1999/02/22-rdf-syntax-ns#"
   xmlns:svg="http://www.w3.org/2000/svg"
   xmlns="http://www.w3.org/2000/svg"
   xmlns:sodipodi="http://sodipodi.sourceforge.net/DTD/sodipodi-0.dtd"
   xmlns:inkscape="http://www.inkscape.org/namespaces/inkscape"
   id="SVGRoot"
   version="1.1"
   viewBox="0 0 64 64"
   height="64px"
   width="64px"
   sodipodi:docname="safe.svg"
   inkscape:version="0.92.3 (2405546, 2018-03-11)">
  <sodipodi:namedview
     pagecolor="#ffffff"
     bordercolor="#666666"
     borderopacity="1"
     objecttolerance="10"
     gridtolerance="10"
     guidetolerance="10"
     inkscape:pageopacity="0"
     inkscape:pageshadow="2"
     inkscape:window-width="1366"
     inkscape:window-height="713"
     id="namedview5577"
     showgrid="false"
     inkscape:zoom="3.6875"
     inkscape:cx="32"
     inkscape:cy="32"
     inkscape:window-x="0"
     inkscape:window-y="27"
     inkscape:window-maximized="1"
     inkscape:current-layer="SVGRoot" />
  <defs
     id="defs5305" />
  <metadata
     id="metadata5308">
    <rdf:RDF>
      <cc:Work
         rdf:about="">
        <dc:format>image/svg+xml</dc:format>
        <dc:type
           rdf:resource="http://purl.org/dc/dcmitype/StillImage" />
        <dc:title />
      </cc:Work>
    </rdf:RDF>
  </metadata>
  <g
     id="layer1"
     transform="matrix(2.3934064,0,0,2.3934064,-44.589005,-44.589005)">
    <g
       transform="translate(-36,-19.625)"
       id="g5799">
      <path
         class="st6"
         d="M 75.515,48.66 V 46.3 c 0,-4.15 -3.37,-7.52 -7.52,-7.52 -4.15,0 -7.52,3.38 -7.52,7.52 v 2.36 c -1.14,0.23 -2.01,1.24 -2.01,2.46 v 2.85 c 0,0.28 0.23,0.5 0.5,0.5 0.27,0 0.5,-0.22 0.5,-0.5 v -2.85 c 0,-0.83 0.68,-1.5 1.51,-1.5 h 14.04 c 0.83,0 1.51,0.67 1.51,1.5 v 10.83 c 0,0.65 -0.42,1.21 -1,1.42 v -3.02 c 0,-0.28 -0.22,-0.5 -0.5,-0.5 -0.28,0 -0.5,0.22 -0.5,0.5 v 3.11 h -13.54 c -0.83,0 -1.51,-0.67 -1.51,-1.5 V 58 c 0,-0.28 -0.22,-0.5 -0.5,-0.5 -0.28,0 -0.5,0.23 -0.5,0.5 v 3.96 c 0,1.38 1.13,2.51 2.51,2.51 h 14.04 c 1.38,0 2.51,-1.13 2.51,-2.51 V 51.13 c -0.02,-1.23 -0.88,-2.24 -2.02,-2.47 M 64.185,48.61 V 46.3 c 0,-2.1 1.71,-3.81 3.81,-3.81 2.1,0 3.81,1.71 3.81,3.81 v 2.31 z m 8.62,0 V 46.3 c 0,-2.65 -2.16,-4.81 -4.81,-4.81 -2.66,0 -4.81,2.16 -4.81,4.81 v 2.31 h -1.7 V 46.3 c 0,-3.59 2.92,-6.52 6.52,-6.52 3.6,0 6.52,2.93 6.52,6.52 v 2.31 z"
         id="path4834"
         inkscape:connector-curvature="0" />
      <path
         class="st6"
         d="m 58.965,56.45 c 0.13,0 0.26,-0.05 0.35,-0.15 0.09,-0.09 0.15,-0.22 0.15,-0.35 0,-0.13 -0.05,-0.26 -0.15,-0.35 -0.09,-0.09 -0.22,-0.15 -0.35,-0.15 -0.13,0 -0.26,0.05 -0.35,0.15 -0.09,0.09 -0.15,0.22 -0.15,0.35 0,0.13 0.05,0.26 0.15,0.35 0.09,0.1 0.22,0.15 0.35,0.15"
         id="path4836"
         inkscape:connector-curvature="0" />
      <path
         class="st6"
         d="m 67.995,61.75 c 0.83,0 1.5,-0.67 1.5,-1.5 v -2.66 c 0.75,-0.5 1.21,-1.34 1.21,-2.26 0,-1.49 -1.21,-2.71 -2.71,-2.71 -1.49,0 -2.71,1.21 -2.71,2.71 0,0.91 0.45,1.75 1.2,2.25 v 2.67 c 0,0.82 0.68,1.5 1.51,1.5 m -1.7,-6.43 c 0,-0.94 0.76,-1.7 1.7,-1.7 0.94,0 1.71,0.77 1.71,1.7 0,0.65 -0.36,1.23 -0.93,1.52 -0.17,0.08 -0.28,0.26 -0.28,0.45 v 2.95 c 0,0.28 -0.22,0.5 -0.5,0.5 -0.28,0 -0.5,-0.23 -0.5,-0.5 v -2.96 c 0,-0.19 -0.1,-0.36 -0.27,-0.45 -0.58,-0.29 -0.93,-0.87 -0.93,-1.51"
         id="path4838"
         inkscape:connector-curvature="0" />
      <path
         class="st6"
         d="m 75.015,58.79 c 0.13,0 0.26,-0.05 0.35,-0.15 0.09,-0.09 0.15,-0.22 0.15,-0.35 0,-0.13 -0.05,-0.26 -0.15,-0.36 -0.09,-0.09 -0.22,-0.15 -0.35,-0.15 -0.13,0 -0.26,0.05 -0.35,0.15 -0.09,0.09 -0.15,0.22 -0.15,0.36 0,0.13 0.05,0.26 0.15,0.35 0.09,0.09 0.21,0.15 0.35,0.15"
         id="path4840"
         inkscape:connector-curvature="0" />
    </g>
  </g>
</svg>
