<?xml version="1.0" encoding="UTF-8" standalone="no"?>
<svg
   xmlns:dc="http://purl.org/dc/elements/1.1/"
   xmlns:cc="http://creativecommons.org/ns#"
   xmlns:rdf="http://www.w3.org/1999/02/22-rdf-syntax-ns#"
   xmlns:svg="http://www.w3.org/2000/svg"
   xmlns="http://www.w3.org/2000/svg"
   xmlns:sodipodi="http://sodipodi.sourceforge.net/DTD/sodipodi-0.dtd"
   xmlns:inkscape="http://www.inkscape.org/namespaces/inkscape"
   id="SVGRoot"
   version="1.1"
   viewBox="0 0 64 64"
   height="64px"
   width="64px"
   sodipodi:docname="store_data.svg"
   inkscape:version="0.92.3 (2405546, 2018-03-11)">
  <sodipodi:namedview
     pagecolor="#ffffff"
     bordercolor="#666666"
     borderopacity="1"
     objecttolerance="10"
     gridtolerance="10"
     guidetolerance="10"
     inkscape:pageopacity="0"
     inkscape:pageshadow="2"
     inkscape:window-width="1366"
     inkscape:window-height="713"
     id="namedview5628"
     showgrid="false"
     inkscape:zoom="3.6875"
     inkscape:cx="32"
     inkscape:cy="32"
     inkscape:window-x="0"
     inkscape:window-y="27"
     inkscape:window-maximized="1"
     inkscape:current-layer="SVGRoot" />
  <defs
     id="defs5305" />
  <metadata
     id="metadata5308">
    <rdf:RDF>
      <cc:Work
         rdf:about="">
        <dc:format>image/svg+xml</dc:format>
        <dc:type
           rdf:resource="http://purl.org/dc/dcmitype/StillImage" />
        <dc:title />
      </cc:Work>
    </rdf:RDF>
  </metadata>
  <g
     id="layer1"
     transform="matrix(2.0794823,0,0,2.0794823,-34.543434,-34.543434)">
    <g
       transform="translate(10.125,-7.75)"
       id="g5852">
      <path
         class="st6"
         d="m 16.04,46.407268 c -0.32,0 -0.58,0.26 -0.58,0.58 0,0.32 0.26,0.58 0.58,0.58 0.32,0 0.58,-0.26 0.58,-0.58 0,-0.32 -0.26,-0.58 -0.58,-0.58"
         id="path4796"
         inkscape:connector-curvature="0" />
      <path
         class="st6"
         d="m 33.21,35.897268 3.44,-3.44 c 0.14,-0.14 0.2,-0.35 0.15,-0.55 -0.05,-0.2 -0.2,-0.36 -0.39,-0.42 l -8.38,-2.59 c -0.75,-2.43 -3,-4.1 -5.57,-4.1 -2.39,0 -4.53,1.46 -5.42,3.66 l -9.7,3.03 c -0.2,0.06 -0.34,0.22 -0.39,0.42 -0.05,0.2 0.01,0.41 0.15,0.55 l 3.53,3.53 -2.23,3.71 c -0.09,0.15 -0.11,0.34 -0.05,0.5 0.06,0.17 0.19,0.3 0.36,0.35 l 3.23,1.08 v 8.98 c 0,0.24 0.15,0.46 0.38,0.55 1.97,0.74 9.31,3.49 9.35,3.51 0.12,0.04 0.25,0.05 0.37,0.01 0,0 0,0 0.01,0 l 10.51,-3.5 c 0.24,-0.08 0.4,-0.3 0.4,-0.56 v -9.22 l 3.45,-1.08 c 0.2,-0.06 0.34,-0.22 0.39,-0.42 0.05,-0.2 -0.01,-0.41 -0.15,-0.55 z m -4.91,-5.26 c 0,-0.15 -0.01,-0.3 -0.02,-0.44 l 6.86,2.12 -2.91,2.91 -4.76,-1.59 c 0.54,-0.9 0.83,-1.94 0.83,-3 m -10.26,-1.52 c 0.65,-1.89 2.42,-3.15 4.42,-3.15 2.15,0 4.01,1.45 4.53,3.54 0.09,0.37 0.14,0.75 0.14,1.14 0,1.09 -0.36,2.1 -1.04,2.94 -0.89,1.1 -2.21,1.73 -3.63,1.73 -1.53,0 -2.96,-0.75 -3.84,-2.01 -0.55,-0.78 -0.83,-1.7 -0.83,-2.66 0,-0.53 0.08,-1.04 0.25,-1.53 m -9.43,3.19 8.08,-2.52 c -0.04,0.28 -0.06,0.56 -0.06,0.85 0,0.94 0.22,1.85 0.65,2.67 l -5.74,1.92 z m 1.17,7.36 1.85,-3.08 9.38,3.13 -1.85,3.08 c -1.01,-0.33 -8.31,-2.77 -9.38,-3.13 m 11.51,13.6 -8.17,-3.07 v -8.19 c 6.43,2.13 6.12,2.07 6.3,2.07 0.2,0 0.39,-0.1 0.5,-0.28 l 1.38,-2.3 v 11.77 z m 0.59,-14.49 -8.66,-2.89 4.72,-1.57 c 1.1,1.36 2.77,2.16 4.53,2.16 1.63,0 3.17,-0.67 4.27,-1.85 l 3.81,1.27 z m 9.92,11.41 -9.34,3.11 v -12.24 l 2.07,2.59 c 0.15,0.19 0.4,0.26 0.63,0.19 l 6.64,-2.09 z m -6.61,-7.58 -2.34,-2.92 9.37,-3.13 2.92,2.92 z"
         id="path4798"
         inkscape:connector-curvature="0" />
      <path
         class="st6"
         d="m 19.75,47.697268 -1.3,-0.49 c -0.3,-0.11 -0.64,0.04 -0.75,0.34 -0.11,0.3 0.04,0.64 0.34,0.75 l 1.3,0.49 c 0.3,0.11 0.64,-0.04 0.75,-0.34 0.11,-0.3 -0.04,-0.63 -0.34,-0.75"
         id="path4800"
         inkscape:connector-curvature="0" />
      <path
         class="st6"
         d="m 19.75,50.197268 -3.5,-1.31 c -0.3,-0.11 -0.64,0.04 -0.75,0.34 -0.11,0.3 0.04,0.64 0.34,0.75 l 3.5,1.31 c 0.07,0.02 0.14,0.04 0.21,0.04 0.24,0 0.46,-0.14 0.55,-0.38 0.1,-0.3 -0.05,-0.64 -0.35,-0.75"
         id="path4802"
         inkscape:connector-curvature="0" />
      <path
         class="st6"
         d="m 25.79,28.477268 c -0.23,-0.23 -0.6,-0.23 -0.83,0 l -3.09,3.09 -0.76,-0.75 c -0.23,-0.23 -0.6,-0.23 -0.83,0 -0.23,0.23 -0.23,0.6 0,0.83 l 1.17,1.17 c 0.23,0.23 0.6,0.23 0.83,0 l 3.5,-3.5 c 0.24,-0.25 0.24,-0.62 0.01,-0.84"
         id="path4804"
         inkscape:connector-curvature="0" />
    </g>
  </g>
</svg>
