<?xml version="1.0" encoding="UTF-8" standalone="no"?>
<svg
   xmlns:dc="http://purl.org/dc/elements/1.1/"
   xmlns:cc="http://creativecommons.org/ns#"
   xmlns:rdf="http://www.w3.org/1999/02/22-rdf-syntax-ns#"
   xmlns:svg="http://www.w3.org/2000/svg"
   xmlns="http://www.w3.org/2000/svg"
   id="SVGRoot"
   version="1.1"
   viewBox="0 0 64 64"
   height="64px"
   width="64px">
  <defs
     id="defs5305" />
  <metadata
     id="metadata5308">
    <rdf:RDF>
      <cc:Work
         rdf:about="">
        <dc:format>image/svg+xml</dc:format>
        <dc:type
           rdf:resource="http://purl.org/dc/dcmitype/StillImage" />
        <dc:title></dc:title>
      </cc:Work>
    </rdf:RDF>
  </metadata>
  <g
     id="layer1">
    <g
       transform="translate(0.62500037,-2.5)"
       id="g5954">
      <path
         class="st6"
         d="m 14.199939,38.235 c 0,-2.92 3.29,-4.23 3.29,-5.77 0,-0.39 -0.21,-0.8 -0.72,-0.8 -0.47,0 -0.76,0.34 -0.79,0.96 h -1.68 c 0.08,-1.75 0.96,-2.64 2.45,-2.64 1.75,0 2.52,1.24 2.52,2.39 0,2.35 -3.18,3.92 -3.18,5.31 h 3.22 v 1.66 h -5.1 v -1.11 z"
         id="path4862" />
      <polygon
         transform="translate(-374.03006,-106.385)"
         class="st6"
         points="393.78,142.68 395.46,136.52 397.21,136.52 395.69,142.02 397.07,142.02 397.35,139.22 398.77,139.22 398.77,142.02 399.71,142.02 399.71,143.62 398.77,143.62 398.77,145.73 397.04,145.73 397.04,143.62 393.78,143.62 "
         id="polygon4864" />
      <path
         class="st6"
         d="m 30.179939,36.315 v 3.05 h -1.28 v -3.05 c 0,-0.61 -0.17,-0.82 -0.48,-0.82 -0.33,0 -0.53,0.24 -0.53,0.73 v 3.14 h -1.27 v -6.79 h 1.27 v 2.17 c 0.23,-0.29 0.52,-0.47 0.89,-0.47 0.88,0 1.4,0.7 1.4,2.04"
         id="path4866" />
      <path
         class="st6"
         d="m 25.409939,46.885 c 0,0.24 0.19,0.44 0.43,0.44 h 25.9 c 0.24,0 0.43,-0.2 0.43,-0.43 0.13,-5.07 -7.27,-6.89 -9.55,-7.33 -0.04,-0.01 -0.06,-0.04 -0.06,-0.07 v -0.47 c 0,-0.02 0.01,-0.04 0.03,-0.06 0.12,-0.1 0.25,-0.21 0.38,-0.34 0.97,-1.07 1.58,-2.4 1.74,-3.84 0,-0.03 0.03,-0.06 0.06,-0.07 0.87,-0.13 1.63,-0.59 2.16,-1.29 0.73,-1.03 0.79,-2.5 0.18,-4.36 -0.03,-0.09 -0.09,-0.17 -0.17,-0.23 l -0.28,-0.19 c -0.02,-0.01 -0.03,-0.04 -0.03,-0.06 0.04,-1.68 -0.54,-3.32 -1.63,-4.6 -1.35,-1.52 -3.44,-2.3 -6.21,-2.31 -2.75,0 -4.84,0.77 -6.21,2.29 -1.09,1.28 -1.67,2.91 -1.63,4.6 0,0.03 -0.01,0.05 -0.03,0.06 l -0.28,0.19 c -0.08,0.05 -0.14,0.14 -0.17,0.23 -0.61,1.87 -0.55,3.34 0.18,4.37 0.52,0.7 1.29,1.16 2.16,1.3 0.03,0.01 0.06,0.03 0.06,0.07 0.17,1.44 0.77,2.77 1.75,3.85 0.12,0.11 0.24,0.23 0.37,0.34 0.02,0.02 0.03,0.04 0.03,0.06 v 0.47 c 0,0.04 -0.03,0.07 -0.06,0.07 -2.28,0.42 -9.68,2.25 -9.55,7.31 m 17.18,-6.42 c 0.02,-0.01 0.04,-0.02 0.06,-0.02 1.92,0.4 8.2,2 8.63,5.9 0,0.02 0,0.04 -0.02,0.06 -0.01,0.01 -0.03,0.02 -0.06,0.02 h -11.91 c -0.04,0 -0.08,-0.03 -0.08,-0.08 v -2.76 c 0,-0.04 0.03,-0.07 0.07,-0.08 1.93,-0.13 3.27,-1 3.27,-2.11 v -0.89 c 0.02,0 0.03,-0.03 0.04,-0.04 m -3.8,2.21 c -1.8,0 -2.91,-0.73 -2.91,-1.26 v -1.76 c 0,-0.03 0.01,-0.05 0.04,-0.06 0.02,-0.01 0.05,-0.02 0.07,-0.01 0.8,0.37 1.68,0.56 2.56,0.56 0.04,0 0.07,0 0.11,0 h 0.26 c 0.04,0 0.07,0 0.11,0 0.88,0 1.76,-0.19 2.56,-0.56 0.02,-0.01 0.05,-0.01 0.07,0.01 0.02,0.01 0.04,0.04 0.04,0.06 v 1.76 c 0,0.53 -1.11,1.26 -2.91,1.26 m -6.25,-9.08 c 0.02,0.03 0.02,0.06 0.01,0.09 -0.02,0.03 -0.05,0.04 -0.09,0.03 -0.45,-0.15 -0.84,-0.43 -1.12,-0.82 -0.01,-0.02 -0.02,-0.04 -0.01,-0.05 -0.49,-0.77 -0.52,-1.9 -0.07,-3.36 0.01,-0.02 0.02,-0.03 0.03,-0.04 l 0.37,-0.25 c 0.14,-0.09 0.21,-0.24 0.19,-0.4 -0.09,-1.55 0.41,-3.06 1.4,-4.25 1.16,-1.31 3.02,-1.98 5.53,-1.99 h 0.06 c 2.46,0 4.31,0.67 5.5,1.99 0.99,1.19 1.49,2.7 1.4,4.25 -0.02,0.16 0.06,0.32 0.19,0.41 l 0.37,0.25 c 0.01,0.01 0.02,0.02 0.03,0.04 0.46,1.51 0.42,2.66 -0.11,3.42 -0.28,0.38 -0.67,0.67 -1.12,0.82 -0.01,0 -0.02,0 -0.02,0 -0.02,0 -0.05,-0.01 -0.06,-0.03 -0.02,-0.03 -0.02,-0.07 0.01,-0.09 0.6,-0.68 0.89,-1.59 0.81,-2.49 -0.09,-0.53 -0.37,-1.02 -0.79,-1.38 -0.02,-0.01 -0.03,-0.03 -0.03,-0.05 -0.22,-5.05 -3.75,-5.59 -5.25,-5.59 h -0.02 c -0.31,0 -0.63,0.02 -0.94,0.07 -0.01,0 -0.02,0 -0.02,0 -0.31,-0.05 -0.63,-0.07 -0.94,-0.07 h -0.02 c -1.5,0 -5.02,0.55 -5.25,5.59 0,0.02 -0.01,0.04 -0.03,0.05 -0.42,0.35 -0.71,0.84 -0.8,1.38 -0.1,0.88 0.19,1.79 0.79,2.47 m 11.61,-4.12 c 0,0.04 -0.03,0.07 -0.07,0.07 -0.21,0.01 -0.41,0.02 -0.62,0.02 -1.95,0 -3.84,-0.53 -5.51,-1.56 -0.18,-0.13 -0.42,-0.1 -0.57,0.05 -1.06,1.14 -3.03,1.38 -3.83,1.43 -0.02,0 -0.04,-0.01 -0.06,-0.02 -0.01,-0.02 -0.02,-0.04 -0.02,-0.06 0.28,-3.68 2.53,-4.46 4.36,-4.46 0.3,0 0.59,0.02 0.88,0.07 0.06,0.01 0.12,0.01 0.18,0 0.28,-0.05 0.57,-0.07 0.85,-0.07 h 0.03 c 1.83,0 4.06,0.77 4.34,4.46 0.03,0.02 0.04,0.04 0.04,0.07 m -10.5,4.27 c 0,-0.02 0.01,-0.04 0.02,-0.05 -0.01,-0.09 -0.05,-0.17 -0.11,-0.24 -0.72,-0.83 -1.04,-1.56 -0.95,-2.19 0.04,-0.35 0.22,-0.68 0.49,-0.91 0.01,-0.01 0.03,-0.02 0.05,-0.02 0.48,0 2.96,-0.07 4.54,-1.43 0.02,-0.02 0.06,-0.02 0.08,-0.01 1.71,0.98 3.65,1.51 5.62,1.52 0.33,0 0.68,0 1.04,-0.05 0.02,0 0.04,0 0.06,0.02 0.26,0.22 0.44,0.54 0.49,0.88 0.09,0.62 -0.24,1.37 -0.95,2.19 -0.07,0.08 -0.11,0.18 -0.11,0.29 v 0.27 c 0,0.03 -0.02,0.05 -0.04,0.07 l -2.97,1.59 c -0.03,0.02 -0.06,0.01 -0.09,-0.01 -0.56,-0.53 -1.44,-0.5 -1.97,0.05 -0.53,0.56 -0.5,1.44 0.05,1.97 0.26,0.25 0.6,0.38 0.96,0.38 0.01,0 0.03,0 0.04,0 0.37,-0.01 0.72,-0.17 0.97,-0.43 0.25,-0.26 0.38,-0.6 0.38,-0.96 0,-0.05 0,-0.09 0,-0.13 0,-0.03 0.01,-0.06 0.04,-0.07 l 2.34,-1.25 c 0.02,-0.02 0.06,-0.01 0.08,0.01 0.02,0.02 0.03,0.05 0.03,0.07 -0.2,1.02 -0.68,1.96 -1.38,2.73 -0.86,0.83 -2.02,1.29 -3.21,1.29 -0.08,0 -0.15,0 -0.23,-0.01 h -0.25 c -1.26,0.06 -2.51,-0.4 -3.42,-1.28 -1.6,-1.6 -1.6,-4.18 -1.6,-4.29 m 6.74,2.92 c 0,0.29 -0.24,0.53 -0.53,0.53 -0.29,0 -0.53,-0.24 -0.53,-0.53 0,-0.29 0.24,-0.53 0.53,-0.53 0.29,0 0.53,0.24 0.53,0.53 m -5.47,3.77 c 0.02,0 0.05,0 0.06,0.02 0.02,0.01 0.03,0.04 0.03,0.06 v 0.91 c 0,1.1 1.35,1.96 3.27,2.11 0.04,0 0.07,0.04 0.07,0.08 v 2.74 c 0,0.04 -0.04,0.08 -0.08,0.08 h -11.9 c -0.02,0 -0.04,-0.01 -0.05,-0.03 -0.02,-0.02 -0.02,-0.04 -0.02,-0.06 0.4,-3.87 6.7,-5.5 8.62,-5.91"
         id="path4912" />
      <path
         class="st6"
         d="m 22.649939,47.225 c -0.24,0 -0.48,-0.01 -0.73,-0.02 -3.21,-0.19 -6.16,-1.62 -8.3,-4.03 -2.14,-2.41 -3.21,-5.5 -3.02,-8.71 0.19,-3.21 1.62,-6.16 4.03,-8.3 2.41,-2.14 5.5,-3.21 8.72,-3.02 2.34,0.14 4.57,0.95 6.45,2.34 0.23,0.17 0.27,0.48 0.11,0.71 -0.17,0.23 -0.49,0.27 -0.71,0.1 -1.72,-1.27 -3.76,-2.01 -5.91,-2.14 -2.93,-0.17 -5.78,0.81 -7.98,2.76 -2.21,1.96 -3.52,4.65 -3.69,7.6 -0.18,2.94 0.81,5.78 2.76,7.98 1.96,2.2 4.65,3.51 7.6,3.69 0.38,0.02 0.76,0.02 1.13,0.01 0.32,-0.02 0.52,0.21 0.53,0.49 0.01,0.28 -0.21,0.52 -0.49,0.53 -0.16,0.01 -0.33,0.01 -0.5,0.01"
         id="path4914" />
    </g>
  </g>
</svg>
