<?xml version="1.0" standalone="no"?>
<!DOCTYPE svg PUBLIC "-//W3C//DTD SVG 1.1//EN" "http://www.w3.org/Graphics/SVG/1.1/DTD/svg11.dtd">
<svg xmlns="http://www.w3.org/2000/svg">
<metadata>Copyright (C) 2019 by original authors @ fontello.com</metadata>
<defs>
<font id="gt" horiz-adv-x="1000" >
<font-face font-family="gt" font-weight="400" font-stretch="normal" units-per-em="1000" ascent="850" descent="-150" />
<missing-glyph horiz-adv-x="1000" />
<glyph glyph-name="allowed_cond" unicode="&#xe800;" d="M944 549c0 53-42 95-95 95-28 0-54-12-71-32l-188 109c3 9 5 19 5 30 0 53-42 95-95 95-52 0-95-42-95-95 0-11 2-21 5-30l-188-109c-17 20-42 33-71 33-53 0-95-43-95-95 0-45 32-84 74-93l1-213c-43-10-76-48-76-93 0-53 43-95 95-95 28 0 54 12 71 31l189-109c-4-9-5-19-5-29 0-53 43-95 95-95 53 0 95 42 95 95 0 10-2 20-4 29l188 109c18-19 43-31 71-31 52 0 95 42 95 95 0 46-33 84-77 93v212c43 9 76 47 76 93m-95 59c33 0 59-26 59-59 0-32-26-58-59-58-32 0-58 26-58 58 0 33 26 59 58 59m-349 202c32 0 58-26 58-59 0-10-2-19-7-27 0-1 0-1-1-2l-1-1c-10-17-28-28-49-28-33 0-59 26-59 58 0 33 27 59 59 59m-408-261c0 33 26 59 59 59 32 0 58-26 58-59 0-32-26-58-58-58-33 0-59 26-59 58m58-457c-32 0-58 26-58 59 0 32 26 58 58 58 33 0 59-26 59-58-1-33-27-59-59-59m350-201c-33 0-59 26-59 58 0 32 26 59 59 59 32 0 58-27 58-59 0-32-26-58-58-58m72 119c-17 21-43 34-72 34-29 0-55-13-73-34l-187 109c3 10 5 21 5 32 0 46-33 85-78 93l-1 212c45 8 79 47 79 94 0 11-2 21-5 30l188 109c17-20 43-32 71-32 29 0 54 12 72 32l188-109c-3-9-5-19-5-30 0-46 33-85 77-93v-213c-44-8-77-47-77-93 0-11 2-22 6-32z m336 141c0-33-27-59-59-59-32 0-58 26-58 59 0 32 26 58 58 58 32 0 59-26 59-58m-320 126v66c12 11 18 25 18 41v87c0 53-44 97-97 97h-19c-53 0-96-44-96-97v-87c0-16 6-30 17-41v-66c-21-12-72-39-119-78-8-7-9-18-3-26 7-8 18-9 26-2 52 43 109 71 120 76 8 4 13 12 13 21v83c0 6-4 12-8 16-6 4-10 10-10 17v87c0 33 27 60 60 60h19c33 0 60-27 60-60v-87c0-7-4-13-10-17-5-4-8-9-8-16v-83c0-9 5-17 13-21 11-5 68-34 120-76 3-3 7-5 11-5 5 0 11 3 15 7 6 8 5 19-3 26-47 39-97 67-119 78" horiz-adv-x="1000" />

<glyph glyph-name="bike" unicode="&#xe801;" d="M176 366c-89 0-162-73-162-162 0-89 73-162 162-162 90 0 162 73 162 162 0 89-73 162-162 162m0-292c-71 0-129 58-129 130 0 72 58 130 129 130 72 0 130-58 130-130 0-72-58-130-130-130m0 195c-36 0-65-29-65-65 0-36 29-65 65-65 36 0 65 29 65 65 0 36-29 65-65 65m0-97c-18 0-32 14-32 32 0 18 14 32 32 32 18 0 32-14 32-32 0-18-14-32-32-32m648 194c-19 0-38-3-56-10l-14 29c21 8 42 12 64 13 1 0 3 1 4 1 32 0 64-8 93-23 8-4 17-1 22 7 4 8 1 18-7 22-32 17-68 26-105 26 0 0-1 0-1 0h-1c-3 0-6 0-9 0-25-1-50-7-74-16l-26 55c15-4 30-7 45-7 9 0 17 8 17 17v129c0 9-8 16-17 16-38 2-74-13-99-42l-32 66c-2 5-8 9-14 9h-98c-9 0-16-7-16-16 0-9 7-16 16-16h87l24-49h-132c-44 0-83-26-100-66-3 1-5 1-8 1h-259c-36 0-65-29-65-64 0-17 13-31 30-32-20-8-39-19-56-32-7-6-8-16-3-23 5-7 16-8 23-3 58 46 138 54 205 22 66-33 109-101 109-175v-21c-2-13 1-25 9-35 6-6 14-9 23-9h178c13 0 26 4 35 14 9 9 14 22 14 34v17c0 32 8 63 23 91 1 2 2 4 3 6 14 25 34 46 57 62 1 1 2 1 2 2 2 1 4 2 6 4 2 0 3 1 4 2l14-29c-68-43-95-129-63-203 33-74 115-112 193-90 77 22 127 98 115 178-11 79-79 138-160 138m-146 178c0 23 28 43 65 48v-96c-20 2-38 10-53 23l-12 25c0 0 0 0 0 0m-184 0h142l48-97h-243c-12 0-22 10-22 22 0 41 34 75 75 75m-366-65h259v-32h-292c0 18 15 32 33 32m469-291c1-4-1-9-4-12-3-3-8-5-12-4h-178c0 3 0 7 0 10v22c0 93-57 177-143 211h127c8 0 17 3 23 10 9-7 20-10 31-10h263l7-14c-2-1-3-2-4-3-4-2-7-4-10-6l0 0c-5-3-10-7-14-11-2 1-3 1-5 1h-210c-13 0-26-5-35-14-9-9-14-22-14-35v-14c0-13 5-26 14-35 9-10 22-15 35-15h139c-3-11-6-22-7-32h-100c-9 0-16-8-16-17 0-9 7-16 16-16h97z m27 123c0 0 0-1-1-1 0-1 0-1 0-1-1-3-2-5-3-8h-152c-4 0-9 2-12 5-3 4-4 8-4 12v14c0 4 1 9 4 12 3 3 8 5 12 6h183c-9-10-16-21-22-32-2-2-3-4-5-7m200-237c-57 0-108 38-124 93-16 55 5 114 54 146l28-60c-24-21-28-56-10-83 17-26 52-35 80-20 29 14 42 47 31 77-10 30-41 47-72 41l-28 59c48 17 102 3 137-35 35-38 44-93 23-140-21-47-68-78-119-78m0 162c18 0 32-14 32-32 0-18-14-32-32-32-18 0-32 14-32 32 0 7 2 14 6 20 3-3 7-4 10-4 4 0 8 2 11 5 3 3 5 7 5 11z" horiz-adv-x="1000" />

<glyph glyph-name="car" unicode="&#xe802;" d="M2 433v-135c0-25 16-49 40-58l54-22c2-1 4-1 6-1h6c10-28 32-51 60-61 52-18 109 9 127 61h443c10-28 33-51 61-61 52-18 109 9 127 61h55c9 0 17 8 17 17v98c0 27-15 53-38 66-58 33-123 51-190 52l-57 31c-83 45-175 68-269 68h-20c-80 0-158-17-231-49-22-10-43-22-64-34l-113-16c-8-2-14-9-14-17m764-183c0 32 22 59 53 65 36 8 71-15 78-51 8-37-16-71-52-79-35-7-71 16-78 52-1 4-1 9-1 13m-299 166h299c62 0 123-16 177-47 14-8 22-22 22-37v-82h-33c0 55-45 100-100 100-55 0-99-45-99-100h-266z m0 99c81-3 159-25 230-64l4-2h-234z m-33-66h-176l-29 29c62 25 128 38 195 38h10z m-299-199c0 32 22 59 53 65 36 8 71-15 78-51 8-37-15-71-51-79-36-7-71 16-79 52-1 4-1 9-1 13m-100 169l102 14c3 0 5 1 7 2 17 11 34 21 53 29l43-43c3-3 7-5 11-5h183v-166h-133c0 55-44 100-99 100-4 0-7 0-11-1-1 0-2 0-3 0-2 0-4-1-6-1-2 0-3-1-4-1-2 0-4-1-6-1-2-1-3-1-4-2-2-1-4-1-5-2-2-1-3-1-4-2-2-1-4-1-5-2-1-1-2-1-4-3-1-1-3-1-4-2-1-1-3-2-4-3-1-1-2-2-4-3-1-1-2-2-3-3-1-1-3-2-4-3-1-2-2-3-3-4-1-1-2-2-3-3-1-2-2-3-3-4-1-1-2-3-3-4-1-1-2-3-3-4 0-2-1-3-2-4-1-1-1-3-2-5-1-1-2-2-2-4-1-1-1-3-2-4 0-2-1-3-2-5 0-1 0-3-1-5 0-1-1-3-1-4 0-2-1-3-1-5 0-2-1-3-1-5 0-2 0-3 0-5 0-1 0-3 0-4l-48 19c-11 4-18 15-18 27v68h50v34h-50v19z" horiz-adv-x="1000" />

<glyph glyph-name="charge" unicode="&#xe803;" d="M981 52h-83v381c0 18-15 33-33 33h-432c-18 0-33-15-33-33v-381h-66v730c0 18-15 33-33 33h-103c-7 20-26 33-47 33h-99c-28 0-50-22-50-50 0-27 22-50 50-50h99c21 0 40 14 47 33h36v-763c0-5 2-9 5-12l50-50c3-3 7-5 12-5h75c-5-10-9-21-9-33 0-36 30-66 67-66 36 0 66 30 66 66 0 12-3 24-9 33h317c-6-10-9-21-9-33 0-36 29-66 66-66 37 0 67 30 67 66 0 12-4 24-10 33h60c9 0 16 8 16 17v66c-1 10-8 18-17 18m-830 730h-100c-9 0-16 7-16 16 0 9 7 17 16 17h100c9 0 16-8 16-17 0-9-7-16-16-16m581-415h133v-33h-133z m133 33h-133v33h133z m-166-133h-100v166h100z m-133 67h-133v33h133z m0 66h-133v33h133z m-133-100h133v-33c0-18 15-33 33-33h99c19 0 34 15 34 33v33h132v-248h-431v248z m33-381c0-19-14-33-33-33-18 0-33 14-33 33 0 18 15 33 33 33 19 0 33-15 33-33m432 0c0-19-15-33-33-33-19 0-33 14-33 33 0 18 14 33 33 33 18 0 33-15 33-33m66 66h-657l-40 40v757h33v-747c0-9 7-16 16-16h648v-34z" horiz-adv-x="1000" />

<glyph glyph-name="control_vel" unicode="&#xe804;" d="M417 351c9 0 16 7 16 17v67c0 10-7 17-16 17-10 0-17-7-17-17v-67c-1-10 7-17 17-17m117-48c0 0 0 0 0 0-9 5-19 2-24-6v0l-79-134c-37 8-74-15-82-52-9-37 14-74 51-83 37-8 74 15 83 52 5 25-3 50-22 67l79 133c4 8 2 18-6 23m-89-224c-6-10-17-16-29-16-18 0-34 15-34 34 0 18 15 34 34 34 4 0 9-1 12-3 1 0 1 0 1-1 2 0 3-1 5-1 16-11 21-32 11-47m226 17c0-9 8-16 17-16h68c9 0 16 7 16 16 0 10-7 17-16 17h-68c-9 0-17-7-17-17m-526 17h-68c-9 0-17-7-17-17 0-9 8-16 17-16h68c10 0 17 7 17 16 0 10-7 17-17 17m120 282c-5 8-15 11-23 6-8-5-11-15-6-23l29-49c5-8 15-11 23-6 8 5 11 15 6 23z m-78-141l-50 28c-8 5-18 2-23-6-5-9-2-19 6-23l50-29c9-4 19-2 23 7 5 8 2 18-6 23m586-40c11-35 17-72 17-109v-99c-1-7-6-12-12-11h-723c-6-1-11 4-11 11v91c0 200 162 367 362 372 21 1 41 0 61-3-2 11-3 23-3 34-19 3-39 4-59 3-218-5-395-188-395-406v-91c0-25 20-45 45-45h723c25 0 45 20 46 45v99c0 38-6 76-17 113-11-2-23-4-34-4m-18 525c-130 0-235-105-235-235 0-130 105-235 235-235 130 0 235 105 235 235 0 130-105 235-235 235m0-439c-112 0-204 91-204 204 0 113 92 204 204 204 113 0 204-91 204-204 0-112-91-204-204-204m60 302l-91-91-28 28c-19 19-50 19-70 0-19-19-19-50 0-69l65-64c18-19 48-19 66 0l127 126c19 19 19 50 0 70-19 19-50 19-69 0m47-47l-127-127c-6-6-16-6-22 0l-65 64c-6 7-6 18 0 25 7 7 18 7 25 0l39-40c6-6 16-6 23 0l102 102c7 7 17 7 24 0 8-7 8-18 1-24" horiz-adv-x="1000" />

<glyph glyph-name="denied_path" unicode="&#xe805;" d="M984 608c0 71-58 129-129 129-71 0-129-58-129-129 0-76 97-180 117-200v-93c0-49-40-88-89-88h-186l149 149c2 2 4 5 4 9 0 3-2 6-4 9l-88 87c-4 5-13 5-17 0l-152-152-152 152c-5 5-13 5-18 0l-87-87c-3-3-4-6-4-9 0-4 1-7 4-9l149-149h-231c-5 23-26 40-52 40-29 0-53-24-53-53 0-30 24-54 53-54 26 0 47 17 52 41h211l-31-30c-2-3-3-6-3-9 0-4 1-7 3-9 3-3 6-4 9-4v0c4 0 7 2 9 4l62 62c2 2 4 6 4 9 0 3-2 6-4 9l-152 152 70 70 152-152c5-5 13-5 18 0l152 152 70-70-152-152c-2-3-3-6-3-9 0-3 1-7 3-9l152-152-70-70-152 152c-5 5-13 5-18 0l-152-152-70 70 54 54c3 3 4 6 4 9 0 3-1 6-4 9-5 5-12 5-17 0l-63-63c-5-5-5-13 0-18l87-87c5-5 13-5 18 0l152 152 152-152c2-3 5-4 9-4 3 0 6 1 8 4l88 87c5 5 5 13 0 18l-129 129h166c63 0 115 51 115 114v94c21 23 115 124 115 199m-915-424c-16 0-30 14-30 30 0 16 14 30 30 30 17 0 30-14 30-30 0-16-13-30-30-30m786 528c57 0 104-47 104-104 0-57-71-141-101-174v0l-3-3-2 3c-47 50-102 126-102 174 0 57 47 104 104 104m52-91c0 28-24 51-52 51-28 0-51-23-51-51 0-29 23-52 51-52 28 0 52 23 52 52m-78 0c0 14 12 26 26 26 15 0 26-12 26-26 0-15-11-26-26-26-14 0-26 11-26 26" horiz-adv-x="1000" />

<glyph glyph-name="eletric_mauer" unicode="&#xe806;" d="M879 714c0 9-7 16-17 16h-726c-9 0-16-7-16-16v-727c0-9 7-16 16-16h583c9 0 17 7 17 16 0 9-8 17-17 17h-566v693h693v-566c0-9 7-16 17-16 9 0 16 7 16 16v583z m-380-610v0c-5 0-11 3-14 8l-128 185c-53 70-45 187 17 249 33 33 78 52 125 52 48 0 92-19 126-52 61-62 69-179 16-250l-128-184c-3-5-8-8-14-8m0 460c-38 0-74-15-101-42-51-51-57-147-13-205l114-166 114 165c0 0 0 0 0 0 44 59 38 155-13 206-26 27-62 42-101 42m0-236c-51 0-93 42-93 94 0 51 42 93 93 93 52 0 94-42 94-93 0-52-42-94-94-94m0 153c-32 0-59-26-59-59 0-33 27-60 59-60 33 0 60 27 60 60 0 33-27 59-60 59m-220-609h-192c-36 0-66 30-66 66v192c0 9 8 17 17 17 10 0 17-8 17-17v-192c0-18 14-32 32-32h192c9 0 17-7 17-17 0-9-8-17-17-17m683 681c-10 0-17 8-17 17v192c0 18-14 32-32 32h-192c-9 0-17 7-17 17 0 9 8 17 17 17h192c36 0 66-30 66-66v-192c0-9-8-17-17-17" horiz-adv-x="1000" />

<glyph glyph-name="fleet" unicode="&#xe807;" d="M981 133c3 3 5 8 5 13v173c0 4-1 7-4 10l-14 20-38 53-97 140c-3 5-9 8-15 8h-150v99c0 10-8 18-18 18h-618c-10 0-18-8-18-18v-504c0-10 8-18 18-18h113c6-54 52-94 106-94 54 0 100 41 106 94h345c7-54 52-94 106-94 55 0 100 41 106 94h54c5 0 9 2 13 6m-172-60c-39 1-71 33-71 72 0 39 32 71 71 71 39 0 71-32 71-71 0-39-32-71-71-71z m-558 0c-39 1-71 33-71 72 0 39 32 71 71 71 40 0 72-32 72-71 0-39-32-71-72-71z m381 559v-46h-128c-10 0-18-8-18-17 0-10 8-18 18-18h128v-388h-274c-7 54-52 95-106 95-54 0-100-41-107-95h-95v114h484c10 0 18 8 18 18 0 10-8 18-18 18h-484v319h582z m195-144h-99c-10 0-18-8-18-17v-132c0-10 8-18 18-18h217l5-8v-150h-35c-7 54-52 94-106 94-55 0-100-40-106-94h-36v351h142z m93-132h-174v97h106z" horiz-adv-x="1000" />

<glyph glyph-name="follow_bike" unicode="&#xe808;" d="M327 266l-156 226c-58 78-50 206 19 274 36 37 85 57 137 57 53 0 101-20 138-57 68-68 77-196 18-275z m0 531c-45 0-87-18-119-50-59-59-67-171-15-240l134-194 135 194c51 69 44 181-16 240-32 32-74 50-119 50m0-367l-83 120c-31 42-27 108 10 145 20 20 46 30 73 30 28 0 54-10 73-30 37-37 42-103 10-145z m0 269c-20 0-40-8-54-23-27-26-30-79-7-110l61-89 62 89c23 31 19 83-7 110-15 15-34 23-55 23m-57-583c-66 0-119-54-119-120 0-66 53-119 119-119 66 0 120 53 120 119 0 66-53 120-120 120m0-216c-52 0-95 43-95 96 0 53 43 96 95 96 53 0 96-43 96-96 0-53-43-96-96-96m0 144c-26 0-47-22-47-48 0-27 21-48 47-48 27 0 48 21 48 48 0 26-21 48-48 48m0-72c-13 0-23 11-23 24 0 13 10 24 23 24 14 0 24-11 24-24 0-13-10-24-24-24m478 144c-14 0-28-3-41-8l-10 22c15 5 31 9 47 9 1 0 2 1 3 1 24 0 47-6 68-17 6-3 13-1 16 5 3 6 1 13-5 16-24 13-50 19-77 19-1 0-1 1-1 1h-1c-2 0-4-1-7-1-18-1-36-5-54-11l-19 40c11-3 22-5 33-5 7 0 12 6 12 12v96c0 7-5 12-12 12-27 2-55-10-73-31l-23 48c-2 4-6 7-11 7h-72c-6 0-12-5-12-12 0-6 6-12 12-12h64l18-36h-98c-32 0-61-19-73-48-2 0-4 0-6 0h-191c-27 0-48-21-48-47 0-13 10-23 22-24-15-6-29-14-41-24-6-4-6-11-2-17 4-5 11-6 16-2 44 34 102 40 151 16 50-24 81-74 81-129v-15c-2-9 1-19 7-26 4-4 11-7 17-6h131c10 0 19 3 26 10 6 7 10 16 10 26v12c0 23 6 47 17 67 1 2 2 3 2 5 11 18 25 33 42 45 1 1 2 1 2 1 2 1 3 2 5 3 0 1 1 1 2 2l11-22c-51-31-71-95-47-149 24-55 85-83 142-67 57 16 94 72 86 131-9 59-59 103-119 103m-107 131c0 17 21 32 48 35v-70c-15 1-29 7-40 17l-8 17c0 1 0 1 0 1m-136 0h104l36-72h-179c-9 0-16 7-16 16 0 31 25 56 55 56m-270-48h191v-24h-215c0 14 11 24 24 24m346-215c0-3-1-6-3-8-3-3-6-4-9-4h-131c0 2 0 5 0 8v16c0 69-42 130-106 155h94c6 0 12 3 17 8 7-5 15-8 23-8h194l5-10c-1-1-2-1-3-2-2-1-5-3-7-4l-1-1c-3-2-7-5-10-7-1 0-2 0-3 0h-156c-9 0-18-4-25-11-7-7-11-16-10-25v-10c-1-10 3-20 10-26 7-7 16-11 25-11h103c-2-8-4-16-5-24h-74c-6 0-12-6-12-12 0-7 6-12 12-12h72z m20 91c0 0 0-1-1-1 0 0 0 0 0-1-1-1-2-3-3-5h-112c-3 0-6 1-8 4-2 2-4 5-3 9v10c-1 3 1 6 3 9 2 2 5 3 8 3h135c-6-7-11-15-16-23-1-2-2-3-3-5m147-175c-42 0-79 28-91 69-12 40 4 84 39 107l21-44c-17-15-20-42-7-61 13-19 38-26 59-15 21 10 31 35 23 57-7 22-30 35-53 30l-21 44c36 12 75 2 101-26 26-28 32-69 17-103-15-35-50-58-88-58m0 120c13 0 24-11 24-24 0-13-11-24-24-24-13 0-24 11-24 24 0 5 2 10 5 14 2-1 5-2 7-2 4 0 7 1 9 4 2 2 3 5 3 8z" horiz-adv-x="1000" />

<glyph glyph-name="follow_car" unicode="&#xe809;" d="M448 264l-161 232c-59 80-51 212 19 282 38 38 89 59 142 59 53 0 104-21 142-59 70-70 78-202 18-283z m0 545c-46 0-89-18-122-51-61-61-69-176-16-246l138-200 138 199c53 71 45 186-16 247-33 33-76 51-122 51m0-377l-85 124c-32 42-28 111 10 149 20 20 47 31 75 31 28 0 55-11 75-31 38-38 42-106 10-150z m0 277c-21 0-41-9-56-24-27-27-31-81-7-113l63-91 63 91c24 32 20 86-7 113-15 15-35 24-56 24m-378-602v-116c0-22 14-42 34-50l47-19c1-1 3-1 5-1h5c9-25 28-44 53-53 44-15 93 8 109 53h383c8-25 28-44 52-53 45-15 94 8 110 53h48c8 0 14 6 14 14v85c0 24-12 45-33 57-50 29-106 44-164 44l-49 27c-71 39-151 59-232 59h-17c-69 0-137-14-200-42-19-9-37-19-55-30l-97-14c-8-1-13-7-13-14m659-157c0 27 19 50 46 56 31 6 61-14 68-45 6-31-14-61-45-67-31-7-61 13-68 44-1 4-1 8-1 12m-258 143h258c54 0 107-14 153-41 12-6 19-18 19-31v-71h-29c0 47-38 86-86 86-47 0-86-39-86-86h-229z m0 85c70-3 138-22 199-55l3-1h-202z m-28-56h-152l-25 25c54 21 111 32 168 32h9z m-258-172c0 27 19 50 46 56 31 6 61-14 67-45 6-31-13-61-44-67-31-7-62 13-68 44-1 4-1 8-1 12m-86 145l88 12c2 1 3 2 5 3 15 9 30 17 46 24l37-37c2-3 6-4 10-4h157v-143h-114c0 47-39 86-86 86-3 0-6-1-9-1-1 0-2 0-3 0-2 0-4-1-6-1-1 0-2-1-3-1-2 0-3-1-5-1-1-1-2-1-4-1-1-1-3-2-4-2-1 0-2-1-4-2-1 0-2-1-3-2-1 0-3-1-4-2-1-1-2-1-4-2-1-1-2-2-3-2-1-1-2-2-3-3-1-1-2-2-3-3-1 0-2-1-3-2-1-1-2-2-3-3-1-1-2-2-3-3 0-1-1-3-2-4-1-1-2-2-3-3 0-1-1-2-2-4 0-1-1-2-2-3-1-1-1-3-2-4 0-1-1-2-2-4 0-1 0-2-1-3 0-2-1-3-2-4 0-2 0-3-1-4 0-2-1-3-1-5 0-1 0-2 0-4-1-1-1-2-1-4 0-1 0-3 0-4 0-2 0-3 0-4l-42 16c-10 4-16 14-16 24v59h43v29h-43v16z" horiz-adv-x="1000" />

<glyph glyph-name="follow_fleet" unicode="&#xe80a;" d="M623 143l-9 12-23 34-61 86c-2 3-5 5-9 5h-94v62c0 6-5 11-11 11h-132l-15-22h136v-28h-80c-6 0-11-5-11-11 0-6 5-11 11-11h80v-241h-171c-3 33-32 58-66 58-33 0-62-25-66-58h-59v70h301c6 0 11 6 11 12 0 6-5 11-11 11h-301v198h67l-16 22h-62c-6 0-11-5-11-11v-313c0-6 5-11 11-11h70c4-34 32-59 66-59 34 0 62 25 66 59h215c4-34 32-59 66-59 34 0 62 25 66 59h33c3 0 6 1 8 3 2 2 3 5 3 8v108c0 2-1 4-2 6m-454-159v0c-25 0-45 20-45 45 0 24 20 44 45 44 24 0 44-20 44-44 0-25-20-45-44-45m373 236l42-60h-108v60z m-27-236v0c-24 0-44 20-44 45 0 24 20 44 44 44 25 0 44-20 44-44 0-25-19-45-44-45m88 56h-22c-4 33-32 58-66 58-34 0-62-25-66-58h-22v218h88l12-16h-62c-7 0-12-5-12-11v-82c0-6 5-11 12-11h135l3-5v-93z m-414 242l-129 186c-48 64-41 170 15 227 30 30 71 47 114 47 43 0 83-17 114-47 56-57 63-163 15-228z m0 438c-37 0-72-15-98-41-50-49-56-142-13-198l111-161 111 160c42 57 36 150-13 199-26 26-61 41-98 41m0-303l-69 99c-26 34-22 89 8 120 16 16 38 25 61 25 23 0 44-9 60-25 30-31 34-86 8-120z m0 222c-17 0-33-7-45-19-22-22-25-65-6-91l51-73 50 73c19 25 17 69-5 91-12 12-28 19-45 19m788-496l-9 12-23 33-61 87c-2 3-5 5-9 5h-94v62c0 6-5 11-11 11h-266c-6 0-11-5-11-11 0-6 5-11 11-11h255v-29h-80c-6 0-11-5-11-11 0-6 5-11 11-11h80v-241h-65c-6 0-11-5-11-11 0-6 5-11 11-11h109c4-33 32-59 66-59 34 0 62 26 66 59h33c3 0 6 1 8 4 2 2 3 5 3 8v107c0 3-1 5-2 7m-81 76l42-59h-108v59z m-27-235v0c-27 0-48 24-44 52 3 18 18 33 36 36 28 5 52-16 52-43 0-25-19-45-44-45m-88 274h88l12-16h-62c-7 0-12-5-12-11v-82c0-6 5-11 12-11h135l3-5v-94h-22c-4 34-33 59-66 59-34 0-62-25-66-59h-23" horiz-adv-x="1000" />

<glyph glyph-name="follow_charge" unicode="&#xe80b;" d="M778-13h-48v220c0 11-9 19-19 19h-249c-11 0-19-8-19-19v-220h-39v421c0 11-8 19-19 19h-59c-4 12-15 19-27 19h-57c-16 0-29-12-29-28 0-16 13-29 29-29h57c12 0 23 8 27 19h21v-440c0-2 1-5 3-7l28-28c2-2 4-3 7-3h44c-4-6-6-12-6-19 0-21 17-39 39-39 21 0 38 18 38 39 0 6-2 13-5 19h182c-3-6-5-12-5-19 0-21 17-39 38-39 22 0 39 18 39 39 0 6-2 13-6 19h34c6 0 10 4 10 10v38c0 5-4 9-9 9m-479 421h-57c-5 0-10 4-10 10 0 5 5 9 10 9h57c5 0 10-4 10-9 0-5-4-10-10-10m335-239h77v-19h-77z m77 19h-77v19h77z m-96-76h-57v95h57z m-76 38h-77v19h77z m0 38h-77v19h77z m-77-57h77v-20c0-10 8-19 19-19h57c11 0 20 9 20 19v20h76v-144h-249v144z m19-220c0-11-8-20-19-20-10 0-19 9-19 20 0 10 9 19 19 19 11 0 19-9 19-19m249 0c0-11-9-20-19-20-11 0-19 9-19 20 0 10 8 19 19 19 10 0 19-9 19-19m38 38h-379l-23 23v436h19v-430c0-6 5-10 10-10h373v-19z m-182 323l-155 225c-58 77-50 205 18 274 37 36 86 57 138 57 51 0 100-21 137-57 68-68 76-197 18-275z m0 529c-44 0-86-18-118-49-60-60-67-171-16-240l134-193 134 193c52 68 44 180-15 240-32 31-74 49-119 49m0-366l-82 120c-32 41-27 108 9 145 20 19 46 30 73 30 28 0 54-11 73-30 37-37 41-103 10-145z m0 268c-20 0-39-8-54-22-27-27-30-79-7-110l61-89 61 88c24 31 20 84-6 111-15 14-34 22-55 22" horiz-adv-x="1000" />

<glyph glyph-name="fuel_man" unicode="&#xe80c;" d="M730 479v246c0 7-5 12-11 12h-338c-6 0-11-5-11-12v-246c0-6 5-11 11-11h338c6 0 11 5 11 11m-219 11l1 3c6 16 21 26 38 26 17 0 32-10 38-26l1-3z m196 0h-95l0 2c-6 29-32 50-62 50-1 0-2 0-3 0-1 0-1 0-2 0h-1l-1 1-48 72c-2 3-4 5-7 5-3 1-6 0-9-1-2-2-4-5-5-8 0-3 0-6 2-8l45-68-2-1c-16-9-27-24-31-42l0-1h-95v223h314v-224z m-157 208c-6 0-11-5-11-12v-26c0-6 5-11 11-11 6 0 11 5 11 11v26c0 7-5 12-11 12m113-17c-3 0-6-1-8-3l-18-19c-5-4-5-11 0-16 4-4 11-4 16 0l18 19c2 2 3 5 3 8 0 3-1 6-3 8-2 2-5 3-8 3m-234-19l19-19c4-4 11-4 16 0 4 5 4 12 0 16l-19 19c-2 2-5 3-8 3-3 0-6-1-8-3-2-2-3-5-3-8 0-3 1-6 3-8m495 25h-15v88l0 0 22 22c3 2 4 6 4 10-2 10-14 12-20 6l-26-26c-2-2-3-5-3-8v-92h-13c-7 0-12-5-12-12v-155c0-6 5-11 12-11h14v-59c0-10-6-20-16-22-14-3-26 8-26 21v163c0 15-6 30-18 40-13 10-28 12-43 5l-3-1v91c0 37-30 68-67 68h-329c-37 0-67-31-67-68v-461c0-6 5-11 11-11 6 0 12 5 12 11v461c0 25 20 45 44 45h329c24 0 45-20 45-45v-607h-254c-6 0-11-5-11-11 0-6 5-11 11-11h293v-30h-155c-6 0-11-5-11-11 0-6 5-11 11-11h166c7 0 12 5 12 11v52c0 6-5 11-12 11h-27v484c4 11 15 17 26 13 9-3 14-11 14-21v-166c0-22 16-42 37-45 27-4 51 17 51 43v60h14c7 0 12 5 12 12v155c0 7-5 12-12 12m-11-155h-29v132h29z m-415-515c-21 0-38-17-38-39 0-21 17-39 38-39 22 0 39 18 39 39 0 22-17 39-39 39m0-56c-9 0-17 8-17 17 0 10 8 18 17 18 10 0 18-8 18-18 0-9-8-17-18-17m-337 394c-22 0-39-18-39-39 0-22 17-39 39-39 21 0 39 17 39 39-1 21-18 39-39 39m0-57c-10 0-18 8-18 18 0 10 8 18 18 18 10 0 18-8 18-18-1-10-9-18-18-18m337-225c-11 0-23-2-33-6l-81 80 81 80c10-4 22-6 33-6 26 0 50 10 68 28 17 18 27 42 27 67 0 14-3 28-9 41-1 3-4 5-8 5-3 1-6 0-9-3l-49-48-24 25 48 48c3 3 4 6 3 10 0 3-2 6-5 7-13 6-27 10-41 10-53 0-95-43-95-95 0-12 2-24 6-34l-80-80-80 80c4 11 6 22 6 34 0 52-42 95-95 95-52 0-95-43-95-95 0-53 43-95 95-95 12 0 23 2 34 6l80-80-80-80c-11 4-23 7-36 7-52 0-95-43-95-95 0-15 3-28 10-41 1-3 4-6 7-6 4-1 7 0 10 3l48 49 25-25-49-49c-2-2-3-6-3-9 1-4 3-6 6-8 13-6 27-9 41-9 52 0 95 43 95 95 0 11-2 22-6 32l82 81 80-80c-4-11-7-22-7-34 0-52 43-95 95-95 53 0 95 43 95 95 0 53-42 95-95 95m-293 174c-4 4-8 4-13 2-10-4-20-7-31-7-41 0-74 33-74 74 0 41 33 74 74 74 40 0 73-33 73-74 0-11-2-22-7-32-2-4-1-9 2-12l86-85-25-25z m23-226c-3-3-4-8-2-12 5-9 7-19 7-30 0-41-33-74-74-74-6 0-12 1-17 2l44 45c5 4 5 11 0 15l-39 39c-4 5-11 5-15 0l-45-44c-1 5-2 11-2 17 0 41 33 74 74 74 12 0 23-3 33-8 4-2 9-1 13 2l225 225c3 3 4 8 2 12-5 10-7 21-7 32 0 41 33 74 73 74 6 0 12-1 18-2l-45-45c-4-4-4-10 0-15l40-39c4-5 11-5 15 0l44 44c2-5 2-11 2-17 0-20-7-38-21-52-14-14-33-22-53-22-11 0-21 3-31 7-4 2-9 2-12-2z m270-117c-40 0-73 34-73 74 0 11 2 22 7 32 2 4 1 9-2 12l-86 85 25 25 86-85c3-3 7-4 12-2 10 5 20 7 31 7 41 0 74-33 74-74 0-40-33-74-74-74" horiz-adv-x="1000" />

<glyph glyph-name="in_your_hand" unicode="&#xe80d;" d="M283 457c8 0 15 7 15 16v0c0 9-7 16-15 16-9 0-16-7-16-16v0c0-8 7-16 16-16m391 109c-10 0-20-2-28-7v114c0 32-27 59-59 59-10 0-20-3-29-8v42c0 33-26 59-58 59-33 0-59-26-59-59v-28c-8 5-18 8-29 8-32 0-58-26-58-59v-58c-9 5-18 7-29 7-32 0-58-26-58-58v-46c0-8 6-15 14-15 9 0 15 7 15 15v46c0 16 13 29 29 29 16 0 29-13 29-29v-134h-15c-8 0-15-7-15-15 0-8 7-15 15-15h233c8 0 15 7 15 15 0 8-7 15-15 15h-14v229c0 16 13 29 29 29 16 0 29-13 29-29v-271c-79-6-147-62-168-140-2-8 2-16 10-18 1 0 3-1 4-1 7 0 13 5 15 11 18 70 82 118 154 118 8 0 15 7 15 15v121c0 15 13 28 28 28 16 0 29-13 29-28v-218c0-112-91-203-203-203-112 0-203 91-203 203v139c0 8-7 15-15 15-8 0-15-7-15-15v-139c0-62 24-121 69-165 44-44 102-68 164-68 62 0 121 24 165 68 44 44 68 103 68 165v218c0 32-26 58-59 58m-290-122v243c0 16 13 29 29 29 16 0 28-13 28-29v-243z m88 0v322c0 16 13 29 28 29 16 0 29-13 29-29v-322z m-7-229c0 9-7 15-15 15-8 0-15-6-15-15v0c0-8 7-15 15-15 8 0 15 7 15 15m35-340c-227 0-412 185-412 412 0 60 13 118 37 172 4 8 13 11 20 8 8-4 11-13 8-20-23-51-35-104-35-160 0-210 172-382 382-382 211 0 382 172 382 382 0 57-12 112-37 164-3 7 0 16 8 20 7 3 16 0 20-8 26-55 39-114 39-176 0-227-184-412-412-412" horiz-adv-x="1000" />

<glyph glyph-name="marker" unicode="&#xe80e;" d="M500-124l-265 384c-100 132-85 351 31 467 63 63 146 97 234 97 88 0 172-34 234-97 117-116 131-335 31-468z m0 910c-78 0-152-31-207-86-104-104-117-300-27-419l234-338 234 338c90 119 77 315-26 419-56 55-129 86-208 86m0-626l-139 201c-51 68-44 182 17 243 33 32 76 50 122 50 46 0 90-18 123-50 60-61 68-174 16-244z m0 458c-37 0-71-14-97-40-48-48-54-142-13-197l110-159 110 159c42 56 36 148-12 197-26 26-61 40-98 40" horiz-adv-x="1000" />

<glyph glyph-name="out_of_traj" unicode="&#xe80f;" d="M178 668c-90 0-163-73-163-163 0-103 147-252 153-258 3-3 6-4 10-4 3 0 7 1 9 4 6 6 154 154 154 258-1 90-74 163-163 163m2-390l-2-3-3 3c-13 14-133 144-133 227 0 75 61 136 136 136 75 0 136-61 136-136 0-75-94-184-134-227m-2 307c-35 0-63-28-63-63 0-35 28-63 63-63 35 0 63 28 63 63 0 35-28 63-63 63m0-100c-21 0-37 17-37 37 0 20 17 36 37 36 20 0 36-16 36-36 0-20-16-37-36-37m588 236c-55 0-100-45-100-100 0-63 89-152 92-156 2-2 5-3 8-3 3 0 6 1 8 3 4 4 92 93 92 156 0 55-45 100-100 100m1-231l-1-1 0 1c-36 38-77 95-77 131 0 42 35 77 77 77 43 0 78-35 78-77 0-43-54-106-77-131m-1 181c-22 0-40-18-40-40 0-23 18-41 40-41 23 0 41 18 41 41 0 22-18 40-41 40m0-59c-10 0-18 8-18 19 0 10 8 18 18 18 10 0 19-8 19-18 0-11-9-19-19-19m-430-384h-159c-8 0-14-6-14-13 0-8 6-13 14-13h156c1 9 2 18 3 26m606 190c-22 19-52 29-84 29h-91c-7 0-13-6-13-13 0-8 6-14 13-14h91c54 0 99-42 100-93 1-29-11-56-33-75-17-15-41-24-66-24h-67c1-9 3-17 3-27h63c69 0 126 55 127 121 1 37-15 72-43 96m-297-295l-60 60 60 60c5 5 5 14 0 20-6 5-15 5-20 0l-60-60-60 60c-5 5-14 5-20 0-5-6-5-15 0-20l60-60-60-60c-2-3-4-6-4-10 0-4 2-7 4-10 3-2 7-4 10-4 4 0 8 2 10 4l60 60 60-60c3-2 6-4 10-4 4 0 7 2 10 4 5 6 5 15 0 20m69-57c3-2 7-3 10-2 4 0 7 2 9 6 23 33 35 72 35 112 0 54-21 105-60 143-38 38-89 59-143 59-54 0-104-21-143-59-38-38-59-89-59-143 0-54 21-105 59-143 38-38 89-60 143-60 37 0 74 11 105 30 3 2 5 5 6 8 1 4 1 8-1 11-2 3-5 5-9 6-3 1-7 0-10-2-27-16-59-25-91-25-96 0-174 78-174 175 0 96 78 174 174 174 97 0 175-78 175-174 0-35-10-68-30-97-2-3-3-7-2-11 1-3 3-6 6-8" horiz-adv-x="1000" />

<glyph glyph-name="out_route" unicode="&#xe810;" d="M949 414c15 0 26 12 26 26v359c0 14-11 26-26 26h-359c-14 0-26-12-26-26 0-14 12-25 26-25h298l-496-496c-5-5-8-11-8-18 0-7 3-13 8-18 4-4 11-7 18-7 7 0 14 3 18 7l496 496v-298c0-14 11-26 25-26m-449 231h-449c-14 0-26-11-26-25v-719c0-14 12-26 26-26h719c14 0 25 12 25 26v449c0 14-11 26-25 26-14 0-26-12-26-26v-424h-668v668h424c14 0 26 12 26 26 0 14-12 25-26 25" horiz-adv-x="1000" />

<glyph glyph-name="safe" unicode="&#xe811;" d="M781 461v88c0 155-126 281-281 281-155 0-281-126-281-281v-88c-43-9-76-46-76-92v-107c0-10 9-18 19-18 10 0 19 8 19 18v107c0 31 25 56 56 56h525c31 0 57-25 57-56v-405c0-24-16-45-38-53v113c0 10-8 18-18 18-11 0-19-8-19-18v-117h-506c-31 0-57 25-57 56v149c0 10-8 18-18 18-11 0-19-8-19-18v-149c0-51 42-93 94-93h525c51 0 94 42 94 93v406c-1 46-33 83-76 92m-424 2v86c0 79 64 143 143 143 78 0 142-64 142-143v-86z m323 0v86c0 99-81 180-180 180-100 0-180-81-180-180v-86h-64v86c0 134 110 244 244 244 135 0 244-110 244-244v-86z m-518-293c5 0 10 1 13 5 4 4 6 8 6 13 0 5-2 10-6 13-3 4-8 6-13 6-5 0-10-2-13-6-3-3-6-8-6-13 0-5 2-9 6-13 3-4 8-5 13-5m338-199c31 0 56 25 56 57v99c28 19 45 50 45 84 0 56-45 102-101 102-56 0-101-45-101-102 0-34 16-65 44-84v-99c0-31 26-57 57-57m-64 241c0 35 29 63 64 63 35 0 64-28 64-63 0-24-14-46-35-57-6-3-10-10-10-17v-110c0-11-9-19-19-19-11 0-19 9-19 19v111c0 7-4 13-10 16-22 11-35 33-35 57m326-130c5 0 10 2 13 6 4 3 6 8 6 13 0 5-2 10-6 13-3 4-8 6-13 6-4 0-9-2-13-6-3-3-5-8-5-13 0-5 2-10 5-13 4-4 8-6 13-6" horiz-adv-x="1000" />

<glyph glyph-name="store_data" unicode="&#xe812;" d="M310 134c-10 0-18-9-18-19 0-11 8-19 18-19 11 0 19 8 19 19 0 10-8 19-19 19m558 341l112 112c5 5 7 11 5 18-2 6-7 12-13 14l-272 84c-24 79-97 133-181 133-78 0-147-48-176-119l-315-98c-7-2-11-8-13-14-2-7 0-13 5-18l115-115-73-120c-3-5-3-11-1-16 2-6 6-10 11-12l105-35v-292c0-8 5-15 13-18 64-24 302-113 303-114 4-1 9-1 12 0 0 0 0 0 1 0l341 114c8 2 13 9 13 18v300l112 35c7 2 11 7 13 13 2 7 0 14-5 18z m-159 171c0 5-1 10-1 14l223-68-94-95-155 52c17 29 27 63 27 97m-334 50c22 61 79 102 144 102 70 0 130-47 147-115 3-12 5-25 5-37 0-36-12-68-34-96-29-35-72-56-118-56-50 0-96 24-125 65-18 26-27 56-27 87 0 17 3 34 8 50m-306-104l263 82c-2-9-2-18-2-28 0-30 7-60 21-87l-187-62z m38-239l60 100 305-102-60-100c-33 11-270 90-305 102m374-442l-265 100v266c209-70 198-68 204-68 7 0 13 4 17 10l44 74v-382z m19 471l-281 94 153 51c36-45 90-71 147-71 53 0 103 22 139 60l124-41z m323-371l-304-101v398l67-85c5-6 13-8 21-6l216 68z m-215 246l-76 95 304 102 95-95z m-177-165l-42 16c-10 3-21-2-25-11-3-10 2-21 11-25l43-16c9-3 20 2 24 11 4 10-1 21-11 25m0-81l-114 42c-9 4-21-1-24-11-4-10 1-21 11-24l114-43c2-1 4-1 7-1 7 0 14 4 17 12 4 10-1 21-11 25m196 705c-7 8-19 8-27 0l-100-100-25 24c-7 8-19 8-27 0-7-7-7-19 0-27l38-38c8-7 20-7 27 0l114 114c8 8 8 20 0 27" horiz-adv-x="1000" />

<glyph glyph-name="support" unicode="&#xe813;" d="M132 118c0 84 95 121 95 165 0 12-6 23-21 23-14 0-22-9-23-27l-48 0c2 50 28 76 70 76 51 0 73-36 73-69 0-67-92-112-92-152l93 0 0-48-147 0 0 32z m254 74l3 82 0 0 46-1 0 0 0 0c0-26 0-54 0-81l27 0 0-45-27 0 0-61-50 0 0 61-94 0 0 27 49 176 50 2c-14-53-26-104-38-159l1 0z m205-19l0-88-37 0 0 88c0 17-5 23-14 23-9 0-15-6-15-20l0-91-36 0 0 195 36 0 0-62c7 8 15 14 26 14 25 0 40-21 40-59m-137-304c0-6 5-12 12-12l744 0c6 0 12 6 12 12 4 146-209 198-274 211-1 0-2 1-2 2l0 13c0 1 0 1 1 2 3 3 7 6 11 10 28 30 45 69 50 110 0 1 1 2 1 2 25 4 47 17 62 37 21 29 23 72 6 125-1 3-3 5-5 7l-8 5c-1 0-1 1-1 2 1 48-16 95-47 132-39 43-99 66-178 66-79 0-139-22-178-66-32-36-48-83-47-132 0 0 0-1-1-1l-8-6c-2-1-4-4-5-6-17-54-16-96 5-126 15-20 37-33 62-37 1 0 2-1 2-2 5-41 22-80 50-111 4-3 7-6 11-9 0-1 1-2 1-2l0-14c0-1-1-2-2-2-65-12-278-64-274-210m493 185c0 0 1 0 2 0 55-11 235-57 247-169 0-1 0-1 0-2-1 0-1 0-2 0l-342 0c-1 0-2 1-2 2l0 79c0 1 1 2 2 3 55 3 94 28 94 60l0 26c0 0 1 1 1 1m-109-64c-52 0-84 21-84 37l0 50c0 1 1 2 1 2 1 0 2 0 3 0 22-11 48-16 73-16 1 0 2 0 3 0l8 0c1 0 2 0 3 0 25 0 50 5 73 16 1 0 2 0 2 0 1 0 1-1 1-2l0-50c0-16-31-37-83-37m-180 261c1-1 1-2 1-3-1 0-2-1-3 0-13 4-24 12-32 23 0 1-1 1 0 2-14 22-15 54-2 96 0 1 0 1 1 1l10 7c4 3 6 7 6 12-3 44 11 88 40 122 33 37 87 57 159 57l1 0c71 0 124-19 158-57 29-34 43-78 40-122 0-5 2-9 6-12l10-7c1 0 1-1 1-1 13-44 12-77-3-98-8-11-19-20-32-24 0 0-1 0-1 0 0 0-1 0-1 1-1 1-1 2 0 2 17 20 25 46 23 72-2 15-10 29-22 40-1 0-1 0-1 1-7 145-108 160-151 160l-1 0c-8 0-18 0-27-2 0 0 0 0 0 0-9 2-18 2-27 2l-1 0c-43 0-144-15-150-160 0-1-1-1-1-1-12-11-21-25-23-40-3-25 5-51 22-71m334 118c0-1-1-2-2-2-6 0-12 0-18 0-56 0-110 15-158 44-5 4-12 3-17-1-30-33-87-40-110-41 0 0-1 0-1 1-1 0-1 1-1 1 8 106 73 128 125 128 9 0 17 0 26-2 1 0 3 0 5 0 8 2 16 2 24 2l1 0c53 0 117-22 125-128 0 0 1-1 1-2m-302-122c0 0 1 1 1 1 0 3-2 5-3 7-21 24-30 45-28 63 2 10 7 19 15 26 0 0 0 1 1 1 14 0 85 2 130 41 1 0 2 0 3 0 49-28 104-43 161-44 9 0 19 0 30 2 0 0 1 0 1-1 8-6 13-15 15-25 2-18-7-39-28-63-2-2-3-5-3-8l0-8c0-1 0-1-1-2l-85-46c-1 0-2 0-3 1-16 15-41 14-56-2-16-16-15-41 1-56 7-8 17-11 28-11 0 0 0 0 1 0 10 0 20 5 28 12 7 8 10 17 10 28 0 1 0 2 0 3 0 1 1 2 2 2l67 36c0 1 1 1 2 0 1-1 1-1 1-2-6-29-20-56-40-78-24-24-58-37-92-37-2 0-4 0-6 0l-8 0c-36-2-72 11-98 37-46 46-46 120-46 123m194-84c0-8-7-15-15-15-9 0-16 7-16 15 0 8 7 15 16 15 8 0 15-7 15-15m-157-108c0 0 1 0 2-1 0 0 0-1 0-2l0-26c0-31 39-56 94-60 1 0 2-2 2-3l0-78c0-1-1-3-2-3l-342 0c0 0-1 1-1 1-1 1-1 1-1 2 12 111 193 158 248 170m-352-195c-7 0-14 0-21 0-92 6-177 47-239 116-61 69-92 158-86 250 5 92 46 177 115 238 70 62 158 92 251 87 67-4 131-27 185-67 6-5 8-14 3-21-5-6-14-7-20-2-50 36-108 57-170 61-84 5-166-23-229-79-63-57-101-134-106-218-5-85 23-166 79-230 57-63 134-100 218-105 11-1 22-1 33-1 9 1 15-6 15-14 0-8-6-15-14-15-5 0-9 0-14 0" horiz-adv-x="1000" />
</font>
</defs>
</svg>
