<?xml version="1.0" encoding="UTF-8" standalone="no"?>
<svg
   xmlns:dc="http://purl.org/dc/elements/1.1/"
   xmlns:cc="http://creativecommons.org/ns#"
   xmlns:rdf="http://www.w3.org/1999/02/22-rdf-syntax-ns#"
   xmlns:svg="http://www.w3.org/2000/svg"
   xmlns="http://www.w3.org/2000/svg"
   id="SVGRoot"
   version="1.1"
   viewBox="0 0 64 64"
   height="64px"
   width="64px">
  <defs
     id="defs1757" />
  <metadata
     id="metadata1760">
    <rdf:RDF>
      <cc:Work
         rdf:about="">
        <dc:format>image/svg+xml</dc:format>
        <dc:type
           rdf:resource="http://purl.org/dc/dcmitype/StillImage" />
        <dc:title></dc:title>
      </cc:Work>
    </rdf:RDF>
  </metadata>
  <g
     id="layer1">
    <g
       id="g2027"
       transform="matrix(1.3333333,0,0,-1.3333333,51.584467,14.925538)">
      <path
         d="m 0,0 c 0,0.335 -0.272,0.607 -0.605,0.607 h -26.523 c -0.334,0 -0.607,-0.272 -0.607,-0.606 v -26.523 c 0,-0.334 0.273,-0.607 0.607,-0.607 h 21.277 c 0.334,0 0.606,0.273 0.606,0.607 0,0.335 -0.272,0.607 -0.606,0.607 h -20.671 v 25.31 h 25.309 v -20.671 c 0,-0.335 0.273,-0.608 0.608,-0.608 0.333,0 0.605,0.273 0.605,0.608 z"
         style="fill:#72bf44;fill-opacity:1;fill-rule:nonzero;stroke:none"
         id="path2025" />
    </g>
    <g
       id="g2031"
       transform="matrix(1.3333333,0,0,-1.3333333,33.094867,22.234068)">
      <path
         d="M 0,0 C -1.397,0 -2.709,-0.544 -3.696,-1.531 -5.553,-3.388 -5.78,-6.886 -4.181,-9.016 L 0,-15.054 4.16,-9.046 c 0.005,0.006 0.009,0.013 0.014,0.019 1.601,2.136 1.379,5.639 -0.478,7.496 C 2.709,-0.544 1.396,0 0,0 m 0,-16.767 v 0 c -0.204,0 -0.396,0.1 -0.511,0.267 l -4.679,6.757 c -1.93,2.57 -1.648,6.828 0.615,9.092 1.221,1.221 2.846,1.893 4.575,1.893 1.729,0 3.354,-0.672 4.575,-1.893 2.26,-2.261 2.54,-6.516 0.601,-9.113 L 0.511,-16.5 C 0.395,-16.667 0.204,-16.767 0,-16.767"
         style="fill:#72bf44;fill-opacity:1;fill-rule:nonzero;stroke:none"
         id="path2029" />
    </g>
    <g
       id="g2035"
       transform="matrix(1.3333333,0,0,-1.3333333,33.094867,26.240598)">
      <path
         d="m 0,0 c -1.197,0 -2.171,-0.974 -2.171,-2.17 0,-1.197 0.974,-2.171 2.17,-2.171 1.197,0 2.171,0.974 2.171,2.171 C 2.17,-0.974 1.196,0 0,0 m -0.001,-5.584 c -1.882,0 -3.413,1.531 -3.413,3.414 0,1.883 1.532,3.413 3.414,3.413 1.882,0 3.413,-1.53 3.413,-3.413 0,-1.883 -1.531,-3.414 -3.414,-3.414"
         style="fill:#72bf44;fill-opacity:1;fill-rule:nonzero;stroke:none"
         id="path2033" />
    </g>
    <g
       id="g2039"
       transform="matrix(1.3333333,0,0,-1.3333333,22.355937,55.877268)">
      <path
         d="M 0,0 H -7.017 C -8.331,0 -9.4,1.068 -9.4,2.383 v 7.019 c 0,0.342 0.278,0.62 0.621,0.62 0.342,0 0.621,-0.278 0.621,-0.62 V 2.383 c 0,-0.63 0.512,-1.142 1.141,-1.142 H 0 C 0.342,1.241 0.621,0.963 0.621,0.62 0.621,0.278 0.342,0 0,0"
         style="fill:#72bf44;fill-opacity:1;fill-rule:nonzero;stroke:none"
         id="path2037" />
    </g>
    <g
       id="g2043"
       transform="matrix(1.3333333,0,0,-1.3333333,55.599397,22.735398)">
      <path
         d="M 0,0 C -0.342,0 -0.621,0.278 -0.621,0.621 V 7.64 c 0,0.63 -0.512,1.142 -1.142,1.142 h -7.016 c -0.342,0 -0.62,0.278 -0.62,0.62 0,0.343 0.278,0.62 0.62,0.62 h 7.016 c 1.314,0 2.384,-1.068 2.384,-2.382 V 0.621 C 0.621,0.278 0.343,0 0,0"
         style="fill:#72bf44;fill-opacity:1;fill-rule:nonzero;stroke:none"
         id="path2041" />
    </g>
  </g>
</svg>
