<?xml version="1.0" encoding="UTF-8" standalone="no"?>
<svg
   xmlns:dc="http://purl.org/dc/elements/1.1/"
   xmlns:cc="http://creativecommons.org/ns#"
   xmlns:rdf="http://www.w3.org/1999/02/22-rdf-syntax-ns#"
   xmlns:svg="http://www.w3.org/2000/svg"
   xmlns="http://www.w3.org/2000/svg"
   id="SVGRoot"
   version="1.1"
   viewBox="0 0 64 64"
   height="64px"
   width="64px">
  <defs
     id="defs1757" />
  <metadata
     id="metadata1760">
    <rdf:RDF>
      <cc:Work
         rdf:about="">
        <dc:format>image/svg+xml</dc:format>
        <dc:type
           rdf:resource="http://purl.org/dc/dcmitype/StillImage" />
        <dc:title></dc:title>
      </cc:Work>
    </rdf:RDF>
  </metadata>
  <g
     id="layer1">
    <g
       id="g1772"
       transform="matrix(1.3333333,0,0,-1.3333333,27.273863,31.709459)">
      <path
         d="M 0,0 C 0.366,0 0.663,0.297 0.663,0.663 V 3.317 C 0.663,3.684 0.366,3.98 0,3.98 -0.367,3.98 -0.664,3.684 -0.664,3.317 V 0.663 C -0.664,0.297 -0.367,0 0,0"
         style="fill:#f99c1b;fill-opacity:1;fill-rule:nonzero;stroke:none"
         id="path1770" />
    </g>
    <g
       id="g1776"
       transform="matrix(1.3333333,0,0,-1.3333333,28.762133,45.917859)">
      <path
         d="m 0,0 c -0.241,-0.385 -0.662,-0.62 -1.116,-0.623 -0.734,0 -1.327,0.595 -1.327,1.327 0,0.733 0.593,1.327 1.327,1.327 C -0.958,2.03 -0.801,2 -0.652,1.942 -0.635,1.931 -0.624,1.912 -0.605,1.901 -0.548,1.868 -0.485,1.844 -0.421,1.829 0.2,1.439 0.389,0.621 0,0 M 3.464,8.788 C 3.463,8.788 3.462,8.789 3.461,8.789 3.146,8.976 2.739,8.87 2.553,8.555 L -0.554,3.292 C -2.003,3.623 -3.446,2.718 -3.778,1.268 -4.11,-0.182 -3.204,-1.626 -1.754,-1.957 -0.305,-2.289 1.139,-1.383 1.471,0.066 1.69,1.027 1.368,2.032 0.629,2.685 l 3.065,5.193 c 0.188,0.315 0.084,0.723 -0.23,0.91"
         style="fill:#f99c1b;fill-opacity:1;fill-rule:nonzero;stroke:none"
         id="path1774" />
    </g>
    <g
       id="g1780"
       transform="matrix(1.3333333,0,0,-1.3333333,40.542133,44.979059)">
      <path
         d="m 0,0 c 0,-0.366 0.298,-0.663 0.664,-0.663 h 2.653 c 0.368,0 0.664,0.297 0.664,0.663 0,0.366 -0.296,0.664 -0.664,0.664 H 0.664 C 0.298,0.664 0,0.366 0,0"
         style="fill:#f99c1b;fill-opacity:1;fill-rule:nonzero;stroke:none"
         id="path1778" />
    </g>
    <g
       id="g1784"
       transform="matrix(1.3333333,0,0,-1.3333333,13.118933,44.093589)">
      <path
         d="m 0,0 h -2.653 c -0.367,0 -0.663,-0.298 -0.663,-0.664 0,-0.366 0.296,-0.663 0.663,-0.663 h 2.654 c 0.366,0 0.663,0.297 0.663,0.663 C 0.664,-0.298 0.367,0 0,0"
         style="fill:#f99c1b;fill-opacity:1;fill-rule:nonzero;stroke:none"
         id="path1782" />
    </g>
    <g
       id="g1788"
       transform="matrix(1.3333333,0,0,-1.3333333,19.368933,29.404789)">
      <path
         d="M 0,0 C -0.186,0.316 -0.593,0.421 -0.908,0.235 -1.224,0.049 -1.329,-0.358 -1.143,-0.674 l 1.128,-1.915 c 0.186,-0.315 0.593,-0.421 0.909,-0.234 0.315,0.185 0.42,0.593 0.234,0.908 z"
         style="fill:#f99c1b;fill-opacity:1;fill-rule:nonzero;stroke:none"
         id="path1786" />
    </g>
    <g
       id="g1792"
       transform="matrix(1.3333333,0,0,-1.3333333,15.309063,36.762929)">
      <path
         d="M 0,0 -1.958,1.105 C -2.277,1.286 -2.682,1.173 -2.862,0.854 -3.042,0.535 -2.93,0.13 -2.61,-0.05 l 1.958,-1.105 C -0.333,-1.336 0.071,-1.223 0.252,-0.903 0.432,-0.585 0.319,-0.18 0,0"
         style="fill:#f99c1b;fill-opacity:1;fill-rule:nonzero;stroke:none"
         id="path1790" />
    </g>
    <g
       id="g1796"
       transform="matrix(1.3333333,0,0,-1.3333333,45.853333,38.865729)">
      <path
         d="M 0,0 C 0.433,-1.359 0.661,-2.789 0.661,-4.253 V -8.124 C 0.654,-8.374 0.447,-8.572 0.197,-8.567 h -28.263 c -0.25,-0.005 -0.458,0.193 -0.465,0.443 v 3.561 c 0,7.823 6.363,14.36 14.184,14.569 0.798,0.027 1.588,-0.028 2.369,-0.13 -0.057,0.44 -0.094,0.887 -0.1,1.341 -0.759,0.085 -1.525,0.137 -2.304,0.115 -8.534,-0.229 -15.476,-7.358 -15.476,-15.895 v -3.56 c 0.007,-0.982 0.809,-1.773 1.792,-1.77 H 0.197 c 0.983,-0.003 1.783,0.788 1.791,1.77 v 3.87 c 0,1.515 -0.225,2.994 -0.649,4.408 C 0.901,0.076 0.454,0.026 0,0"
         style="fill:#f99c1b;fill-opacity:1;fill-rule:nonzero;stroke:none"
         id="path1794" />
    </g>
    <g
       id="g1800"
       transform="matrix(1.3333333,0,0,-1.3333333,44.939333,34.346259)">
      <path
         d="m 0,0 c -4.404,0 -7.975,3.57 -7.975,7.975 0,4.404 3.571,7.975 7.975,7.975 4.404,0 7.975,-3.571 7.975,-7.975 C 7.97,3.572 4.402,0.005 0,0 m 0,17.177 c -5.082,0 -9.202,-4.12 -9.202,-9.202 0,-5.081 4.12,-9.202 9.202,-9.202 5.082,0 9.201,4.121 9.201,9.202 C 9.195,13.055 5.079,17.171 0,17.177"
         style="fill:#f99c1b;fill-opacity:1;fill-rule:nonzero;stroke:none"
         id="path1798" />
    </g>
    <g
       id="g1804"
       transform="matrix(1.3333333,0,0,-1.3333333,50.495203,21.089729)">
      <path
         d="m 0,0 -4.96,-4.96 c -0.24,-0.24 -0.628,-0.24 -0.868,0 l -2.506,2.506 c -0.27,0.268 -0.27,0.704 0,0.974 0.269,0.268 0.704,0.268 0.973,0 l 1.533,-1.535 c 0.24,-0.239 0.628,-0.239 0.867,0 l 3.988,3.988 C -0.704,1.241 -0.269,1.241 0,0.973 0.269,0.704 0.269,0.269 0,0 m -1.841,1.84 -3.554,-3.553 -1.099,1.1 c -0.748,0.747 -1.96,0.747 -2.708,0 -0.747,-0.748 -0.747,-1.96 0,-2.708 l 2.507,-2.507 c 0.718,-0.718 1.883,-0.718 2.602,0 l 4.96,4.961 c 0.748,0.747 0.748,1.96 0,2.707 -0.747,0.748 -1.96,0.748 -2.708,0"
         style="fill:#f99c1b;fill-opacity:1;fill-rule:nonzero;stroke:none"
         id="path1802" />
    </g>
  </g>
</svg>
