<?xml version="1.0" encoding="UTF-8" standalone="no"?>
<svg
   xmlns:dc="http://purl.org/dc/elements/1.1/"
   xmlns:cc="http://creativecommons.org/ns#"
   xmlns:rdf="http://www.w3.org/1999/02/22-rdf-syntax-ns#"
   xmlns:svg="http://www.w3.org/2000/svg"
   xmlns="http://www.w3.org/2000/svg"
   id="SVGRoot"
   version="1.1"
   viewBox="0 0 64 64"
   height="64px"
   width="64px">
  <defs
     id="defs1757" />
  <metadata
     id="metadata1760">
    <rdf:RDF>
      <cc:Work
         rdf:about="">
        <dc:format>image/svg+xml</dc:format>
        <dc:type
           rdf:resource="http://purl.org/dc/dcmitype/StillImage" />
        <dc:title></dc:title>
      </cc:Work>
    </rdf:RDF>
  </metadata>
  <g
     id="layer1">
    <g
       id="g2108"
       transform="matrix(1.9126907,0,0,-1.9126907,41.562576,27.43317)">
      <path
         d="m 0,0 v 2.307 c 0,2.654 -2.159,4.814 -4.814,4.814 -2.655,0 -4.814,-2.16 -4.814,-4.814 V 0 h -1.705 v 2.307 c 0,3.594 2.925,6.519 6.519,6.519 3.594,0 6.519,-2.925 6.519,-6.519 V 0 Z m -8.625,0 v 2.307 c 0,2.101 1.71,3.811 3.811,3.811 2.101,0 3.811,-1.71 3.811,-3.811 V 0 Z M 2.708,-0.051 v 2.358 c 0,4.147 -3.374,7.522 -7.522,7.522 -4.148,0 -7.522,-3.375 -7.522,-7.522 v -2.358 c -1.143,-0.233 -2.006,-1.245 -2.006,-2.456 v -2.847 c 0,-0.277 0.225,-0.501 0.502,-0.501 0.277,0 0.501,0.224 0.501,0.501 v 2.847 c 0,0.829 0.675,1.504 1.505,1.504 h 14.04 c 0.83,0 1.505,-0.675 1.505,-1.504 v -10.832 c 0,-0.654 -0.419,-1.211 -1.003,-1.418 v 3.023 c 0,0.277 -0.225,0.501 -0.502,0.501 -0.276,0 -0.501,-0.224 -0.501,-0.501 v -3.109 h -13.539 c -0.83,0 -1.505,0.675 -1.505,1.504 v 3.962 c 0,0.276 -0.224,0.501 -0.501,0.501 -0.277,0 -0.502,-0.225 -0.502,-0.501 v -3.962 c 0,-1.382 1.125,-2.507 2.508,-2.507 h 14.04 c 1.383,0 2.508,1.125 2.508,2.507 v 10.832 c 0,1.211 -0.863,2.223 -2.006,2.456"
         style="fill:#00aeef;fill-opacity:1;fill-rule:nonzero;stroke:none"
         id="path2106" />
    </g>
    <g
       id="g2112"
       transform="matrix(1.9126907,0,0,-1.9126907,14.553184,42.801062)">
      <path
         d="M 0,0 C 0.132,0 0.261,0.053 0.354,0.147 0.447,0.24 0.501,0.369 0.501,0.501 0.501,0.633 0.447,0.763 0.354,0.855 0.261,0.949 0.132,1.003 0,1.003 -0.132,1.003 -0.262,0.949 -0.354,0.855 -0.448,0.763 -0.502,0.633 -0.502,0.501 -0.502,0.369 -0.448,0.24 -0.354,0.147 -0.262,0.053 -0.132,0 0,0"
         style="fill:#00aeef;fill-opacity:1;fill-rule:nonzero;stroke:none"
         id="path2110" />
    </g>
    <g
       id="g2116"
       transform="matrix(1.9126907,0,0,-1.9126907,28.567851,40.636273)">
      <path
         d="M 0,0 C 0,0.94 0.765,1.705 1.705,1.705 2.646,1.705 3.41,0.94 3.41,0 3.41,-0.646 3.052,-1.229 2.475,-1.521 2.307,-1.606 2.2,-1.779 2.2,-1.968 v -2.95 c 0,-0.277 -0.224,-0.502 -0.502,-0.502 -0.276,0 -0.501,0.225 -0.501,0.502 v 2.956 c 0,0.188 -0.104,0.36 -0.271,0.446 C 0.354,-1.222 0,-0.641 0,0 m 1.698,-6.423 c 0.83,0 1.505,0.675 1.505,1.505 v 2.662 c 0.753,0.499 1.21,1.338 1.21,2.256 0,1.493 -1.215,2.708 -2.708,2.708 -1.493,0 -2.708,-1.215 -2.708,-2.708 0,-0.912 0.452,-1.747 1.197,-2.247 v -2.671 c 0,-0.83 0.675,-1.505 1.504,-1.505"
         style="fill:#00aeef;fill-opacity:1;fill-rule:nonzero;stroke:none"
         id="path2114" />
    </g>
    <g
       id="g2120"
       transform="matrix(1.9126907,0,0,-1.9126907,45.244037,47.262413)">
      <path
         d="M 0,0 C 0.133,0 0.262,0.054 0.354,0.147 0.448,0.24 0.502,0.369 0.502,0.501 0.502,0.634 0.448,0.763 0.354,0.856 0.262,0.949 0.133,1.003 0,1.003 -0.132,1.003 -0.261,0.949 -0.354,0.856 -0.447,0.763 -0.501,0.633 -0.501,0.501 -0.501,0.37 -0.447,0.24 -0.354,0.147 -0.261,0.054 -0.132,0 0,0"
         style="fill:#00aeef;fill-opacity:1;fill-rule:nonzero;stroke:none"
         id="path2118" />
    </g>
  </g>
</svg>
